<?xml version="1.0" encoding="UTF-8" standalone="no"?>
<!-- Generator: Adobe Illustrator 16.0.0, SVG Export Plug-In . SVG Version: 6.00 Build 0)  -->

<svg
   version="1.1"
   x="0px"
   y="0px"
   width="88.5px"
   height="32px"
   viewBox="0 0 88.5 32"
   enable-background="new 0 0 88.5 32"
   xml:space="preserve"
   id="svg1"
   sodipodi:docname="ak47.svg"
   inkscape:version="1.3 (0e150ed6c4, 2023-07-21)"
   xmlns:inkscape="http://www.inkscape.org/namespaces/inkscape"
   xmlns:sodipodi="http://sodipodi.sourceforge.net/DTD/sodipodi-0.dtd"
   xmlns="http://www.w3.org/2000/svg"
   xmlns:svg="http://www.w3.org/2000/svg"><defs
   id="defs1" /><sodipodi:namedview
   id="namedview1"
   pagecolor="#ffffff"
   bordercolor="#000000"
   borderopacity="0.25"
   inkscape:showpageshadow="2"
   inkscape:pageopacity="0.0"
   inkscape:pagecheckerboard="0"
   inkscape:deskcolor="#d1d1d1"
   showgrid="false"
   inkscape:zoom="8"
   inkscape:cx="43.8125"
   inkscape:cy="17.0625"
   inkscape:window-width="1920"
   inkscape:window-height="1009"
   inkscape:window-x="-8"
   inkscape:window-y="-8"
   inkscape:window-maximized="1"
   inkscape:current-layer="svg1" />&#10;&#10;<g
   id="guides">&#10;</g>&#10;<path
   style="fill:#ffffff;stroke-width:0.0772224"
   d="m 46.897577,28.286569 c -0.370177,-0.444373 -0.73737,-0.785521 -1.254865,-1.165858 -0.265452,-0.195096 -0.48264,-0.382768 -0.48264,-0.41705 0,-0.03428 -0.02995,-0.06232 -0.06658,-0.06232 -0.208037,0 -2.589847,-2.361162 -3.367054,-3.337867 -0.279702,-0.351498 -0.577189,-0.720228 -0.661081,-0.819398 -0.08388,-0.09917 -0.152528,-0.197053 -0.152528,-0.217514 0,-0.03921 -0.391948,-0.578504 -0.468528,-0.644678 -0.02457,-0.02124 -0.06859,-0.09074 -0.09782,-0.154445 -0.02923,-0.0637 -0.121869,-0.220085 -0.20588,-0.347501 -0.08402,-0.127417 -0.176403,-0.283793 -0.20532,-0.347502 -0.02892,-0.0637 -0.16209,-0.289583 -0.295938,-0.501945 -0.271496,-0.43075 -1.087075,-2.086624 -1.350239,-2.741398 -0.09389,-0.233596 -0.205466,-0.511597 -0.247956,-0.617778 -0.115278,-0.288083 -0.603228,-1.805325 -0.603284,-1.875865 -4.3e-5,-0.05594 -0.143845,-0.378073 -0.670752,-1.502617 -0.104477,-0.22298 -0.222184,-0.405418 -0.261573,-0.405418 -0.03938,0 -0.07161,0.213087 -0.07161,0.473526 0,0.459051 -0.208586,0.9937 -0.387679,0.9937 -0.03641,0 -0.09052,0.165063 -0.120236,0.366807 -0.08976,0.609219 -0.15498,0.714425 -0.214019,0.345226 -0.05825,-0.364238 -0.18259,-0.459115 -0.693493,-0.529143 l -0.34054,-0.04668 -0.03756,-0.97509 c -0.02858,-0.741977 -0.01369,-0.993643 0.0623,-1.052693 0.05492,-0.04267 0.123921,-0.211325 0.153338,-0.374764 l 0.05348,-0.29716 -1.457936,0.05555 -1.457936,0.05555 -0.336969,0.357439 c -0.347985,0.369127 -0.473867,0.600785 -0.473867,0.87205 0,0.201921 0.231953,0.702556 0.36264,0.782704 0.1188,0.07285 0.13407,0.208525 0.02347,0.208525 -0.106058,0 -0.361236,-0.264384 -0.543166,-0.562759 -0.101888,-0.167105 -0.151352,-0.387398 -0.151547,-0.674923 -3.96e-4,-0.583752 -0.139673,-0.770101 -0.575575,-0.770101 -0.226417,0 -0.349255,-0.03752 -0.37931,-0.115834 -0.04889,-0.127392 -0.323007,-0.158007 -0.393498,-0.04394 -0.02443,0.03953 -0.0091,0.09371 0.03406,0.120391 0.04767,0.02947 0.07609,0.478632 0.07239,1.144368 -0.0034,0.602724 -0.02362,1.052425 -0.04504,0.999334 -0.05426,-0.134458 -0.180524,-0.120955 -0.180524,0.0193 0,0.07286 -0.0735,0.115833 -0.198133,0.115833 -0.220236,0 -0.461457,0.111212 -0.650775,0.30003 -0.06877,0.06858 -0.462068,1.149821 -0.874011,2.402756 -0.411943,1.252933 -0.801107,2.434437 -0.864809,2.625562 -0.13888,0.416684 -0.149682,0.950546 -0.02332,1.152874 0.164592,0.263551 -0.04895,0.72272 -0.408557,0.878514 -0.166107,0.07197 -0.402034,0.130842 -0.524283,0.130842 -0.238671,0 -0.891761,-0.177511 -1.304434,-0.354546 -0.139476,-0.05983 -0.317496,-0.108789 -0.395601,-0.108789 -0.272644,0 -0.854623,-0.316545 -1.047928,-0.569982 -0.135513,-0.177668 -0.194827,-0.352403 -0.194827,-0.573951 0,-0.200052 0.319412,-1.274388 0.858798,-2.888552 0.472339,-1.413519 0.886879,-2.709034 0.921198,-2.878923 0.101538,-0.502629 0.0065,-0.925327 -0.284387,-1.265191 -0.212172,-0.247874 -0.26005,-0.36814 -0.26005,-0.653211 0,-0.321886 0.01672,-0.351935 0.212361,-0.381573 0.116799,-0.01769 -0.07028,-0.03738 -0.415716,-0.04375 -0.677308,-0.01248 -0.719291,-0.04345 -0.72226,-0.532821 -5.8e-4,-0.09556 -0.04053,-0.173751 -0.08877,-0.173751 -0.05954,0 -0.07241,0.11164 -0.04008,0.347501 0.0262,0.191125 0.01943,0.347501 -0.01503,0.347501 -0.235281,0 -1.727343,0.312731 -1.875377,0.393073 -0.103134,0.05597 -0.486742,0.105353 -0.881324,0.113451 -0.384287,0.0078 -0.975038,0.06863 -1.312782,0.134975 -0.337743,0.06634 -0.961581,0.17783 -1.386304,0.247733 -1.87185,0.308083 -2.198835,0.367093 -2.818619,0.508666 -0.66412,0.151702 -1.251462,0.311862 -1.814728,0.494852 -0.169888,0.05519 -0.72589,0.228554 -1.235558,0.38525 -0.509669,0.156692 -1.040787,0.333747 -1.180263,0.393452 -0.139475,0.0597 -0.320735,0.108556 -0.402798,0.108556 -0.08207,0 -0.2633206,0.04791 -0.4027969,0.106444 -0.1394763,0.05855 -0.462094,0.165838 -0.7169283,0.238428 -0.2548333,0.07259 -0.6370847,0.193105 -0.8494465,0.267811 -0.2123619,0.07471 -0.5946133,0.196954 -0.8494466,0.271661 -0.2548343,0.07471 -0.602335,0.179717 -0.7722245,0.233356 -0.1698895,0.05364 -0.5173902,0.159561 -0.7722245,0.235381 -0.2548342,0.07582 -0.6370847,0.19898 -0.8494466,0.273686 -0.2123618,0.07471 -0.5946123,0.195222 -0.8494475,0.267812 -0.2548342,0.07259 -0.577451,0.179882 -0.7169273,0.238426 -0.1394754,0.05855 -0.3176701,0.106445 -0.3959869,0.106445 -0.078317,0 -0.2671472,0.05212 -0.4196232,0.115834 -0.2926611,0.122281 -1.86501291,0.16632 -2.02562093,0.05674 -0.11237195,-0.07668 -0.11662692,-0.891535 -0.005027,-0.961279 0.0810829,-0.05068 0.14100207,-0.695847 0.12884676,-1.387361 -0.002742,-0.156267 0.0304142,-0.306006 0.0736913,-0.332753 0.15907599,-0.09831 0.0711753,-0.185259 -0.2108981,-0.208605 L 0.25524962,14.633235 0.23282112,13.99615 0.21039262,13.359065 h 0.25455065 c 0.20761096,0 0.273147,-0.04201 0.3553966,-0.227826 0.0777956,-0.175751 0.0804022,-0.266027 0.0114073,-0.394944 -0.0539767,-0.100856 -0.0697083,-0.298685 -0.0396784,-0.498939 0.0302892,-0.201984 0.0180939,-0.351394 -0.0311677,-0.381839 -0.10613953,-0.0656 -0.10393212,-0.373119 0.003451,-0.4805 0.0560805,-0.05608 0.0595777,-0.132477 0.0104309,-0.227806 C 0.68681721,10.976629 0.57363355,10.040309 0.59239393,9.6385478 0.59968669,9.4822805 0.57025268,9.3325412 0.52697549,9.3057949 0.4836983,9.2790392 0.44828927,9.0475269 0.44828927,8.7913031 V 8.3254478 l 2.37458263,0.053748 c 1.3060246,0.029565 4.3727198,0.096404 6.81488,0.1485381 l 4.4402901,0.094788 0.424724,0.2253527 c 0.403512,0.2140974 0.480363,0.2266107 1.538872,0.2505798 1.095919,0.024816 1.279629,0.00233 2.491372,-0.3040846 0.882394,-0.223176 3.350455,-0.3742121 4.097418,-0.2507467 0.288428,0.047673 0.289584,0.049361 0.289584,0.4238732 0,0.2068047 0.03475,0.3760087 0.07723,0.3760087 0.04317,0 0.08029,-0.2298757 0.08418,-0.521252 0.0062,-0.4575472 0.01583,-0.490579 0.07944,-0.2702778 0.101229,0.3505895 0.304349,0.3393501 0.247061,-0.013672 -0.03705,-0.2283351 -0.0047,-0.3041235 0.236522,-0.5524029 0.338728,-0.3487768 0.347452,-0.418512 0.05236,-0.418512 -0.319671,0 -0.338,-0.087365 -0.07694,-0.3667067 0.124752,-0.1334833 0.22682,-0.2946557 0.22682,-0.358161 0,-0.1586644 0.08023,-0.1945719 0.328635,-0.1470858 0.152034,0.029063 0.211922,0.086971 0.211922,0.2049147 0,0.1380177 0.06158,0.1024902 0.383645,-0.2213642 C 24.981891,6.4668132 25.155642,6.2685379 25.157,6.2383735 25.1584,6.2082095 25.331856,6.0083959 25.542554,5.7943445 25.895364,5.43592 25.95447,5.40516 26.290371,5.40516 c 0.200601,0 2.869032,0.050211 5.929847,0.1115795 3.060814,0.061368 7.27656,0.1282434 9.368323,0.1486102 3.714778,0.03617 3.803205,0.033576 3.803205,-0.1115794 0,-0.1623564 0.122261,-0.1863837 0.403777,-0.079351 0.101832,0.038717 0.35094,0.041494 0.56489,0.00629 1.261902,-0.2075922 1.877287,-0.340216 1.842183,-0.3970152 -0.02197,-0.035559 -0.429174,-0.064654 -0.904881,-0.064654 -0.781293,0 -0.874253,0.014933 -0.96138,0.1544448 -0.123727,0.1981202 -0.417792,0.1981202 -0.597089,0 -0.102305,-0.113047 -0.237842,-0.1544448 -0.505652,-0.1544448 -0.393008,0 -0.46172,-0.067683 -0.457187,-0.4503448 l 0.0024,-0.2060459 0.186913,0.2123617 c 0.136753,0.1553744 0.259211,0.2123617 0.456336,0.2123617 0.148184,0 0.290902,-0.034751 0.317151,-0.077222 0.06661,-0.1077532 0.528772,-0.09673 0.640785,0.015283 0.134139,0.1341397 2.982274,0.1378167 3.116078,0.00402 0.130279,-0.1302665 0.446641,-0.1224993 0.498344,0.012235 0.05939,0.1547455 0.384259,0.2616263 0.906498,0.2982275 0.474738,0.033272 0.562263,0.09625 0.641727,0.4617615 0.03926,0.1805996 0.08514,0.2123617 0.306794,0.2123617 0.209144,0 0.260626,-0.030507 0.260626,-0.1544448 0,-0.1118395 0.05149,-0.1544449 0.186622,-0.1544449 0.10264,0 0.199864,0.039732 0.216053,0.088296 0.0215,0.064476 0.07155,0.065756 0.185551,0.00475 0.112615,-0.060271 1.00462,-0.053231 3.201039,0.025262 1.674706,0.059848 3.692229,0.1098386 4.483386,0.1110905 1.218857,0.00193 1.454025,0.021025 1.540386,0.1250832 0.09284,0.1118635 0.110533,0.1110293 0.198565,-0.00936 0.136705,-0.1869552 0.474022,-0.09075 0.535102,0.1526148 0.04196,0.1671691 0.100069,0.1914024 0.561038,0.2339591 0.282829,0.02611 0.653235,0.07866 0.823125,0.1167765 0.517105,0.1160179 3.094552,0.1659515 3.48544,0.067524 0.258698,-0.065141 0.369422,-0.065076 0.434751,2.522e-4 0.05774,0.057738 0.49022,0.087653 1.267173,0.087653 h 1.17952 l 0.107189,0.2123616 c 0.06274,0.124312 0.107895,0.4552756 0.108891,0.7982296 0.0014,0.4918963 0.03302,0.6354869 0.196988,0.895221 0.107407,0.1701442 0.293862,0.3464126 0.414343,0.391706 0.47768,0.1795771 6.126575,0.4077751 6.126575,0.2474949 0,-0.040642 0.225876,-0.073898 0.501946,-0.073898 h 0.501946 V 8.5342288 c 0,-0.1902664 0.0471,-0.4769543 0.104659,-0.6370852 0.05756,-0.1601307 0.166052,-0.4996474 0.241082,-0.7544814 0.07504,-0.2548341 0.183719,-0.5928697 0.241528,-0.7511902 0.0578,-0.1583205 0.158824,-0.5231966 0.224485,-0.8108357 0.06566,-0.2876389 0.147612,-0.5682176 0.182099,-0.623508 0.08063,-0.1292517 0.677751,-0.1897885 0.867957,-0.087993 0.136599,0.073105 0.145974,0.1912275 0.145974,1.8391286 v 1.7610066 l 1.023197,0.00699 c 0.562759,0.00382 1.266441,0.043495 1.563751,0.088082 0.297302,0.044587 1.418853,0.08175 2.492343,0.082589 l 1.951761,0.00149 0.07171,0.188679 c 0.06015,0.1583358 0.131298,0.1924877 0.442117,0.2123619 l 0.370382,0.023688 v 0.7722301 0.7722235 l -0.413784,0.02363 c -0.337221,0.01926 -0.421218,0.0521 -0.454026,0.17752 -0.03907,0.149291 -0.107461,0.153861 -2.288996,0.15289 -1.236814,-5.5e-4 -2.574913,0.0196 -2.973535,0.04478 -0.452766,0.0286 -0.880238,0.01101 -1.139026,-0.04692 -0.364482,-0.08156 -0.414259,-0.115701 -0.414259,-0.284077 0,-0.183906 -0.01709,-0.190469 -0.437929,-0.168213 -0.577315,0.03052 -0.670977,0.216216 -0.109061,0.216216 0.383509,0 0.392545,0.0052 0.392545,0.2286 v 0.2286 l -1.158337,-0.04754 c -1.14941,-0.04719 -1.158336,-0.04627 -1.158336,0.118902 0,0.148666 -0.04202,0.16645 -0.39334,0.16645 -0.317346,0 -0.400537,-0.02752 -0.430594,-0.142439 -0.03391,-0.129673 -0.166496,-0.146958 -1.479301,-0.192839 -0.79313,-0.02773 -1.902493,-0.0505 -2.465251,-0.05062 -0.971789,-2.07e-4 -1.023198,0.0076 -1.023198,0.154227 0,0.135723 -0.05149,0.154445 -0.424723,0.154445 -0.394646,0 -0.424723,-0.01289 -0.424723,-0.181953 v -0.181873 l -2.627846,-0.05636 c -1.445316,-0.031 -3.443447,-0.03115 -4.440291,-3.26e-4 l -1.812443,0.05603 v 0.192106 c 0,0.18399 -0.01631,0.190536 -0.386113,0.155003 l -0.386112,-0.0371 v 0.378464 c 0,0.637292 -0.407077,0.872703 -1.225907,0.708938 -0.132725,-0.02654 -0.24132,-0.09605 -0.24132,-0.154445 0,-0.148399 -0.45527,-0.139826 -0.51263,0.0097 -0.02444,0.0637 -0.127608,0.115833 -0.229245,0.115833 -0.112779,0 -0.184794,-0.04515 -0.184794,-0.115833 0,-0.0809 -0.08152,-0.115834 -0.270278,-0.115834 -0.188766,0 -0.270279,0.03492 -0.270279,0.115834 0,0.07207 -0.07294,0.115833 -0.193056,0.115833 -0.120124,0 -0.193056,-0.04377 -0.193056,-0.115833 0,-0.0809 -0.08152,-0.115834 -0.270279,-0.115834 -0.188766,0 -0.270277,0.03492 -0.270277,0.115834 0,0.07207 -0.07294,0.115833 -0.193057,0.115833 -0.120124,0 -0.193057,-0.04377 -0.193057,-0.115833 0,-0.0809 -0.08152,-0.115834 -0.270277,-0.115834 -0.188766,0 -0.27028,0.03492 -0.27028,0.115834 0,0.07207 -0.07294,0.115833 -0.193056,0.115833 -0.120124,0 -0.193055,-0.04377 -0.193055,-0.115833 0,-0.0809 -0.08152,-0.115834 -0.270279,-0.115834 -0.188767,0 -0.270279,0.03492 -0.270279,0.115834 0,0.07723 -0.07723,0.115833 -0.231668,0.115833 -0.180185,0 -0.231667,-0.03432 -0.231667,-0.154445 0,-0.125027 -0.05149,-0.154444 -0.270278,-0.154444 -0.218796,0 -0.270278,0.02941 -0.270278,0.154444 0,0.105265 -0.05149,0.154445 -0.161675,0.154445 -0.09673,0 -0.177898,-0.06204 -0.202062,-0.154445 -0.03036,-0.116054 -0.105334,-0.154444 -0.301661,-0.154444 -0.20979,0 -0.261272,0.03043 -0.261272,0.154444 0,0.102963 -0.05149,0.154445 -0.154445,0.154445 -0.102963,0 -0.154445,-0.05149 -0.154445,-0.154445 0,-0.22317 -0.580606,-0.227711 -0.638848,-0.0049 -0.02823,0.107937 -0.08435,0.137609 -0.202062,0.106826 -0.08964,-0.02344 -0.162981,-0.09069 -0.162981,-0.149448 0,-0.07061 -0.09164,-0.106827 -0.270279,-0.106827 -0.1775,0 -0.270279,0.03635 -0.270279,0.105902 0,0.169352 -3.85957,0.224959 -4.285844,0.06175 -0.388429,-0.14872 -0.650821,-0.332178 -0.653966,-0.457236 -0.0029,-0.115906 -1.000916,-0.122452 -2.010209,-0.01319 -0.361015,0.03907 -0.725891,0.06943 -0.810836,0.06743 -0.474898,-0.01114 -1.780467,0.02261 -1.805322,0.04668 -0.01607,0.01555 0.04044,0.177299 0.125548,0.359441 0.08512,0.182141 0.177548,0.452792 0.205408,0.601444 0.105386,0.562296 0.566438,1.950587 0.936067,2.81862 0.332568,0.781 1.353408,2.609972 1.511176,2.707479 0.03829,0.02367 0.06963,0.138479 0.06963,0.255139 0,0.116658 0.08129,0.322298 0.180658,0.456976 0.651608,0.883204 1.926435,2.225177 2.753794,2.898834 0.318543,0.259366 0.596543,0.491215 0.61778,0.51522 0.0985,0.11135 0.85844,0.618316 0.926848,0.618316 0.04238,0 0.07704,0.03409 0.07704,0.07574 0,0.04167 0.0852,0.09713 0.18933,0.12327 l 0.189331,0.04751 -0.20486,0.320759 c -0.768681,1.203577 -1.096046,1.79611 -1.0582,1.915352 0.05707,0.179818 -0.11419,0.437964 -0.26672,0.402031 -0.08568,-0.02018 -0.252058,0.183923 -0.547775,0.671978 -1.018458,1.680865 -1.179454,1.925934 -1.262998,1.922521 -0.04862,-0.0021 -0.192646,-0.12876 -0.320062,-0.281714 z M 5.3796256,16.371366 c 0.6575287,-0.08292 0.9375593,-0.17691 0.9375593,-0.314648 0,-0.157568 -0.2735399,-0.171223 -0.9256876,-0.04621 -0.3688829,0.07072 -0.7769181,0.128571 -0.9067451,0.128571 -0.1445383,0 -0.2543185,0.04761 -0.2831734,0.122803 -0.075315,0.19628 0.030328,0.281504 0.290718,0.234525 0.1330051,-0.024 0.5323031,-0.08027 0.8873288,-0.125044 z M 80.334892,10.965178 c 0,-0.173994 -0.377231,-0.150974 -0.411139,0.0251 -0.02193,0.113948 0.01481,0.13612 0.192006,0.115834 0.132151,-0.01514 0.219133,-0.07106 0.219133,-0.140922 z M 78.9835,10.656288 c 0,-0.133605 -0.05149,-0.154444 -0.381556,-0.154444 -0.375486,0 -0.523189,0.07972 -0.429279,0.231667 0.02624,0.04247 0.219427,0.07723 0.429279,0.07723 0.330072,0 0.381556,-0.02083 0.381556,-0.154444 z m -11.566925,0 c 3.851383,0 4.086179,-0.0077 4.061836,-0.135139 -0.02135,-0.111625 -0.152382,-0.146274 -0.753132,-0.199137 -0.488316,-0.04296 -0.787371,-0.03662 -0.910128,0.0193 -0.264925,0.120707 -0.716123,0.10696 -0.716123,-0.02181 0,-0.08553 -0.492296,-0.115746 -2.640313,-0.162092 -2.372353,-0.05119 -2.649477,-0.04444 -2.730603,0.06651 -0.06358,0.08695 -0.214531,0.123481 -0.510364,0.123481 -0.421678,0 -0.605405,0.0899 -0.605405,0.296219 0,0.08748 0.07559,0.100525 0.358279,0.06177 0.197053,-0.02702 2.197732,-0.04911 4.445953,-0.04911 z m 9.931323,-0.09653 c -0.0241,-0.169601 -0.05417,-0.174883 -1.260239,-0.221209 -0.679558,-0.0261 -1.800248,-0.05217 -2.490423,-0.05791 l -1.254865,-0.01045 v 0.189527 c 0,0.179835 0.02665,0.190909 0.521252,0.216542 0.286687,0.01486 1.418483,0.03381 2.515099,0.04213 l 1.993849,0.01513 z m 9.664021,-0.05284 c 0.04394,-0.08215 0.07994,-0.425935 0.07994,-0.7639618 0,-0.6967846 -0.01004,-0.7083411 -0.617782,-0.7083411 -0.618176,0 -0.617783,-5.194e-4 -0.617783,0.8126629 0,0.502878 0.029,0.73062 0.09653,0.757866 0.05312,0.02142 0.295117,0.0417 0.537832,0.04504 0.361063,0.0049 0.455856,-0.02107 0.521259,-0.143271 z M 69.099028,8.80295 c 0,-0.042469 0.07163,-0.1488589 0.159193,-0.2364149 0.368813,-0.3688129 0.03312,-0.5455555 -1.00864,-0.5310388 -0.361015,0.00503 -0.934391,-0.026861 -1.27417,-0.070871 -0.773214,-0.10015 -2.762699,-0.1124517 -2.861091,-0.017691 -0.04034,0.038861 -0.49905,0.09545 -1.019336,0.1257558 -0.845116,0.049227 -0.945976,0.041695 -0.945976,-0.070654 0,-0.1504154 -0.387645,-0.1743333 -0.606842,-0.037442 -0.105814,0.066082 -1.135378,0.067521 -4.089902,0.00572 -3.007859,-0.06292 -4.017913,-0.060964 -4.239913,0.00822 -0.339779,0.1058793 -0.886266,0.083032 4.92109,0.2057385 2.102382,0.044421 4.22902,0.1027688 4.725866,0.1296578 0.90092,0.04876 0.903414,0.049432 0.926668,0.2496532 l 0.02331,0.2007643 1.390004,0.041313 c 2.632302,0.078243 3.899734,0.077367 3.899734,-0.0027 z M 79.923397,8.2118128 c 0.09386,-0.084946 0.141218,-0.2359404 0.141218,-0.4502853 0,-0.2685389 -0.03369,-0.3405198 -0.201466,-0.4303054 -0.268634,-0.1437684 -0.770811,-0.1374331 -0.919851,0.011604 -0.195017,0.1950217 -0.236238,0.6648743 -0.07406,0.8440909 0.179751,0.1986237 0.844821,0.2143305 1.054149,0.024896 z M 47.454139,7.7034305 c -0.01846,-0.096058 -0.03428,-0.035651 -0.03514,0.1342389 -8.57e-4,0.1698894 0.01426,0.2484823 0.03358,0.1746508 0.01932,-0.073831 0.02003,-0.2128317 0.0016,-0.3088897 z m 2.493723,-2.3754904 c 0,-0.096754 -0.08196,-0.096754 -0.231667,0 -0.09367,0.060533 -0.08259,0.075085 0.05791,0.07604 0.09556,6.504e-4 0.17375,-0.033567 0.17375,-0.07604 z m -0.07723,-0.1544449 c 0.09027,-0.058333 0.06896,-0.075118 -0.09653,-0.07604 -0.1168,-6.504e-4 -0.212362,0.033567 -0.212362,0.07604 0,0.097641 0.157803,0.097641 0.30889,0 z"
   id="path1" /><path
   style="fill:#ffffff;stroke-width:0.00682556"
   d="m 30.557323,15.496058 c 0,-0.01532 -0.0042,-0.02594 -0.01195,-0.03035 -0.0079,-0.0046 0.352625,-0.0076 1.077391,-0.0089 1.185884,-0.0022 1.111908,4.06e-4 1.111908,-0.04047 v -0.01964 l 0.585292,6.79e-4 c 0.32191,3.75e-4 0.577701,0.0028 0.568422,0.0054 -0.0123,0.0034 -0.01848,0.01153 -0.02283,0.0299 l -0.006,0.0252 -0.633085,0.0019 c -0.683644,0.0021 -0.652566,1.85e-4 -0.656956,0.03818 l -0.0021,0.01827 -1.005065,0.0018 -1.005063,0.0018 z"
   id="path2" /><path
   style="fill:#ffffff;stroke-width:0.00682556"
   d="m 34.255073,15.273654 c 0.0118,-0.0048 0.01536,-0.01168 0.01536,-0.02989 0,-0.02303 8.5e-4,-0.02378 0.029,-0.02581 0.02815,-0.0021 0.02907,-0.0029 0.03113,-0.0277 l 0.0021,-0.0256 h 0.03445 c 0.0286,0 0.03374,0.0019 0.0303,0.0108 -0.0022,0.006 -0.0041,0.01783 -0.0041,0.02643 0,0.01291 -0.0047,0.01639 -0.0267,0.0199 -0.02482,0.0039 -0.02703,0.0062 -0.03132,0.0316 l -0.0047,0.02732 -0.04547,-4.33e-4 c -0.03419,-3.26e-4 -0.04167,-0.002 -0.03011,-0.0066 z"
   id="path3" /><path
   style="fill:#ffffff;stroke-width:0.00682556"
   d="m 34.42191,15.159709 c 0.02356,-0.0024 0.02535,-0.0043 0.02731,-0.0278 0.0016,-0.01904 0.0054,-0.02564 0.01574,-0.02717 0.04299,-0.0063 0.04436,-0.0076 0.04436,-0.03575 0,-0.02703 1.44e-4,-0.02717 0.02657,-0.02717 0.02809,0 0.03486,-0.0075 0.03486,-0.03802 0,-0.01389 0.0042,-0.01709 0.02731,-0.0208 l 0.02731,-0.0044 0.0014,-0.734582 c 7.64e-4,-0.40402 0.0023,-0.708474 0.0035,-0.676564 0.0011,0.0319 0.01129,0.297178 0.02249,0.589487 0.01121,0.292308 0.02039,0.541599 0.02039,0.553981 0,0.02236 2.78e-4,0.02255 0.04267,0.02907 0.03853,0.006 0.03989,0.0066 0.01389,0.0075 -0.03866,0.0011 -0.0429,0.01127 -0.0429,0.102393 v 0.07512 l -0.0256,0.0021 -0.0256,0.0021 -0.002,0.05505 -0.002,0.05505 -0.02875,0.0063 c -0.02695,0.006 -0.02888,0.0079 -0.03088,0.03198 -0.0021,0.02414 -0.0034,0.0256 -0.02536,0.0256 -0.02559,0 -0.03737,0.01385 -0.03737,0.04392 0,0.01748 -1.14e-4,0.0175 -0.05631,0.01637 -0.03097,-6.31e-4 -0.04497,-0.0023 -0.0311,-0.0038 z"
   id="path4" /><path
   style="fill:#ffffff;stroke-width:0.00682556"
   d="m 33.91526,15.383523 c 0.0038,-0.0073 0.0071,-0.02109 0.0071,-0.03072 v -0.0175 h 0.09942 c 0.05469,0 0.10511,-0.0031 0.112067,-0.0067 0.007,-0.0037 0.01468,-0.016 0.01716,-0.02731 0.0044,-0.01985 0.0058,-0.02053 0.04287,-0.02053 0.02983,0 0.03655,0.0019 0.03018,0.0082 -0.0046,0.0046 -0.0082,0.01819 -0.0082,0.03044 v 0.02225 l -0.05631,0.0021 -0.05631,0.0021 -0.0021,0.0256 -0.0021,0.0256 h -0.09539 c -0.09219,0 -0.09515,-4.43e-4 -0.08832,-0.01321 z"
   id="path5" /><path
   style="fill:#ffffff;stroke-width:0.00682556"
   d="m 29.902069,15.066416 c 0,-0.011 -0.01454,-0.01779 -0.03811,-0.01779 -0.01212,0 -0.01651,-0.0037 -0.01651,-0.0141 0,-0.02325 -0.01232,-0.03913 -0.03408,-0.04391 -0.01763,-0.0038 -0.02054,-0.0076 -0.02054,-0.02648 0,-0.02795 -0.01057,-0.03837 -0.03891,-0.03837 h -0.02252 l 5.39e-4,-0.03924 c 2.96e-4,-0.02159 0.0021,-0.03541 0.004,-0.03072 0.002,0.0048 0.01499,0.0086 0.0292,0.0086 h 0.02576 l 0.0046,0.04948 c 0.0048,0.05257 0.01376,0.06655 0.04272,0.06655 0.01321,0 0.01567,0.0041 0.01747,0.029 0.0021,0.02816 0.0029,0.02907 0.0277,0.03113 0.02201,0.0019 0.0256,0.0045 0.0256,0.01876 0,0.0091 -0.0016,0.01666 -0.0035,0.01666 -0.0019,0 -0.0035,-0.0043 -0.0035,-0.0095 z"
   id="path6" /><path
   style="fill:#ffffff;stroke-width:0.0078125"
   d=""
   id="path7" /><path
   style="fill:#ffffff;stroke-width:0.00682556"
   d="m 29.67,14.717583 c 0,-0.02332 -6.5e-4,-0.02388 -0.02731,-0.02388 h -0.02731 l 0.001,-0.06315 c 5.62e-4,-0.03473 0.0023,-0.05392 0.004,-0.04267 0.0041,0.02788 0.01352,0.03755 0.03674,0.03755 h 0.01964 v 0.05802 c 0,0.0319 -0.0016,0.05802 -0.0035,0.05802 -0.0019,0 -0.0035,-0.01074 -0.0035,-0.02388 z"
   id="path8" /><path
   style="fill:#ffffff;stroke-width:0.00682556"
   d="m 30.013346,15.198729 c -0.0058,-0.01527 -0.0135,-0.02168 -0.03019,-0.02502 -0.01905,-0.0038 -0.02042,-0.0052 -0.0091,-0.0097 0.01365,-0.0053 0.06676,-0.0075 0.05411,-0.0021 -0.0038,0.0016 -0.0059,0.01519 -0.0044,0.03018 0.0032,0.03253 6.5e-5,0.03449 -0.01043,0.0067 z"
   id="path9" /><path
   style="fill:#ffffff;stroke-width:0.00682556"
   d="m 30.26253,15.37113 -0.0021,-0.0256 -0.05631,-0.0021 c -0.05513,-0.002 -0.05631,-0.0023 -0.05631,-0.01922 0,-0.02997 -0.01183,-0.04364 -0.03778,-0.04364 -0.02251,0 -0.02365,-0.0011 -0.02365,-0.02412 0,-0.01862 -0.0035,-0.02551 -0.01536,-0.03028 -0.01476,-0.006 -0.01463,-0.0062 0.0035,-0.0066 0.01518,-3.5e-4 0.01876,0.0026 0.01876,0.01532 0,0.02937 0.0138,0.03831 0.06655,0.04311 l 0.04948,0.0046 v 0.02633 0.02633 h 0.05803 0.05803 v 0.02356 c 0,0.01523 0.0042,0.02601 0.01195,0.0305 0.009,0.0052 0.0018,0.007 -0.0303,0.0072 l -0.04226,2.08e-4 z"
   id="path10" /><path
   style="fill:#ffffff;stroke-width:0.00682556"
   d="m 30.336065,15.412825 c -0.0035,-0.0094 -0.0026,-0.0098 0.0062,-0.0026 0.01184,0.0098 0.01308,0.01377 0.0043,0.01377 -0.0034,0 -0.008,-0.005 -0.0104,-0.0112 z"
   id="path11" /><path
   style="fill:#ffffff;stroke-width:0.00682556"
   d="m 30.379858,15.431422 c 0,-0.01501 -0.0037,-0.02825 -0.0086,-0.03018 -0.0048,-0.002 0.02295,-0.0036 0.06143,-0.004 l 0.06996,-5.38e-4 v 0.02674 c 0,0.01501 0.0037,0.02825 0.0086,0.03018 0.0048,0.002 -0.02295,0.0036 -0.06143,0.004 l -0.06996,5.39e-4 z"
   id="path12" /><path
   style="fill:#ffffff;stroke-width:0.0078125"
   d=""
   id="path13" /><path
   style="fill:#ffffff;stroke-width:0.0078125"
   d=""
   id="path14" /><path
   style="fill:#ffffff;stroke-width:0.00682556"
   d="m 35.684333,15.973145 c -0.0013,-0.02618 -0.0121,-0.0372 -0.0365,-0.0372 -0.01051,0 -0.01912,-0.0031 -0.01912,-0.0068 0,-0.0037 0.0089,-0.0068 0.01964,-0.0068 0.03535,0 0.03815,-0.01057 0.04079,-0.153863 l 0.0024,-0.131293 0.02568,-0.0041 c 0.02338,-0.0037 0.02607,-0.0063 0.02994,-0.02977 0.0023,-0.01411 0.0043,-0.04391 0.0043,-0.06619 l 7.5e-5,-0.04054 0.01391,0.01494 c 0.01595,0.01711 0.02107,0.01818 0.0325,0.0067 0.0063,-0.0063 0.0082,-4.03e-4 0.0082,0.02685 0,0.03308 -10e-4,0.03516 -0.01861,0.0372 -0.03024,0.0035 -0.03577,0.02463 -0.0359,0.136965 l -1.01e-4,0.100678 h -0.01691 c -0.02779,0 -0.03885,0.02597 -0.04439,0.104231 -0.0027,0.03839 -0.0054,0.06045 -0.006,0.04901 z"
   id="path15" /><path
   style="fill:#ffffff;stroke-width:0.00682556"
   d="m 31.974357,14.621467 c -0.0022,-0.006 -0.0041,-0.01787 -0.0041,-0.0265 0,-0.02055 -0.014,-0.02392 -0.0998,-0.02403 l -0.06909,-9.3e-5 -0.0043,-0.02691 c -0.0042,-0.02598 -0.0053,-0.02698 -0.03329,-0.029 -0.02573,-0.0019 -0.02923,-0.0042 -0.0311,-0.02037 -0.0031,-0.02621 -0.01444,-0.03275 -0.06536,-0.03751 -0.04298,-0.004 -0.04517,-0.005 -0.04526,-0.022 -1.49e-4,-0.02534 -0.0065,-0.03203 -0.0374,-0.03923 -0.03285,-0.0076 -0.04289,-0.02975 -0.01352,-0.02975 0.03225,0 0.06331,-0.01958 0.07179,-0.04528 0.0043,-0.01294 0.0061,-0.02802 0.0039,-0.03351 -0.0028,-0.0074 0.0015,-0.01 0.01644,-0.01 0.01909,0 0.02026,0.0016 0.02026,0.02731 0,0.02432 0.0019,0.02731 0.01651,0.02731 0.02665,0 0.03811,0.0073 0.03811,0.02406 0,0.03449 0.0048,0.03737 0.06217,0.03737 0.02964,0 0.05423,0.0022 0.05465,0.0051 4.28e-4,0.0028 0.0019,0.01406 0.0031,0.02499 0.0027,0.02307 0.01262,0.03106 0.0388,0.03121 0.01439,8e-5 0.01876,0.0035 0.01876,0.0142 0,0.0077 0.0032,0.02004 0.0071,0.02731 0.0063,0.01192 0.01498,0.01321 0.08834,0.01321 h 0.08127 l 0.0021,0.029 c 0.0021,0.02886 0.0022,0.02902 0.03111,0.03111 l 0.029,0.0021 v 0.03033 0.03033 h -0.088 c -0.07394,0 -0.08866,-0.0018 -0.09215,-0.0108 z"
   id="path16" /></svg>
