<?xml version="1.0" encoding="UTF-8" standalone="no"?>
<!-- Generator: Adobe Illustrator 16.0.0, SVG Export Plug-In . SVG Version: 6.00 Build 0)  -->

<svg
   version="1.1"
   x="0px"
   y="0px"
   width="99.75px"
   height="32px"
   viewBox="0 0 99.75 32"
   enable-background="new 0 0 99.75 32"
   xml:space="preserve"
   id="svg1"
   sodipodi:docname="ssg08.svg"
   inkscape:version="1.3 (0e150ed6c4, 2023-07-21)"
   xmlns:inkscape="http://www.inkscape.org/namespaces/inkscape"
   xmlns:sodipodi="http://sodipodi.sourceforge.net/DTD/sodipodi-0.dtd"
   xmlns="http://www.w3.org/2000/svg"
   xmlns:svg="http://www.w3.org/2000/svg"><defs
   id="defs1" /><sodipodi:namedview
   id="namedview1"
   pagecolor="#ffffff"
   bordercolor="#000000"
   borderopacity="0.25"
   inkscape:showpageshadow="2"
   inkscape:pageopacity="0.0"
   inkscape:pagecheckerboard="0"
   inkscape:deskcolor="#d1d1d1"
   inkscape:zoom="14.065163"
   inkscape:cx="49.732805"
   inkscape:cy="10.415805"
   inkscape:window-width="1920"
   inkscape:window-height="1009"
   inkscape:window-x="-8"
   inkscape:window-y="-8"
   inkscape:window-maximized="1"
   inkscape:current-layer="svg1" />&#10;&#10;<g
   id="guides">&#10;</g>&#10;<path
   style="fill:#ffffff;stroke-width:0.0710976"
   d="M 1.599697,26.167573 C 0.93267323,26.143063 0.47359183,26.094309 0.37399853,26.037406 -0.00535547,25.820658 2.8510332e-8,25.892643 2.8510332e-8,21.010384 2.8510332e-8,16.011965 -0.02337497,16.268646 0.45491833,16.014922 0.64495403,15.914113 1.0324934,15.89425 3.2591776,15.871188 c 2.4110465,-0.02497 2.5932126,-0.0182 2.7253143,0.101355 0.1335909,0.120898 0.1454393,0.12119 0.2103655,0.0052 0.064295,-0.114889 0.4331601,-0.122941 5.6322136,-0.122941 4.232303,0 5.583826,0.02041 5.648731,0.08532 0.04692,0.04692 0.08532,0.221766 0.08532,0.388536 0,0.227017 0.03456,0.321714 0.137521,0.376817 0.0816,0.04367 0.713687,0.0736 1.554444,0.0736 1.966012,0 2.360601,0.09192 2.360601,0.549938 0,0.09629 0.03772,0.159422 0.08887,0.148774 0.04888,-0.01017 0.230634,0.07641 0.403899,0.192402 0.265612,0.177818 0.382712,0.2103 0.746525,0.207078 0.506531,-0.0045 0.775379,-0.12724 1.542341,-0.704213 0.28804,-0.216688 0.545127,-0.393979 0.571306,-0.393979 0.02618,0 0.378267,-0.177768 0.782421,-0.39504 0.404154,-0.217273 0.990776,-0.507239 1.303606,-0.644371 0.312829,-0.137131 0.8747,-0.39928 1.248602,-0.582552 l 0.67982,-0.333222 0.08116,-0.633002 c 0.04464,-0.348151 0.108825,-0.66067 0.14264,-0.694484 0.03382,-0.03382 0.93114,-0.08204 1.994055,-0.107157 l 1.932575,-0.04567 v -0.59 c 0,-0.641516 0.150531,-1.088581 0.367613,-1.091778 0.0735,-0.0011 0.13663,-0.08306 0.165619,-0.215042 0.02577,-0.117311 0.0763,-0.213293 0.112296,-0.213293 0.036,0 0.06545,-0.04799 0.06545,-0.106647 0,-0.08375 -0.09823,-0.106646 -0.457506,-0.106646 -0.251629,0 -0.547573,-0.03541 -0.657653,-0.0787 -0.131742,-0.0518 -0.947353,-0.07741 -2.3864,-0.07493 l -2.186253,0.0038 V 9.0214747 7.1726781 l 0.408812,-2.511e-4 c 0.224846,-1.381e-4 0.983064,-0.015771 1.684928,-0.03474 0.748748,-0.020236 1.480805,-0.00273 1.771418,0.04236 0.341279,0.052951 0.518179,0.053972 0.568868,0.00328 0.04429,-0.044294 0.499331,-0.073053 1.143585,-0.072278 1.051083,0.00127 1.076772,0.00501 1.451605,0.2116327 0.209873,0.1156897 0.48982,0.2306495 0.622105,0.2554664 0.221153,0.041489 0.240518,0.03082 0.240518,-0.132508 V 7.2680144 h 0.995367 0.995367 v 0.2052658 c 0,0.1821289 0.02483,0.2052658 0.220317,0.2052658 0.334628,0 0.614837,-0.3357656 0.638311,-0.7648671 0.01014,-0.1854305 -0.0056,-0.391267 -0.03507,-0.4574143 -0.133194,-0.2993557 -0.03241,-0.3746722 0.581454,-0.4345179 0.322146,-0.031406 0.84967,-0.031406 1.172276,0 l 0.586556,0.057102 -0.02483,0.5740326 c -0.02447,0.5658138 -0.02154,0.5773193 0.204731,0.8035912 0.187972,0.1879728 0.276188,0.2256607 0.486962,0.2080416 0.218166,-0.018237 0.2607,-0.049929 0.27902,-0.2078979 l 0.02161,-0.1863808 0.951974,-0.00169 0.951974,-0.00169 0.02178,0.1880708 c 0.0195,0.1683878 0.05154,0.1880708 0.306169,0.1880708 0.254584,0 0.286672,-0.0197 0.306158,-0.1879599 l 0.02177,-0.1879599 0.991373,-0.00137 0.991374,-0.00137 v 0.2070994 c 0,0.1139047 0.01191,0.2070994 0.02646,0.2070994 0.01456,0 0.88639,-0.094256 1.937411,-0.2094583 1.051021,-0.1152021 2.326868,-0.2450382 2.835217,-0.2885248 0.508348,-0.043487 1.884087,-0.1736009 3.057198,-0.289143 1.701848,-0.1676183 2.474397,-0.2098909 3.822457,-0.2091587 l 1.689528,9.177e-4 -0.01873,2.3639968 -0.01873,2.3639963 -1.564148,0.01537 c -0.978643,0.0096 -1.923436,-0.02295 -2.523966,-0.087 -0.5279,-0.0563 -1.711676,-0.182583 -2.630613,-0.28062 -0.918942,-0.09802 -2.580268,-0.274829 -3.691841,-0.392894 -1.111573,-0.118066 -2.223363,-0.214664 -2.470643,-0.214664 h -0.449602 v 0.710976 c 0,0.426586 0.02844,0.710977 0.0711,0.710977 0.0391,0 0.0711,-0.06399 0.0711,-0.142196 0,-0.193718 0.284229,-0.193718 0.334887,0 0.054,0.206506 0.518284,0.206506 0.518284,0 0,-0.136061 0.0474,-0.142195 1.098792,-0.142195 h 1.098792 l 0.04668,-0.248842 c 0.06262,-0.3338 0.244151,-0.3338 0.244151,0 v 0.248842 h 1.919637 c 1.872237,0 1.919636,0.0035 1.919636,0.142195 0,0.117785 0.0474,0.142196 0.276099,0.142196 0.216304,0 0.284151,-0.0308 0.313283,-0.142196 0.05066,-0.193718 0.334887,-0.193718 0.334887,0 0,0.115111 0.0474,0.142196 0.248842,0.142196 0.201443,0 0.248842,-0.02708 0.248842,-0.142196 0,-0.193718 0.284229,-0.193718 0.334888,0 0.02913,0.111401 0.09698,0.142196 0.313283,0.142196 0.2287,0 0.276098,-0.02441 0.276098,-0.142196 0,-0.0948 0.0474,-0.142195 0.142196,-0.142195 0.0948,0 0.142195,0.0474 0.142195,0.142195 0,0.206506 0.464282,0.206506 0.518284,0 0.05066,-0.193718 0.334888,-0.193718 0.334888,0 0,0.118496 0.0474,0.142196 0.28439,0.142196 0.240903,0 0.284391,-0.02268 0.284391,-0.148313 0,-0.145446 0.02233,-0.147757 1.155337,-0.119569 1.021745,0.02542 1.187904,0.04668 1.436986,0.183861 0.279039,0.153681 0.315046,0.155118 3.884989,0.155118 3.137383,0 3.608633,0.01379 3.644265,0.106647 0.05651,0.147271 0.54307,0.147271 0.54307,0 0,-0.06636 0.06715,-0.106647 0.177744,-0.106647 0.110597,0 0.177744,0.04029 0.177744,0.106647 0,0.147271 0.486558,0.147271 0.543071,0 0.05324,-0.138741 0.310101,-0.138741 0.310101,0 0,0.07466 0.07529,0.106646 0.251073,0.106646 0.157589,0 0.266311,-0.03971 0.291997,-0.106646 0.05296,-0.138016 0.282852,-0.138016 0.335813,0 0.05421,0.141283 0.463142,0.141283 0.517361,0 0.05324,-0.138741 0.3101,-0.138741 0.3101,0 0,0.07702 0.079,0.106646 0.28439,0.106646 0.205394,0 0.284391,-0.02962 0.284391,-0.106646 0,-0.08975 0.158725,-0.106647 1.001944,-0.106647 h 1.00195 l -0.03489,0.373263 c -0.0192,0.205294 -0.05689,0.45603 -0.08375,0.557191 l -0.04885,0.183928 12.074898,0.05708 c 6.641195,0.03139 12.356444,0.05001 12.700549,0.04138 0.404788,-0.01016 0.662047,0.01451 0.728751,0.06987 0.149057,0.123707 0.149057,1.718942 0,1.842648 -0.06643,0.05513 -0.325606,0.08041 -0.728751,0.07109 -1.640798,-0.03797 -24.478913,0.104526 -24.478913,0.15273 0,0.03032 0.03464,0.07654 0.07698,0.102706 0.174225,0.107677 0.349587,0.690117 0.348528,1.157595 -0.0017,0.7658 -0.171502,1.124334 -0.647344,1.367092 -0.24142,0.123163 -0.730522,0.156363 -5.12379,0.347803 -2.67129,0.116404 -5.472774,0.217671 -6.225521,0.225038 l -1.36863,0.0134 v 0.451229 0.451228 h -0.639878 c -0.592481,0 -0.639879,-0.01053 -0.639879,-0.142195 0,-0.111553 -0.0474,-0.142195 -0.219949,-0.142195 -0.160156,0 -0.230058,0.03865 -0.257134,0.142195 -0.02058,0.0787 -0.09698,0.142195 -0.171088,0.142195 -0.08651,0 -0.133903,-0.05033 -0.133903,-0.142195 0,-0.118496 -0.0474,-0.142195 -0.284391,-0.142195 -0.236992,0 -0.284391,0.0237 -0.284391,0.142195 0,0.189807 -0.255355,0.189807 -0.304991,0 -0.02848,-0.108918 -0.09698,-0.142195 -0.292682,-0.142195 -0.2081,0 -0.255498,0.02638 -0.255498,0.142195 0,0.104277 -0.0474,0.142195 -0.177744,0.142195 -0.130346,0 -0.177745,-0.03792 -0.177745,-0.142195 0,-0.115816 -0.0474,-0.142195 -0.255497,-0.142195 -0.195705,0 -0.264201,0.03328 -0.292683,0.142195 -0.02058,0.0787 -0.09698,0.142195 -0.171088,0.142195 -0.08651,0 -0.133903,-0.05033 -0.133903,-0.142195 0,-0.115111 -0.0474,-0.142195 -0.248842,-0.142195 -0.201443,0 -0.248842,0.02708 -0.248842,0.142195 0,0.104277 -0.0474,0.142195 -0.177744,0.142195 -0.130345,0 -0.177744,-0.03792 -0.177744,-0.142195 0,-0.115816 -0.0474,-0.142195 -0.255498,-0.142195 -0.195705,0 -0.2642,0.03328 -0.292683,0.142195 -0.03322,0.127026 -0.09698,0.142195 -0.597674,0.142195 H 54.176412 V 19.16503 c 0,-0.134556 -0.02729,-0.261512 -0.06064,-0.282126 -0.04163,-0.02573 -8.58772,0.273772 -8.879887,0.311201 -0.0098,0.0013 -0.01777,0.05027 -0.01777,0.108924 0,0.05925 -0.0632,0.106646 -0.142196,0.106646 -0.13579,0 -0.142195,0.0474 -0.142195,1.052245 0,0.643753 0.02914,1.081386 0.07506,1.127308 0.05269,0.05268 -0.0374,0.08644 -0.302165,0.113236 -0.562639,0.05694 -7.042749,0.05401 -7.700285,-0.0035 l -0.568781,-0.04973 0.0247,-0.728751 c 0.01358,-0.400813 0.0067,-0.728751 -0.01536,-0.728751 -0.02203,0 -0.152226,0.05349 -0.289316,0.118861 -0.223386,0.106526 -0.287382,0.209823 -0.616665,0.995367 -0.202075,0.482079 -0.393051,0.876506 -0.424389,0.876506 -0.187421,0 -0.120641,-0.235002 0.399712,-1.40659 0.18639,-0.419664 0.163424,-0.441948 -0.455495,-0.441948 -0.692339,0 -0.84881,0.103392 -1.068563,0.706088 -0.19492,0.534587 -0.395312,0.775667 -0.850834,1.023593 -0.316518,0.172271 -0.433914,0.194743 -1.025796,0.19636 -0.367606,10e-4 -0.761308,-0.01834 -0.874893,-0.04298 -0.445778,-0.09672 -1.152974,-0.343767 -1.298656,-0.453655 -0.147772,-0.111464 -0.36164,-0.739718 -0.46979,-1.380045 -0.09383,-0.555542 -0.41844,-0.659871 -1.246065,-0.400481 -0.818639,0.256572 -1.375955,0.662951 -1.957021,1.427003 -0.613841,0.807148 -0.918495,1.641171 -1.211438,3.316447 -0.214541,1.226905 -0.274704,1.410024 -0.481482,1.465489 -0.08478,0.02274 -0.975763,0.04178 -1.979959,0.04232 l -1.825811,9.7e-4 -0.698156,-0.657653 c -1.720724,-1.6209 -1.929611,-1.723981 -3.137405,-1.548251 -1.171065,0.170387 -6.18235,0.753921 -8.260946,0.961938 -1.8222784,0.182365 -2.1565528,0.282 -2.630613,0.784079 -0.136863,0.144953 -0.3517945,0.307726 -0.4776255,0.361719 -0.2660886,0.114175 -1.6228643,0.137078 -1.6899529,0.02853 -0.0271,-0.04385 -0.094485,-0.03751 -0.18194,0.0171 -0.1104072,0.06895 -0.1697869,0.06745 -0.2894768,-0.0073 -0.1080015,-0.06745 -0.172331,-0.07228 -0.2275125,-0.0171 -0.042314,0.04231 -0.1745164,0.07057 -0.2937827,0.0628 -0.1192663,-0.0078 -0.696757,-0.03177 -1.2833126,-0.05332 z m 31.614856,-4.377096 c 0.412001,-0.286598 0.627927,-0.720513 0.627927,-1.261853 0,-0.462669 -0.117765,-0.749113 -0.398898,-0.970253 -0.305259,-0.240116 -0.630476,-0.282627 -1.48519,-0.194135 l -0.782074,0.08097 -0.164616,0.319939 c -0.206356,0.401061 -0.187252,0.935376 0.04511,1.2617 0.196635,0.276148 0.199104,0.364325 0.0053,0.189047 -0.264873,-0.239546 -0.429558,-0.663024 -0.471017,-1.211197 -0.02179,-0.288167 -0.0569,-0.52394 -0.07801,-0.52394 -0.02111,0 -0.173491,0.0654 -0.338617,0.145338 -0.4326,0.209418 -0.576239,0.536198 -0.466609,1.061536 0.178557,0.85563 0.204835,0.906878 0.528345,1.030406 0.683572,0.261012 1.014858,0.315176 1.840796,0.300963 0.796207,-0.0137 0.841963,-0.02289 1.137562,-0.228521 z m 10.652695,-8.578491 c 0,-0.124008 -0.05295,-0.283978 -0.117665,-0.355489 -0.111034,-0.12269 -0.316409,-0.129891 -3.643755,-0.127758 -2.819349,0.0018 -3.551027,0.02119 -3.650509,0.09671 -0.121302,0.09208 -0.172709,0.46892 -0.07702,0.564606 0.02607,0.02607 1.721748,0.0474 3.768176,0.0474 h 3.720776 z m 23.106736,-0.300157 c 0,-0.05447 -0.05061,-0.11846 -0.112462,-0.142195 -0.265787,-0.101993 -2.162663,-0.0085 -2.162663,0.106553 0,0.05354 0.416654,0.08197 1.759667,0.120062 0.400188,0.01135 0.515458,-0.0075 0.515458,-0.08442 z M 50.372683,12.228795 c -0.02417,-0.0391 -0.07405,-0.0711 -0.110842,-0.0711 -0.0368,0 -0.0669,0.03199 -0.0669,0.0711 0,0.0391 0.04988,0.0711 0.110843,0.0711 0.06096,0 0.09107,-0.03199 0.0669,-0.0711 z M 36.046507,11.16233 c 0,-0.690938 -0.0045,-0.710976 -0.160754,-0.710976 -0.08841,0 -0.416353,0.127166 -0.728751,0.282591 -0.351981,0.175118 -0.669394,0.283275 -0.834613,0.284391 -0.209164,0.0014 -0.266616,0.02951 -0.266616,0.130405 0,0.31385 0.13818,0.370267 1.023043,0.417688 0.738609,0.03958 0.849065,0.06171 0.878972,0.176075 0.06752,0.258208 0.08872,0.119598 0.08872,-0.580174 z m 2.13293,0.568781 c 0,-0.09692 0.0474,-0.142195 0.148851,-0.142195 0.08906,0 0.163788,0.05712 0.186036,0.142195 0.02819,0.107802 0.09698,0.142196 0.284391,0.142196 0.187413,0 0.2562,-0.03439 0.28439,-0.142196 0.02045,-0.07821 0.07771,-0.142195 0.127247,-0.142195 0.04953,0 0.106796,0.06399 0.127247,0.142195 0.02819,0.107802 0.09698,0.142196 0.284391,0.142196 0.187412,0 0.2562,-0.03439 0.284391,-0.142196 0.02225,-0.08507 0.09698,-0.142195 0.186036,-0.142195 0.101453,0 0.148851,0.04528 0.148851,0.142195 0,0.115816 0.0474,0.142196 0.255498,0.142196 0.195705,0 0.264201,-0.03328 0.292683,-0.142196 0.02058,-0.0787 0.09698,-0.142195 0.171088,-0.142195 0.0865,0 0.133903,0.05033 0.133903,0.142195 0,0.118496 0.0474,0.142196 0.284391,0.142196 0.236992,0 0.28439,-0.0237 0.28439,-0.142196 0,-0.09186 0.0474,-0.142195 0.133903,-0.142195 0.07411,0 0.150508,0.0635 0.171088,0.142195 0.02045,0.07821 0.07218,0.142196 0.114939,0.142196 0.05109,0 0.07775,-0.243815 0.07775,-0.710977 V 10.451354 H 41.86995 c -0.183295,0 -0.357839,0.05261 -0.471723,0.142195 -0.164411,0.129326 -0.288427,0.142195 -1.370256,0.142195 -1.081828,0 -1.205844,-0.01287 -1.370255,-0.142195 -0.09942,-0.07821 -0.279706,-0.142195 -0.400626,-0.142195 h -0.219853 v 0.710976 c 0,0.426586 0.02844,0.710977 0.0711,0.710977 0.0391,0 0.0711,-0.06399 0.0711,-0.142196 z m 6.197096,-0.142195 c 0.08411,0 0.159357,0.05908 0.181091,0.142195 0.08966,0.342848 0.162796,0.08731 0.162796,-0.568781 v -0.710976 h -0.319939 -0.31994 v 0.663578 c 0,0.610956 0.07564,0.975167 0.129366,0.622929 0.01444,-0.09465 0.07517,-0.148945 0.166626,-0.148945 z"
   id="path1" /></svg>
