<?xml version="1.0" encoding="UTF-8" standalone="no"?>
<!-- Generator: Adobe Illustrator 16.0.0, SVG Export Plug-In . SVG Version: 6.00 Build 0)  -->

<svg
   version="1.1"
   x="0px"
   y="0px"
   width="92px"
   height="32px"
   viewBox="0 0 92 32"
   enable-background="new 0 0 92 32"
   xml:space="preserve"
   id="svg29"
   sodipodi:docname="knife_bayonet.svg"
   inkscape:version="1.1.1 (3bf5ae0d25, 2021-09-20)"
   xmlns:inkscape="http://www.inkscape.org/namespaces/inkscape"
   xmlns:sodipodi="http://sodipodi.sourceforge.net/DTD/sodipodi-0.dtd"
   xmlns="http://www.w3.org/2000/svg"
   xmlns:svg="http://www.w3.org/2000/svg"><defs
   id="defs33" /><sodipodi:namedview
   id="namedview31"
   pagecolor="#ffffff"
   bordercolor="#111111"
   borderopacity="1"
   inkscape:pageshadow="0"
   inkscape:pageopacity="0"
   inkscape:pagecheckerboard="1"
   showgrid="false"
   inkscape:zoom="8.8478261"
   inkscape:cx="42.383292"
   inkscape:cy="29.103194"
   inkscape:window-width="1841"
   inkscape:window-height="1051"
   inkscape:window-x="-9"
   inkscape:window-y="-9"
   inkscape:window-maximized="1"
   inkscape:current-layer="svg29" />

<g
   id="guides">
</g>
<path
   style="fill:#ffffff;stroke-width:0.113022"
   d="m 40.706798,26.59787 c -0.04144,-0.04144 -0.07535,-1.31294 -0.07535,-2.825553 0,-2.715849 -0.003,-2.750204 -0.236625,-2.750204 -0.141574,0 -0.26037,-0.0908 -0.295737,-0.226045 -0.05429,-0.207587 -0.154165,-0.226044 -1.223244,-0.226044 -0.640273,0 -1.181085,0.04073 -1.201806,0.09051 -0.03583,0.08608 -7.479973,0.598321 -8.589681,0.591073 -0.311272,-0.002 -0.545884,0.0519 -0.57245,0.131597 -0.06488,0.194651 -13.445771,0.193588 -13.510658,-0.0011 -0.02456,-0.07368 -0.205712,-0.132603 -0.402558,-0.130935 -0.819216,0.0069 -6.4662501,-0.503786 -6.525175,-0.59015 C 8.038272,20.609369 7.3516623,20.555041 6.5477155,20.540298 L 5.085994,20.513548 4.7273662,20.88087 c -0.4108866,0.420848 -0.6020601,0.465708 -0.6020601,0.141278 0,-0.218326 -0.2695799,-0.316891 -0.379642,-0.138806 -0.045749,0.07402 -1.8647989,0.09907 -3.09578797,0.04263 l -0.36732185,-0.01684 v -4.29484 -4.29484 H 1.9686432 c 1.7741077,0 2.0436418,0.03886 2.0436418,0.294647 0,0.08659 0.081314,0.157441 0.1806986,0.157441 0.099384,0 0.3155391,0.144032 0.480344,0.32007 0.164805,0.176038 0.4499562,0.357639 0.6336694,0.403557 0.3721091,0.09301 4.4934264,-0.156036 4.5824374,-0.276906 0.03108,-0.04221 1.4259976,-0.1668 3.0998156,-0.276877 2.519451,-0.165688 3.998018,-0.189343 8.589681,-0.137421 5.271587,0.05961 10.001206,0.253232 10.123771,0.414445 0.05465,0.07188 4.662238,0.465236 5.387388,0.459929 0.196846,-0.0014 0.374856,0.04116 0.395577,0.09467 0.02072,0.05351 0.580934,0.132966 1.244918,0.176574 1.145664,0.07524 1.213605,0.0674 1.331985,-0.153797 0.0742,-0.138649 0.237612,-0.233085 0.403322,-0.233085 h 0.278579 l 0.0015,-4.7186729 c 9.05e-4,-2.59527 0.03221,-4.833108 0.06969,-4.972973 0.06165,-0.230042 0.136975,-0.254299 0.789617,-0.254299 h 0.721462 v 5.192092 5.1920909 l 0.480344,0.05887 c 0.264189,0.03238 4.231265,0.12044 8.815725,0.195689 4.584459,0.07525 8.33538,0.171125 8.33538,0.213058 0,0.04193 1.741954,0.106959 3.871008,0.144504 6.216305,0.109622 13.36014,0.330433 13.421376,0.414843 0.03108,0.04284 0.99742,0.139109 2.14742,0.213922 2.381065,0.1549 4.068796,0.34935 4.068796,0.468784 0,0.04477 0.292445,0.113918 0.649877,0.153651 1.178865,0.131045 3.022327,0.447322 3.079853,0.528401 0.03108,0.04381 0.56511,0.169988 1.186732,0.280401 0.621622,0.110414 1.157474,0.242173 1.190783,0.292799 0.03331,0.05063 0.576098,0.201822 1.206198,0.335992 1.265393,0.269446 1.393463,0.430199 0.534362,0.670733 -0.275753,0.0772 -0.501368,0.175669 -0.501368,0.218808 0,0.04314 -0.394164,0.200169 -0.875921,0.348954 -0.481757,0.148786 -0.901351,0.302198 -0.932432,0.340918 -0.03108,0.03872 -0.412531,0.164397 -0.847666,0.279284 -0.435135,0.114887 -0.820987,0.252425 -0.857449,0.305639 -0.07081,0.103345 -2.029425,0.534801 -2.43903,0.537284 -0.134684,7.92e-4 -0.261834,0.04613 -0.282555,0.100697 -0.04486,0.118141 -2.345018,0.465899 -3.081573,0.465899 -0.283964,0 -0.516297,0.0419 -0.516297,0.09312 0,0.05121 -1.348405,0.157162 -2.996455,0.235446 -2.294068,0.108969 -6.824383,0.122892 -19.326782,0.0594 L 42.32674,20.875093 v 0.638644 c 0,0.351253 -0.05086,0.638643 -0.113022,0.638643 -0.07158,0 -0.113022,0.828828 -0.113022,2.260442 v 2.260442 H 41.4414 c -0.362613,0 -0.693203,-0.03391 -0.734643,-0.07535 z"
   id="path324" /></svg>
