<?xml version="1.0" encoding="UTF-8" standalone="no"?>
<!-- Generator: Adobe Illustrator 16.0.0, SVG Export Plug-In . SVG Version: 6.00 Build 0)  -->

<svg
   version="1.1"
   x="0px"
   y="0px"
   width="37.75px"
   height="32px"
   viewBox="0 0 37.75 32"
   enable-background="new 0 0 37.75 32"
   xml:space="preserve"
   id="svg1"
   sodipodi:docname="p250.svg"
   inkscape:version="1.3 (0e150ed6c4, 2023-07-21)"
   xmlns:inkscape="http://www.inkscape.org/namespaces/inkscape"
   xmlns:sodipodi="http://sodipodi.sourceforge.net/DTD/sodipodi-0.dtd"
   xmlns="http://www.w3.org/2000/svg"
   xmlns:svg="http://www.w3.org/2000/svg"><defs
   id="defs1" /><sodipodi:namedview
   id="namedview1"
   pagecolor="#ffffff"
   bordercolor="#000000"
   borderopacity="0.25"
   inkscape:showpageshadow="2"
   inkscape:pageopacity="0.0"
   inkscape:pagecheckerboard="0"
   inkscape:deskcolor="#d1d1d1"
   inkscape:zoom="15.648339"
   inkscape:cx="31.21737"
   inkscape:cy="24.18787"
   inkscape:window-width="1920"
   inkscape:window-height="1009"
   inkscape:window-x="-8"
   inkscape:window-y="-8"
   inkscape:window-maximized="1"
   inkscape:current-layer="svg1" />&#10;&#10;<g
   id="guides">&#10;</g>&#10;<path
   style="fill:#ffffff;stroke-width:0.0359932"
   d="m 1.5739396,29.799372 c -0.039593,-0.02245 -0.083886,-0.0584 -0.09843,-0.07989 -0.042066,-0.06215 -0.031391,-0.210816 0.022564,-0.314225 0.041103,-0.07878 0.3011059,-0.871936 0.3699564,-1.128579 0.032747,-0.122068 0.166929,-0.377929 0.1981979,-0.377929 0.016287,0 0.029613,-0.02429 0.029613,-0.05399 0,-0.04553 -0.08238,-0.05399 -0.5254572,-0.05399 H 1.0449263 L 0.94234637,27.680953 C 0.88592735,27.620557 0.82852898,27.535735 0.81479442,27.492461 0.78886482,27.410765 0.621972,27.139165 0.57723994,27.105867 0.56318388,27.095402 0.46910097,26.901504 0.36816717,26.674977 0.2672333,26.448449 0.16520367,26.250975 0.14143464,26.236146 c -0.05435431,-0.03391 -0.05320362,-0.894556 0.001352,-1.011455 0.0203868,-0.04368 0.0620116,-0.273958 0.0924995,-0.511719 0.0577793,-0.450595 0.30087133,-1.533414 0.35161385,-1.566215 0.0160662,-0.01039 0.0449393,-0.08327 0.0641628,-0.161969 0.0192237,-0.0787 0.0945399,-0.305057 0.16736971,-0.503019 0.0728298,-0.197963 0.14190281,-0.392326 0.15349557,-0.431918 0.0393407,-0.134361 0.28811663,-0.574559 0.52111993,-0.9221 0.1410317,-0.210358 0.270744,-0.457519 0.3305678,-0.629881 0.054152,-0.15602 0.1129554,-0.31131 0.1306747,-0.345089 0.017719,-0.03378 0.042774,-0.13096 0.055677,-0.21596 0.023446,-0.154444 0.3496044,-0.96134 0.4036656,-0.998642 0.015732,-0.01085 0.098904,-0.181706 0.1848273,-0.379669 0.1570238,-0.361775 0.4467821,-0.981842 0.7400659,-1.583701 0.2404894,-0.493517 0.4130007,-0.88653 0.4130007,-0.940892 0,-0.02691 0.013985,-0.04892 0.031078,-0.04892 0.033531,0 0.1486879,-0.244142 0.3310557,-0.701868 0.063098,-0.15837 0.1276085,-0.296196 0.1433563,-0.306281 0.042762,-0.02738 0.1816717,-0.386101 0.2368147,-0.611545 0.1259184,-0.514799 -0.00163,-1.336725 -0.255748,-1.648057 C 3.8671174,12.262762 3.8145631,12.214273 3.5443474,12.077178 3.3910473,11.999401 3.256978,11.924285 3.2464156,11.910253 c -0.015902,-0.02113 -0.6019195,-0.186101 -1.402527,-0.394841 -0.089083,-0.02323 -0.1700679,-0.05258 -0.179966,-0.06523 -0.0099,-0.01265 -0.1059563,-0.04624 -0.2134626,-0.07465 -0.1687394,-0.04458 -0.1993944,-0.06639 -0.2241972,-0.159428 -0.025858,-0.097 -0.013507,-0.121293 0.1234796,-0.242904 0.083716,-0.07432 0.1698163,-0.135149 0.1913341,-0.135177 0.054839,-7e-5 0.6725886,-0.603208 0.7742189,-0.755907 C 2.3614101,10.012829 2.4223482,9.9384288 2.4507136,9.916782 2.4790792,9.895137 2.5535935,9.7898556 2.6163014,9.6828265 2.7223364,9.5018466 2.7414445,9.4869682 2.8893306,9.4702311 3.0365738,9.453565 3.0577201,9.4373214 3.1749793,9.2508065 3.2446279,9.1400207 3.3475598,8.9832293 3.4037168,8.9023816 3.5684362,8.6652394 3.545791,8.6425129 3.0133741,8.5106356 2.4340924,8.3671501 1.9994567,8.3541727 1.4331751,8.4634535 1.0085322,8.5454018 0.92917565,8.536269 0.68415307,8.3772562 0.53659632,8.2814952 0.51119537,8.2467409 0.49117112,8.1132094 0.47848822,8.0286359 0.47877997,7.9169326 0.49181884,7.8649805 0.52438332,7.7352341 0.7202603,7.5591723 0.94999807,7.453152 1.2729167,7.3041299 1.4488173,7.1337263 1.6256098,6.7986552 1.6738249,6.7072739 1.740634,6.5962351 1.7740743,6.5519019 l 0.060801,-0.080605 0.2907752,0.1677192 c 0.1599263,0.092245 0.3046726,0.1677186 0.3216584,0.1677186 0.016986,0 0.063765,0.030634 0.1039526,0.068075 0.040188,0.037444 0.1768669,0.1245298 0.3037308,0.193531 0.1268642,0.069001 0.286399,0.1557956 0.3545222,0.1928761 0.068123,0.037083 0.1528414,0.092625 0.1882626,0.1234315 0.1096191,0.095337 0.5313795,0.3002121 0.5603076,0.2721754 0.01507,-0.014605 0.052386,-0.1106185 0.082925,-0.2133642 0.050805,-0.1709287 0.065988,-0.18834 0.1785927,-0.2048067 C 4.3250355,7.2232368 4.3461941,7.2033498 4.3672681,7.0998827 4.3921761,6.9775855 4.3058081,6.5843447 4.2488839,6.560877 4.2330059,6.554337 4.2363839,6.518392 4.2563939,6.481007 4.2763968,6.4436247 4.3815471,6.0485432 4.4900584,5.6030484 4.6788971,4.8277666 4.7260442,4.485503 4.6542108,4.411387 4.6163338,4.3723099 4.6803656,3.9992649 4.72495,3.9992649 c 0.015433,0 0.039164,-0.065724 0.052736,-0.1460521 0.013572,-0.080329 0.062146,-0.1896583 0.1079427,-0.2429543 0.083105,-0.096713 0.084398,-0.096924 0.6623591,-0.1083769 0.3253218,-0.00645 0.5790919,-0.026162 0.5790919,-0.044991 0,-0.018435 -0.05669,-0.033518 -0.1259763,-0.033518 -0.1539211,0 -0.1530593,0.01461 -0.033743,-0.572196 0.1373738,-0.6756123 0.062076,-0.6155795 0.7721062,-0.6155795 0.6818272,0 0.6145399,-0.028307 0.8488176,0.3570966 0.1325311,0.2180236 0.1411993,0.2501471 0.1529647,0.5668928 l 0.012476,0.3357724 H 12.51935 c 4.741629,0 4.765624,3.627e-4 4.765624,0.071986 0,0.065006 0.02399,0.071986 0.247454,0.071986 0.246153,0 0.247566,5.632e-4 0.269049,0.1079798 0.02153,0.1076627 0.02234,0.1079798 0.27408,0.1079798 0.336477,0 4.19164,0.099309 4.887344,0.1258985 l 0.548897,0.02098 V 3.8747407 3.7473124 h 3.113411 c 2.051613,0 3.113412,-0.012273 3.113412,-0.035996 0,-0.023662 0.893831,-0.035996 2.609507,-0.035996 2.295566,0 2.609507,0.00649 2.609507,0.053992 0,0.069101 0.341389,0.077111 0.383499,0.009 0.0153,-0.024743 0.09319,-0.36893 0.173091,-0.7648552 l 0.145277,-0.7198642 0.323939,0.012667 c 0.178166,0.00697 0.339326,0.027213 0.358132,0.044992 0.01881,0.017778 0.115988,0.032546 0.215959,0.032816 0.365904,9.913e-4 0.357665,-0.010456 0.491822,0.6833796 0.04402,0.2276568 0.09151,0.4220198 0.10554,0.4319181 0.01402,0.0099 0.03669,0.08494 0.05036,0.16676 0.02317,0.1386439 0.03422,0.1502595 0.162449,0.1707646 0.166198,0.026579 0.181441,0.060453 0.181441,0.4032799 0,0.2133422 0.01085,0.2670049 0.05399,0.2670049 0.04699,0 0.05399,0.1679687 0.05399,1.2957554 0,1.1277867 -0.007,1.2957548 -0.05399,1.2957548 -0.04722,0 -0.05399,0.2094216 -0.05399,1.6688294 0,1.6338092 -0.0016,1.6708202 -0.0746,1.7636672 l -0.0746,0.09484 h -1.743058 -1.743058 v 0.505122 0.505122 l -0.386926,-0.01022 -0.386927,-0.01022 -0.01058,-0.260951 -0.01058,-0.260951 h -0.518748 -0.518748 l -0.01058,0.260951 -0.01058,0.260951 -0.386926,0.01022 -0.386927,0.01022 V 11.325096 11.05393 H 30.746418 30.20652 v 0.269949 0.269949 h -0.37634 -0.376352 l -0.01058,-0.260951 -0.01057,-0.26095 -0.5309,-0.01 -0.5309,-0.01 v 0.288908 0.288908 h -1.197555 c -1.044564,0 -1.22753,0.0083 -1.432201,0.06507 -0.277011,0.07681 -0.595542,0.277628 -0.838136,0.528396 -0.36393,0.376193 -0.482574,0.715617 -0.515979,1.476147 -0.01217,0.277147 -0.03319,0.512003 -0.04669,0.521901 -0.01351,0.0099 -0.05296,0.602356 -0.08766,1.316572 -0.06543,1.346608 -0.05975,1.477061 0.07242,1.665136 0.05029,0.07156 0.05215,0.09744 0.01236,0.171792 l -0.04685,0.08754 -3.648106,-0.0098 c -2.690477,-0.0072 -3.654846,-0.02064 -3.673781,-0.05101 -0.01412,-0.02265 -0.341516,-0.125497 -0.727543,-0.22854 -0.386027,-0.103043 -0.718064,-0.200558 -0.73786,-0.2167 -0.08885,-0.07244 -0.664178,-0.18798 -0.935824,-0.187928 -0.288595,5.5e-5 -0.701867,0.112539 -0.701867,0.191033 0,0.01837 -0.02284,0.03341 -0.05076,0.03341 -0.09766,0 -0.423798,0.295797 -0.562144,0.509845 -0.07676,0.118767 -0.166035,0.30774 -0.198385,0.419941 -0.03235,0.1122 -0.08102,0.252591 -0.108167,0.31198 -0.02714,0.05939 -0.138944,0.407623 -0.248445,0.773854 -0.109502,0.36623 -0.214003,0.691666 -0.232223,0.723189 -0.03758,0.06501 -0.379399,1.176631 -0.416788,1.355418 -0.01346,0.06434 -0.0367,0.116978 -0.05166,0.116978 -0.01496,0 -0.113839,0.295594 -0.219737,0.656876 -0.105897,0.361282 -0.203301,0.664974 -0.216452,0.674872 -0.01315,0.0099 -0.07661,0.196163 -0.141008,0.413922 -0.0644,0.217759 -0.155937,0.522288 -0.203408,0.67673 -0.04747,0.154443 -0.08631,0.304265 -0.08631,0.332937 0,0.02867 -0.01323,0.05213 -0.02941,0.05213 -0.01617,0 -0.124544,0.31989 -0.240826,0.710866 -0.116281,0.390976 -0.22233,0.718964 -0.235664,0.728862 -0.01333,0.0099 -0.07098,0.171868 -0.128106,0.359933 -0.09228,0.303818 -0.103665,0.394095 -0.102109,0.809846 0.0014,0.358986 0.01601,0.500357 0.06299,0.607282 0.0349,0.07943 0.06124,0.230355 0.06124,0.350933 v 0.211565 H 9.8313739 c -0.5334872,0 -0.6835265,0.01005 -0.6718957,0.04499 0.011253,0.03381 0.2147402,0.0474 0.8186209,0.05469 l 0.8036459,0.0097 0.102205,0.106948 c 0.09943,0.104046 0.102206,0.117549 0.102206,0.497622 0,0.459912 0.0088,0.446689 -0.413922,0.620081 -0.158371,0.06496 -0.296044,0.128573 -0.305942,0.141369 -0.0099,0.0128 -0.08278,0.04979 -0.16197,0.0822 -0.6860976,0.280873 -0.8645436,0.350027 -0.9032107,0.350027 -0.024535,0 -0.05001,0.01529 -0.056608,0.03397 -0.033225,0.09407 -0.5975849,0.109435 -3.9892462,0.108641 -2.5485718,-6.2e-4 -3.5290449,-0.012 -3.5813233,-0.04165 z M 23.163275,16.627916 c 0.195539,-0.135129 0.375789,-0.430181 0.401115,-0.656584 0.06074,-0.542969 0.23535,-2.82274 0.23535,-3.072748 0,-0.273786 -0.0071,-0.300434 -0.116978,-0.442081 -0.08465,-0.109069 -0.186618,-0.18172 -0.36893,-0.262843 l -0.251953,-0.112113 -2.267571,-0.01981 c -2.623545,-0.02292 -2.313828,-0.07114 -2.673126,0.416129 -0.337587,0.457822 -0.475383,0.886325 -0.476007,1.480238 -3.26e-4,0.310458 0.100508,0.75708 0.226312,1.002395 0.135862,0.264927 0.401679,0.574306 0.739195,0.860333 0.347398,0.294401 0.385767,0.347869 0.327612,0.456533 -0.03811,0.07122 -0.06128,0.07569 -0.291967,0.05635 -0.298644,-0.02504 -0.700318,-0.207066 -0.938747,-0.425418 -0.08396,-0.07689 -0.179556,-0.148412 -0.212428,-0.158931 -0.03287,-0.01052 -0.08828,-0.06303 -0.123121,-0.116703 -0.03484,-0.05367 -0.12452,-0.170492 -0.199281,-0.259609 -0.260248,-0.310223 -0.427357,-0.725053 -0.500204,-1.241704 -0.02233,-0.15837 -0.05564,-0.337686 -0.07402,-0.39848 -0.01838,-0.06079 -0.03342,-0.150987 -0.03342,-0.200429 0,-0.15609 -0.101429,-0.43804 -0.228214,-0.634378 -0.158542,-0.245521 -0.571031,-0.566214 -0.664171,-0.516367 -0.09901,0.05299 -0.391474,0.377713 -0.41938,0.465637 -0.01366,0.04304 -0.03877,0.07825 -0.05582,0.07825 -0.04915,0 -0.175806,0.373155 -0.290477,0.855822 -0.129026,0.543089 -0.129777,0.570037 -0.01667,0.598426 0.167758,0.0421 0.172747,0.123389 0.03592,0.585206 -0.06943,0.234345 -0.142127,0.454205 -0.161545,0.48858 -0.01942,0.03437 -0.0353,0.08628 -0.0353,0.115344 0,0.05752 0.422722,0.416044 0.490535,0.416044 0.02291,0 0.05048,0.02299 0.06126,0.05108 0.01078,0.02809 0.235222,0.158674 0.498758,0.290179 0.418368,0.208766 0.755439,0.330998 1.073043,0.389117 0.04949,0.0091 1.458625,0.01445 3.131409,0.01197 l 3.041425,-0.0045 z"
   id="path1" /></svg>
