<?xml version="1.0" encoding="UTF-8" standalone="no"?>
<svg
   version="1.1"
   x="0px"
   y="0px"
   width="78.604px"
   height="32px"
   viewBox="0 0 78.604 32"
   enable-background="new 0 0 78.604 32"
   xml:space="preserve"
   id="svg141"
   sodipodi:docname="m4a1.svg"
   inkscape:version="1.3 (0e150ed6c4, 2023-07-21)"
   xmlns:inkscape="http://www.inkscape.org/namespaces/inkscape"
   xmlns:sodipodi="http://sodipodi.sourceforge.net/DTD/sodipodi-0.dtd"
   xmlns="http://www.w3.org/2000/svg"
   xmlns:svg="http://www.w3.org/2000/svg"
   xmlns:rdf="http://www.w3.org/1999/02/22-rdf-syntax-ns#"
   xmlns:cc="http://creativecommons.org/ns#"
   xmlns:dc="http://purl.org/dc/elements/1.1/"><metadata
   id="metadata147"><rdf:RDF><cc:Work
       rdf:about=""><dc:format>image/svg+xml</dc:format><dc:type
         rdf:resource="http://purl.org/dc/dcmitype/StillImage" /></cc:Work></rdf:RDF></metadata><defs
   id="defs145" /><sodipodi:namedview
   pagecolor="#ffffff"
   bordercolor="#666666"
   borderopacity="1"
   objecttolerance="10"
   gridtolerance="10"
   guidetolerance="10"
   inkscape:pageopacity="0"
   inkscape:pageshadow="2"
   inkscape:window-width="1920"
   inkscape:window-height="1009"
   id="namedview143"
   showgrid="false"
   inkscape:zoom="16"
   inkscape:cx="42.65625"
   inkscape:cy="16.40625"
   inkscape:window-x="-8"
   inkscape:window-y="-8"
   inkscape:window-maximized="1"
   inkscape:current-layer="svg141"
   inkscape:pagecheckerboard="1"
   inkscape:showpageshadow="2"
   inkscape:deskcolor="#d1d1d1" />&#10;&#10;<g
   id="guides">&#10;</g>&#10;<path
   style="fill:#ffffff;stroke-width:0.0604556"
   d="m 34.772834,26.113267 c -0.0043,-0.510854 0.01851,-0.746209 0.08439,-0.873603 0.130999,-0.253324 0.136416,-5.954335 0.0056,-5.90414 -0.09752,0.03742 -0.600733,0.12726 -1.226879,0.219033 -0.890727,0.130551 -3.706371,0.03471 -3.706371,-0.126171 0,-0.02855 -0.02721,-0.05192 -0.06046,-0.05192 -0.03325,0 -0.06046,0.05258 -0.06046,0.116837 0,0.06835 -0.05645,0.134365 -0.136025,0.159071 -0.07481,0.02322 -0.210073,0.09438 -0.300577,0.158118 -0.159245,0.112147 -0.230984,0.243423 -0.770479,1.409869 -0.13841,0.299255 -0.328782,0.70733 -0.423051,0.906833 -0.09427,0.199504 -0.259642,0.553169 -0.367495,0.785922 -0.226294,0.488357 -0.350588,0.753144 -0.822974,1.753212 -0.309548,0.655327 -0.343297,0.766381 -0.349076,1.148655 -0.0055,0.363317 -0.09469,0.695239 -0.186826,0.695239 -0.01495,0 -0.159834,-0.08161 -0.321951,-0.181366 -0.162117,-0.09975 -0.332557,-0.181506 -0.378755,-0.181677 -0.0462,-1.7e-4 -0.192817,-0.06733 -0.325819,-0.149251 -0.133003,-0.08192 -0.28263,-0.150549 -0.332506,-0.152512 -0.04987,-0.0019 -0.197548,-0.08442 -0.328161,-0.183254 -0.130613,-0.09883 -0.266205,-0.179684 -0.301319,-0.179684 -0.03511,0 -0.200297,-0.06704 -0.367077,-0.148989 -0.16678,-0.08194 -0.466467,-0.220489 -0.66597,-0.30788 -0.698046,-0.305772 -1.251068,-0.591553 -1.277371,-0.660098 -0.02879,-0.07502 0.950948,-2.047803 1.09731,-2.209531 0.04916,-0.05432 0.08938,-0.129418 0.08938,-0.166887 0,-0.03747 0.06121,-0.161444 0.136025,-0.275503 0.07481,-0.114058 0.18287,-0.285298 0.240125,-0.380531 0.155068,-0.257931 0.584834,-0.949466 0.636649,-1.024432 0.420778,-0.608781 0.539546,-0.784462 0.595977,-0.881575 0.03694,-0.06356 0.11992,-0.175764 0.184404,-0.249333 0.408775,-0.466356 0.625042,-0.979204 0.625042,-1.4822 0,-0.484965 -0.09563,-0.699247 -0.595123,-1.333538 -0.414941,-0.526919 -0.44041,-0.576012 -0.368513,-0.710353 0.04248,-0.07938 0.09984,-0.144314 0.127474,-0.144314 0.02764,0 0.05024,-0.04081 0.05024,-0.09068 -10e-7,-0.0764 -0.136725,-0.09068 -0.867779,-0.09068 -0.845997,0 -0.871945,-0.0039 -1.033844,-0.153906 -0.09134,-0.08465 -0.215959,-0.145859 -0.276938,-0.136025 -0.13448,0.02169 -0.968579,-0.655796 -0.932852,-0.757695 0.02823,-0.08055 -0.236064,-0.403308 -0.330261,-0.403308 -0.03408,0 -0.106526,-0.06801 -0.160992,-0.151139 -0.05447,-0.08313 -0.136082,-0.151138 -0.181367,-0.151138 -0.04529,0 -0.124153,-0.06382 -0.175262,-0.141821 -0.140207,-0.213985 -0.35055,-0.281368 -0.878314,-0.281368 h -0.47912 l -0.135992,-0.317392 c -0.417386,-0.974134 -0.568652,-1.112451 -0.886524,-0.810634 -0.149395,0.141849 -0.21057,0.153664 -0.945651,0.182621 -0.432257,0.01702 -0.949152,0.03948 -1.148656,0.04988 l -0.362733,0.01892 -0.01731,0.589442 -0.01731,0.589437 h -0.45423 c -0.484311,0 -0.760438,0.09492 -0.869621,0.298929 -0.09935,0.185639 -0.07552,0.267514 0.149346,0.513006 0.231478,0.252715 0.244933,0.331916 0.142793,0.84051 l -0.0688,0.342589 H 14.535296 14.02977 v 0.211594 0.211595 h -0.483645 -0.483644 v -0.220843 -0.220843 l -0.680125,0.03983 c -2.243178,0.131371 -2.6916045,0.162033 -2.8414115,0.194293 -0.126827,0.02732 -0.1662528,0.01294 -0.1662528,-0.0606 0,-0.05302 -0.045269,-0.259219 -0.1005951,-0.45822 -0.072363,-0.260275 -0.1293575,-0.361819 -0.2030823,-0.361819 -0.1255831,0 -0.6636115,0.463804 -0.6636115,0.572063 0,0.04298 -0.039456,0.110891 -0.087685,0.150917 -0.048229,0.04003 -0.1774531,0.224704 -0.2871659,0.410397 -0.1097118,0.185693 -0.2402842,0.396607 -0.2901605,0.468695 -0.049875,0.07209 -0.1804488,0.283002 -0.2901606,0.468695 -0.1097128,0.185693 -0.2389368,0.370373 -0.2871639,0.410398 -0.048228,0.04002 -0.087687,0.09855 -0.087687,0.130048 0,0.0315 -0.08161,0.175897 -0.1813667,0.320881 -0.099752,0.144984 -0.1813666,0.289381 -0.1813666,0.320882 0,0.0315 -0.039456,0.09003 -0.087685,0.130048 -0.048229,0.04003 -0.1774511,0.224224 -0.2871639,0.409333 -0.2303337,0.388617 -0.2278488,0.384691 -0.6226681,0.983632 -0.3858873,0.585391 -0.402248,0.611425 -0.5364217,0.853597 -0.062278,0.112406 -0.2078907,0.329922 -0.3235833,0.483369 -0.2948445,0.391059 -0.525315,0.438057 -1.9933052,0.406482 C 1.5654957,21.273356 1.4645945,21.243195 1.349354,20.848581 1.2830061,20.621389 1.1903169,19.738262 1.0013195,17.532572 0.85759103,15.85519 0.60323447,14.051085 0.27256133,12.363621 0.1504409,11.740427 0.12452153,11.426114 0.12473385,10.570983 l 2.5739e-4,-1.0369448 0.1903881,-0.06637 c 0.10471338,-0.036503 0.26451116,-0.06637 0.35510608,-0.06637 0.11418527,0 0.27903948,-0.1020071 0.53736388,-0.3325056 L 1.5804951,8.7362878 h 1.5607314 1.5607313 l 0.1448534,0.143476 c 0.079666,0.078911 0.2040051,0.2149368 0.2763032,0.3022778 l 0.1314507,0.1588018 4.0097551,0.010992 c 2.2053658,0.00605 4.6097358,0.00249 5.3430448,-0.00791 1.363079,-0.019324 1.598805,0.013563 1.598805,0.223057 0,0.053336 0.116624,0.076141 0.389393,0.076141 0.214166,0 0.406207,0.027205 0.426757,0.060456 0.02149,0.034775 0.35043,0.061272 0.774377,0.062379 0.552078,0.00144 0.766459,0.024195 0.854364,0.090683 0.173734,0.1314061 1.955382,0.1293376 2.052383,-0.00238 0.116564,-0.1582826 2.545052,-0.5152739 3.497974,-0.5142072 0.433795,4.817e-4 0.710352,-0.022746 0.710352,-0.059664 0,-0.037792 -0.363615,-0.060456 -0.969937,-0.060456 h -0.969937 l 0.01776,-0.4383028 0.01776,-0.4383028 h 0.589518 c 0.505692,0 0.589507,-0.014073 0.589441,-0.098975 -6e-5,-0.078157 0.08576,-0.1069441 0.408,-0.1368623 0.802894,-0.074544 1.103314,-0.1080906 1.103314,-0.1232029 0,-0.00843 -0.04227,-0.1000693 -0.09392,-0.2036219 -0.05909,-0.1184433 -0.08711,-0.305972 -0.07557,-0.5055898 0.01631,-0.2819119 0.03522,-0.3212628 0.169494,-0.3527225 0.109607,-0.02568 0.151139,-0.075444 0.151139,-0.1810979 0,-0.1056254 -0.04156,-0.1554542 -0.151139,-0.181204 -0.144601,-0.03398 -0.151909,-0.057588 -0.168925,-0.5458061 -0.0098,-0.2806594 0.01,-0.5651586 0.0439,-0.6322204 0.03393,-0.067062 0.06914,-0.2438482 0.07824,-0.3928584 0.01409,-0.2306127 0.04003,-0.2791341 0.174314,-0.3260764 0.08677,-0.030332 0.227101,-0.037746 0.311848,-0.016476 0.231966,0.05822 0.465253,0.7842714 0.510228,1.5879693 l 0.03423,0.6117559 0.534757,0.030491 c 0.348049,0.019845 0.58722,0.064866 0.68502,0.1289475 0.08265,0.054152 0.299649,0.154349 0.482232,0.2226617 0.182581,0.068313 0.390101,0.1712795 0.461155,0.2288156 0.118144,0.095668 0.123238,0.1267095 0.05959,0.3630982 -0.03829,0.142168 -0.08461,0.2975932 -0.102951,0.3453894 -0.02459,0.064074 0.01599,0.086902 0.154487,0.086902 0.147531,0 0.187835,-0.025944 0.187835,-0.1209112 0,-0.094042 0.04031,-0.1209111 0.181366,-0.1209111 0.141063,0 0.181367,0.026869 0.181367,0.1209111 0,0.1029984 0.04031,0.1209112 0.27205,0.1209112 0.231746,0 0.27205,-0.017912 0.27205,-0.1209112 0,-0.094042 0.04031,-0.1209111 0.181367,-0.1209111 0.141063,0 0.181367,0.026869 0.181367,0.1209111 0,0.1029984 0.04031,0.1209112 0.27205,0.1209112 0.231746,0 0.27205,-0.017912 0.27205,-0.1209112 0,-0.094042 0.04031,-0.1209111 0.181366,-0.1209111 0.141063,0 0.181367,0.026869 0.181367,0.1209111 0,0.1029984 0.04031,0.1209112 0.27205,0.1209112 0.231746,0 0.27205,-0.017912 0.27205,-0.1209112 0,-0.092956 0.04031,-0.1209111 0.174316,-0.1209111 0.123472,0 0.183538,0.035266 0.205934,0.1209111 0.02441,0.093333 0.08246,0.1209112 0.254533,0.1209112 0.172071,0 0.230126,-0.027578 0.254534,-0.1209112 0.02239,-0.085645 0.08246,-0.1209111 0.205934,-0.1209111 0.134012,0 0.174316,0.027956 0.174316,0.1209111 0,0.1007593 0.04031,0.1209112 0.241822,0.1209112 0.201518,0 0.241822,-0.020152 0.241822,-0.1209112 0,-0.092956 0.04031,-0.1209111 0.174316,-0.1209111 0.123472,0 0.183538,0.035266 0.205934,0.1209111 0.02583,0.098775 0.08246,0.1209112 0.309329,0.1209112 0.237406,0 0.27771,-0.017548 0.27771,-0.1209112 0,-0.094042 0.04031,-0.1209111 0.181367,-0.1209111 0.141062,0 0.181366,0.026869 0.181366,0.1209111 0,0.1029984 0.04031,0.1209112 0.27205,0.1209112 0.231746,0 0.27205,-0.017912 0.27205,-0.1209112 0,-0.094042 0.04031,-0.1209111 0.181367,-0.1209111 0.141063,0 0.181367,0.026869 0.181367,0.1209111 0,0.1007593 0.04031,0.1209112 0.241822,0.1209112 0.201518,0 0.241822,-0.020152 0.241822,-0.1209112 0,-0.092956 0.04031,-0.1209111 0.174316,-0.1209111 0.123472,0 0.183539,0.035266 0.205934,0.1209111 0.02583,0.098775 0.08246,0.1209112 0.30933,0.1209112 0.237405,0 0.277709,-0.017548 0.277709,-0.1209112 0,-0.088668 0.04031,-0.1209111 0.151139,-0.1209111 0.110835,0 0.151139,0.032243 0.151139,0.1209111 0,0.1047896 0.04031,0.1209112 0.302278,0.1209112 0.261974,0 0.302278,-0.016122 0.302278,-0.1209112 0,-0.094042 0.04031,-0.1209111 0.181366,-0.1209111 0.141063,0 0.181367,0.026869 0.181367,0.1209111 0,0.1007593 0.04031,0.1209112 0.241822,0.1209112 0.201518,0 0.241822,-0.020152 0.241822,-0.1209112 0,-0.1739929 0.360172,-0.1739929 0.405673,0 0.02477,0.094726 0.08246,0.1209112 0.266389,0.1209112 0.194468,0 0.234772,-0.020757 0.234772,-0.1209112 0,-0.094042 0.04031,-0.1209111 0.181366,-0.1209111 0.141063,0 0.181367,0.026869 0.181367,0.1209111 0,0.1047896 0.04031,0.1209112 0.302278,0.1209112 0.261974,0 0.302278,-0.016122 0.302278,-0.1209112 0,-0.094042 0.04031,-0.1209111 0.181366,-0.1209111 0.141063,0 0.181367,0.026869 0.181367,0.1209111 0,0.1007593 0.04031,0.1209112 0.241822,0.1209112 0.201519,0 0.241823,-0.020152 0.241823,-0.1209112 0,-0.1726137 0.33511,-0.1726137 0.380251,0 0.02512,0.096071 0.08246,0.1209112 0.2791,0.1209112 0.207178,0 0.247482,-0.019691 0.247482,-0.1209112 0,-0.092956 0.04031,-0.1209111 0.174316,-0.1209111 0.123472,0 0.183538,0.035266 0.205935,0.1209111 0.02512,0.096071 0.08246,0.1209112 0.2791,0.1209112 0.207178,0 0.247482,-0.019691 0.247482,-0.1209112 0,-0.094042 0.04031,-0.1209111 0.181367,-0.1209111 0.141063,0 0.181367,0.026869 0.181367,0.1209111 0,0.1029984 0.04031,0.1209112 0.27205,0.1209112 0.231746,0 0.27205,-0.017912 0.27205,-0.1209112 0,-0.092956 0.04031,-0.1209111 0.174316,-0.1209111 0.123471,0 0.183538,0.035266 0.205935,0.1209111 0.02512,0.096071 0.08246,0.1209112 0.2791,0.1209112 0.207178,0 0.247482,-0.019691 0.247482,-0.1209112 0,-0.094042 0.04031,-0.1209111 0.181367,-0.1209111 0.141062,0 0.181366,0.026869 0.181366,0.1209111 0,0.1029984 0.04031,0.1209112 0.27205,0.1209112 0.231746,0 0.27205,-0.017912 0.27205,-0.1209112 0,-0.094042 0.04031,-0.1209111 0.181367,-0.1209111 0.141063,0 0.181367,0.026869 0.181367,0.1209111 0,0.1029984 0.04031,0.1209112 0.27205,0.1209112 0.231746,0 0.27205,-0.017912 0.27205,-0.1209112 0,-0.094042 0.04031,-0.1209111 0.181367,-0.1209111 0.141062,0 0.181366,0.026869 0.181366,0.1209111 0,0.1029984 0.04031,0.1209112 0.27205,0.1209112 0.231746,0 0.27205,-0.017912 0.27205,-0.1209112 0,-0.094042 0.04031,-0.1209111 0.181367,-0.1209111 0.141063,0 0.181367,0.026869 0.181367,0.1209111 0,0.1029984 0.04031,0.1209112 0.27205,0.1209112 0.231746,0 0.27205,-0.017912 0.27205,-0.1209112 0,-0.094042 0.04031,-0.1209111 0.181366,-0.1209111 0.141063,0 0.181367,0.026869 0.181367,0.1209111 0,0.1007593 0.04031,0.1209112 0.241822,0.1209112 0.201518,0 0.241822,-0.020152 0.241822,-0.1209112 0,-0.09788 0.04031,-0.1209111 0.211595,-0.1209111 0.17129,0 0.211594,0.023031 0.211594,0.1209111 0,0.1029984 0.04031,0.1209112 0.27205,0.1209112 0.231746,0 0.27205,-0.017912 0.27205,-0.1209112 0,-0.094042 0.04031,-0.1209111 0.181367,-0.1209111 0.141063,0 0.181367,0.026869 0.181367,0.1209111 0,0.1029984 0.04031,0.1209112 0.27205,0.1209112 0.231746,0 0.27205,-0.017912 0.27205,-0.1209112 0,-0.094042 0.04031,-0.1209111 0.181366,-0.1209111 0.141063,0 0.181367,0.026869 0.181367,0.1209111 0,0.1007593 0.04031,0.1209112 0.241822,0.1209112 0.201519,0 0.241823,-0.020152 0.241823,-0.1209112 0,-0.1726137 0.33511,-0.1726137 0.380251,0 0.02583,0.098775 0.08246,0.1209112 0.309328,0.1209112 0.237405,0 0.27771,-0.017548 0.27771,-0.1209112 0,-0.1682728 0.27579,-0.1682728 0.319795,0 0.02527,0.096626 0.08246,0.1209112 0.28476,0.1209112 0.202299,0 0.259493,-0.024285 0.284761,-0.1209112 0.04514,-0.1726137 0.38025,-0.1726137 0.38025,0 0,0.1007593 0.04031,0.1209112 0.241822,0.1209112 0.201519,0 0.241823,-0.020152 0.241823,-0.1209112 0,-0.1132342 0.04031,-0.1209111 0.634783,-0.1209111 0.594479,0 0.634783,0.00768 0.634783,0.1209111 0,0.1047896 0.04031,0.1209112 0.302278,0.1209112 0.261974,0 0.302278,-0.016122 0.302278,-0.1209112 0,-0.094042 0.04031,-0.1209111 0.181367,-0.1209111 0.141062,0 0.181366,0.026869 0.181366,0.1209111 0,0.1007593 0.04031,0.1209112 0.241823,0.1209112 0.201518,0 0.241822,-0.020152 0.241822,-0.1209112 0,-0.1726137 0.33511,-0.1726137 0.380251,0 0.02512,0.096071 0.08246,0.1209112 0.2791,0.1209112 0.207178,0 0.247482,-0.019691 0.247482,-0.1209112 0,-0.094042 0.04031,-0.1209111 0.181367,-0.1209111 0.141063,0 0.181367,0.026869 0.181367,0.1209111 0,0.1029984 0.04031,0.1209112 0.27205,0.1209112 0.231746,0 0.27205,-0.017912 0.27205,-0.1209112 0,-0.094042 0.04031,-0.1209111 0.181366,-0.1209111 0.141063,0 0.181367,0.026869 0.181367,0.1209111 0,0.1029984 0.04031,0.1209112 0.27205,0.1209112 0.231744,0 0.27205,-0.017912 0.27205,-0.1209112 0,-0.094855 0.04031,-0.1209111 0.187025,-0.1209111 0.136183,0 0.195623,0.03287 0.21865,0.1209111 0.02477,0.094726 0.08246,0.1209112 0.266386,0.1209112 0.194466,0 0.234772,-0.020757 0.234772,-0.1209112 0,-0.094042 0.04031,-0.1209111 0.181367,-0.1209111 0.141061,0 0.181367,0.026869 0.181367,0.1209111 0,0.1029984 0.04031,0.1209112 0.27205,0.1209112 0.231744,0 0.27205,-0.017912 0.27205,-0.1209112 0,-0.094042 0.04031,-0.1209111 0.181366,-0.1209111 0.141061,0 0.181367,0.026869 0.181367,0.1209111 0,0.1029984 0.04031,0.1209112 0.27205,0.1209112 0.231744,0 0.27205,-0.017912 0.27205,-0.1209112 0,-0.094042 0.04031,-0.1209111 0.181367,-0.1209111 0.141061,0 0.181366,0.026869 0.181366,0.1209111 0,0.1029984 0.04031,0.1209112 0.272051,0.1209112 0.231744,0 0.27205,-0.017912 0.27205,-0.1209112 0,-0.092956 0.04031,-0.1209111 0.174318,-0.1209111 0.123467,0 0.183536,0.035266 0.205929,0.1209111 0.02427,0.092808 0.08247,0.1209112 0.250371,0.1209112 0.281106,0 0.379981,-0.1968859 0.239893,-0.4776982 -0.05643,-0.1131167 -0.0841,-0.3041916 -0.07272,-0.5023272 0.01714,-0.2986042 0.02936,-0.3210352 0.184608,-0.3388986 0.244065,-0.028083 0.233709,-0.2780323 -0.01512,-0.3647727 l -0.181367,-0.063225 v -0.543677 c 0,-0.2990224 0.02721,-0.5604906 0.06046,-0.5810406 0.03327,-0.02055 0.06047,-0.1327643 0.06047,-0.2493648 0,-0.3458256 0.08699,-0.4458744 0.387683,-0.4458744 0.317005,0 0.37951,0.066103 0.459033,0.485438 0.03362,0.1772683 0.104389,0.3701125 0.15727,0.4285428 0.07716,0.085265 0.09198,0.2188792 0.07507,0.67686 l -0.02108,0.5706232 0.521151,0.029659 c 0.396577,0.022569 0.591672,0.065884 0.81615,0.1812043 0.162251,0.08335 0.410777,0.1999888 0.552286,0.2591976 0.357116,0.149426 0.399042,0.2139279 0.320359,0.4929266 -0.05956,0.2112196 -0.05242,0.2419501 0.08407,0.3616897 0.130893,0.1148314 0.151338,0.1886317 0.166912,0.602591 l 0.01775,0.4717332 0.332505,0.099729 0.332506,0.099729 0.01831,0.2772241 c 0.01778,0.2691406 0.01123,0.2808334 -0.224302,0.4009944 -0.133441,0.06807 -0.281593,0.12377 -0.329238,0.12377 -0.124303,0 -0.160014,0.135522 -0.160014,0.60721 v 0.415954 l 1.314908,0.0174 c 0.7232,0.0096 1.332084,-0.0062 1.353081,-0.03502 0.02099,-0.02882 0.33846,-0.0328 0.705485,-0.0088 0.586529,0.03831 0.689902,0.03026 0.853778,-0.06655 0.161326,-0.09529 0.212913,-0.09985 0.382708,-0.03377 0.139719,0.05437 0.879853,0.08702 2.569138,0.113323 l 2.37288,0.03695 v 0.4137 0.413718 h -1.564287 c -0.860362,0 -1.65164,0.01747 -1.758404,0.03883 -0.214461,0.04289 -0.308668,0.185527 -0.177425,0.26863 0.04641,0.02939 0.852918,0.05385 1.792247,0.05435 l 1.707869,9.24e-4 v 0.211595 0.211594 h -2.376441 c -1.995922,0 -2.395231,0.01421 -2.493792,0.08876 -0.156187,0.118133 -0.355624,0.115464 -0.456524,-0.0061 -0.07088,-0.08542 -0.174438,-0.09318 -0.768644,-0.05766 -0.377696,0.02258 -0.71823,0.01939 -0.75674,-0.0071 -0.03851,-0.02647 -0.661729,-0.03984 -1.384929,-0.0297 l -1.314908,0.01842 v 0.540768 0.540768 h -2.44845 c -1.53247,0 -2.44845,0.02182 -2.44845,0.05833 0,0.03209 0.056,0.08829 0.124441,0.124928 0.09178,0.04912 0.119546,0.114754 0.105798,0.250036 -0.01739,0.171118 -0.04909,0.193123 -0.472062,0.327678 -0.257207,0.08182 -0.603841,0.144594 -0.801036,0.145053 -0.307585,7.17e-4 -0.347619,-0.01311 -0.347619,-0.120101 0,-0.102998 -0.04031,-0.120911 -0.27205,-0.120911 -0.231744,0 -0.27205,0.01791 -0.27205,0.120911 0,0.09404 -0.04031,0.120911 -0.181367,0.120911 -0.141061,0 -0.181367,-0.02687 -0.181367,-0.120911 0,-0.102998 -0.04031,-0.120911 -0.27205,-0.120911 -0.231744,0 -0.27205,0.01791 -0.27205,0.120911 0,0.09404 -0.04031,0.120911 -0.181366,0.120911 -0.141061,0 -0.181367,-0.02687 -0.181367,-0.120911 0,-0.10076 -0.04031,-0.120911 -0.241822,-0.120911 -0.201518,0 -0.241822,0.02015 -0.241822,0.120911 0,0.09404 -0.04031,0.120911 -0.181367,0.120911 -0.141063,0 -0.181367,-0.02687 -0.181367,-0.120911 0,-0.10479 -0.04031,-0.120911 -0.302278,-0.120911 -0.261973,0 -0.302277,0.01612 -0.302277,0.120911 0,0.09404 -0.04031,0.120911 -0.181367,0.120911 -0.141063,0 -0.181367,-0.02687 -0.181367,-0.120911 0,-0.102998 -0.04031,-0.120911 -0.27205,-0.120911 -0.231746,0 -0.27205,0.01791 -0.27205,0.120911 0,0.09404 -0.04031,0.120911 -0.181366,0.120911 -0.141063,0 -0.181367,-0.02687 -0.181367,-0.120911 0,-0.10076 -0.04031,-0.120911 -0.241822,-0.120911 -0.201518,0 -0.241823,0.02015 -0.241823,0.120911 0,0.09404 -0.04031,0.120911 -0.181366,0.120911 -0.141063,0 -0.181367,-0.02687 -0.181367,-0.120911 0,-0.10479 -0.04031,-0.120911 -0.302278,-0.120911 -0.261973,0 -0.302277,0.01612 -0.302277,0.120911 0,0.08867 -0.04031,0.120911 -0.151139,0.120911 -0.110835,0 -0.151139,-0.03224 -0.151139,-0.120911 0,-0.10479 -0.04031,-0.120911 -0.302278,-0.120911 -0.261974,0 -0.302278,0.01612 -0.302278,0.120911 0,0.09404 -0.04031,0.120911 -0.181367,0.120911 -0.141062,0 -0.181366,-0.02687 -0.181366,-0.120911 0,-0.10076 -0.04031,-0.120911 -0.241822,-0.120911 -0.201519,0 -0.241823,0.02015 -0.241823,0.120911 0,0.09404 -0.04031,0.120911 -0.181366,0.120911 -0.141063,0 -0.181367,-0.02687 -0.181367,-0.120911 0,-0.102998 -0.04031,-0.120911 -0.27205,-0.120911 -0.231746,0 -0.27205,0.01791 -0.27205,0.120911 0,0.09404 -0.04031,0.120911 -0.181367,0.120911 -0.141062,0 -0.181366,-0.02687 -0.181366,-0.120911 0,-0.10479 -0.04031,-0.120911 -0.302278,-0.120911 -0.261974,0 -0.302278,0.01612 -0.302278,0.120911 0,0.09404 -0.04031,0.120911 -0.181367,0.120911 -0.141062,0 -0.181366,-0.02687 -0.181366,-0.120911 0,-0.10076 -0.04031,-0.120911 -0.241823,-0.120911 -0.201518,0 -0.241822,0.02015 -0.241822,0.120911 0,0.106884 -0.04031,0.120911 -0.347413,0.120911 -0.212196,0 -0.529851,-0.06076 -0.81615,-0.156103 -0.458863,-0.152816 -0.468737,-0.160321 -0.468737,-0.356266 0,-0.122152 0.03534,-0.213724 0.09068,-0.234961 0.04987,-0.01914 0.09068,-0.06285 0.09068,-0.09715 0,-0.09111 -2.006717,-0.08182 -2.315598,0.01073 -0.142218,0.04261 -0.38796,0.206444 -0.589421,0.392961 l -0.345514,0.319882 h -1.881157 -1.881155 v -0.241823 c 0,-0.268653 -0.06789,-0.303946 -0.226708,-0.117843 -0.287689,0.337128 -0.463542,0.480577 -0.589137,0.480577 -0.07592,0 -0.190292,0.04761 -0.254145,0.105797 -0.109231,0.09954 -0.114095,0.175218 -0.08227,1.279756 0.0248,0.86071 0.05399,1.180651 0.109399,1.199036 0.04156,0.01379 0.07557,0.105097 0.07557,0.202901 0,0.186364 -0.108273,0.260506 -0.513872,0.351885 -0.164121,0.03698 -0.179456,0.06068 -0.161273,0.249295 0.01106,0.11464 0.04311,1.745519 0.07125,3.624175 0.02814,1.878657 0.0666,3.551764 0.08545,3.718017 0.04601,0.405524 0.04785,1.048385 0.0032,1.120601 -0.02247,0.03636 -1.407807,0.05828 -3.683718,0.05828 H 34.778617 Z M 33.84977,19.200725 c 0.705059,-0.12124 0.916256,-0.399632 0.916256,-1.207783 0,-0.661353 -0.144088,-0.996262 -0.497667,-1.156749 -0.343987,-0.156133 -1.403804,-0.16999 -1.696849,-0.02219 -0.48812,0.246194 -0.781652,0.734432 -0.777294,1.292893 0.0026,0.340458 0.129278,0.733327 0.297264,0.922317 0.05191,0.0584 0.07688,0.123652 0.05551,0.145019 -0.09188,0.09188 -0.520212,-0.505898 -0.651425,-0.909152 -0.12327,-0.378841 -0.128796,-0.449287 -0.06165,-0.785922 0.131264,-0.658103 0.123499,-0.729584 -0.08179,-0.752923 -0.278673,-0.03168 -0.614727,0.108401 -0.831806,0.346733 -0.197632,0.216981 -0.197793,0.217685 -0.215331,0.942927 -0.01562,0.646004 -0.0039,0.747758 0.106988,0.925683 0.217974,0.349875 0.361949,0.378118 1.784685,0.350098 0.698262,-0.01375 1.44216,-0.05468 1.653105,-0.09096 z M 5.1116559,17.442776 c 0.05943,-0.04939 0.1756481,-0.196882 0.258271,-0.327766 0.082626,-0.130883 0.1741236,-0.267308 0.2033338,-0.303165 0.1342733,-0.164826 0.4721434,-0.712319 0.5066157,-0.820931 0.021097,-0.06648 0.058724,-0.12087 0.083612,-0.12087 0.024888,0 0.1092514,-0.115621 0.1874751,-0.256936 0.078225,-0.141315 0.1920543,-0.321816 0.2529548,-0.401115 0.1435031,-0.186852 0.1398206,-0.316403 -0.014567,-0.512679 L 6.4640497,14.540021 H 4.994229 3.5244086 l -0.1004428,0.153295 c -0.1889006,0.2883 -0.4698895,0.511717 -0.6435781,0.511717 -0.3719914,0 -0.4264124,0.273344 -0.2768342,1.390477 0.084443,0.630673 0.1615071,0.824715 0.3610039,0.908993 0.07264,0.03068 0.5836433,0.04955 1.1355626,0.04193 0.7833425,-0.01082 1.0271932,-0.03356 1.1115359,-0.103657 z m 7.1886621,-2.696105 c 0.06438,-0.167783 0.04014,-0.21555 -0.09933,-0.19574 -0.180521,0.02563 -0.231607,0.291368 -0.05602,0.291368 0.06525,0 0.135162,-0.04303 0.155344,-0.09563 z m -3.8525793,-0.41391 c 0.084541,-0.177284 0.087404,-0.234852 0.01981,-0.398046 -0.1898536,-0.458343 -0.8460683,-0.30573 -0.8460683,0.196766 0,0.264623 0.161279,0.40854 0.4578227,0.40854 0.2475177,0 0.2776961,-0.01697 0.3684356,-0.20726 z m 1.2594586,-0.397295 c 0,-0.174911 -0.024163,-0.21502 -0.1393525,-0.231349 -0.2574517,-0.0365 -0.4141612,0.227981 -0.2389194,0.403223 0.041332,0.04133 0.1433484,0.06718 0.2267084,0.05744 0.1295374,-0.01515 0.1515635,-0.04847 0.1515635,-0.229311 z m -3.3655561,0.128539 c 0.045675,-0.02895 0.071792,-0.126494 0.060456,-0.225783 l -0.019955,-0.174806 -1.5416168,-0.01619 c -1.3957186,-0.01466 -1.5487686,-0.0064 -1.6171862,0.08712 -0.097935,0.133897 -0.09531,0.172744 0.019432,0.287485 0.081181,0.08118 0.3076575,0.09486 1.5567306,0.09408 0.8039516,-5.1e-4 1.4979137,-0.02386 1.5421401,-0.0519 z m 6.3581058,-0.279678 c 0,-0.05518 -0.05628,-0.09068 -0.143736,-0.09068 -0.07906,0 -0.177604,0.04081 -0.218997,0.09068 -0.06454,0.07777 -0.04407,0.09068 0.143737,0.09068 0.15436,0 0.218996,-0.02676 0.218996,-0.09068 z m 37.637145,-0.177825 c 0.09386,-0.06969 0.103968,-0.109031 0.05049,-0.196481 -0.05544,-0.09066 -0.163841,-0.112365 -0.634783,-0.127062 -0.715425,-0.02233 -0.839976,0.0066 -0.839976,0.195205 0,0.190843 0.0493,0.205093 0.729026,0.210707 0.414825,0.0034 0.611,-0.01982 0.69524,-0.08237 z m 3.558374,0.05044 c 0.0526,-0.02019 0.09563,-0.09889 0.09563,-0.174899 0,-0.07601 -0.04304,-0.154717 -0.09563,-0.174899 -0.124721,-0.04786 -2.585889,-0.04786 -2.710611,0 -0.11314,0.04341 -0.1255,0.211529 -0.02308,0.313947 0.07666,0.07666 2.543068,0.109 2.733692,0.03585 z m 3.666712,-0.05905 c 0.05767,-0.06949 0.06204,-0.123383 0.01593,-0.196481 -0.05627,-0.08919 -0.221251,-0.10073 -1.440843,-0.10073 -1.263688,0 -1.38283,0.009 -1.444344,0.109338 -0.05368,0.08755 -0.04365,0.126707 0.05031,0.196481 0.18196,0.135118 2.706062,0.12741 2.818948,-0.0086 z m 3.612216,-0.0035 c 0.03056,-0.0546 0.04221,-0.150309 0.0259,-0.212691 -0.02808,-0.107383 -0.103742,-0.112558 -1.421372,-0.09721 -1.221918,0.01423 -1.399456,0.0285 -1.455204,0.116941 -0.04606,0.07307 -0.04167,0.127024 0.01597,0.19648 0.06817,0.08213 0.271452,0.09575 1.42931,0.09575 1.188898,0 1.356469,-0.01184 1.405396,-0.09927 z m 3.608017,-0.112361 v -0.181366 l -1.299794,-0.01709 c -0.714887,-0.0094 -1.361006,-0.0021 -1.43582,0.01627 -0.150086,0.03681 -0.194836,0.299077 -0.06045,0.354328 0.04156,0.01709 0.687682,0.02616 1.435819,0.02015 l 1.36025,-0.01092 z m 3.661769,0.115844 c 0.05766,-0.06949 0.06203,-0.123383 0.01592,-0.196481 -0.05634,-0.08932 -0.223647,-0.100729 -1.476824,-0.100729 -1.315314,0 -1.414751,0.0075 -1.434344,0.109328 -0.05395,0.280153 -0.0364,0.283633 1.430808,0.283633 1.18991,0 1.39616,-0.01348 1.464438,-0.09575 z m -7.268583,-3.253543 c 0.02127,-0.110645 -0.01632,-0.113341 -1.006172,-0.07217 -0.701027,0.02916 -1.040828,0.02245 -1.067734,-0.02109 -0.06406,-0.103661 -0.453963,-0.0778 -0.496454,0.03293 -0.02043,0.05323 8.31e-4,0.121142 0.04724,0.150912 0.04641,0.02977 0.628124,0.04743 1.292703,0.03924 1.132992,-0.01396 1.209704,-0.02205 1.230417,-0.129825 z m 3.455675,0.05448 c 0,-0.07786 -0.188083,-0.09068 -1.330022,-0.09068 -1.214316,0 -1.409442,0.02134 -1.289716,0.141063 0.02216,0.02217 0.620672,0.0403 1.330022,0.0403 1.106113,0 1.289716,-0.01291 1.289716,-0.09068 z M 69.28615,9.8295258 c 0,-0.073982 -0.126267,-0.1127212 -0.256936,-0.078831 -0.171518,0.044486 -0.120989,0.1342488 0.07558,0.1342488 0.09975,0 0.181366,-0.024938 0.181366,-0.055418 z M 58.422486,9.2803879 c 0.08255,0 0.165753,0.040808 0.184893,0.090683 0.04661,0.121481 0.380128,0.1178278 0.448818,-0.00491 0.04433,-0.079212 0.13552,-0.089983 0.531991,-0.062834 0.263169,0.018021 0.730136,0.050145 1.037704,0.071387 0.47278,0.032652 0.559214,0.024675 0.559214,-0.051609 0,-0.049627 -0.04303,-0.1067435 -0.09563,-0.1269263 -0.124121,-0.047629 -2.975625,-0.046356 -3.153858,0.00141 -0.07482,0.020043 -0.136027,0.06763 -0.136027,0.1057435 0,0.038113 0.06121,0.098423 0.136025,0.1340212 0.109576,0.052139 0.155543,0.043171 0.236399,-0.046119 0.05521,-0.060965 0.167916,-0.1108448 0.250468,-0.1108448 z M 3.6756888,9.4218665 c 0.9394625,-0.035637 1.0452656,-0.050464 1.07716,-0.1509541 0.019453,-0.06129 0.018099,-0.1658456 -0.00301,-0.2323468 C 4.712804,8.921863 4.6583747,8.9176545 3.1860141,8.9176545 c -1.6160412,0 -1.670545,0.00933 -1.670545,0.2860893 0,0.2650886 0.2518102,0.2905145 2.1602197,0.2181227 z M 64.600845,9.2199323 c -0.04618,-0.074717 -2.365258,-0.074717 -2.539134,0 -0.07257,0.031185 0.41828,0.053655 1.227793,0.056206 0.884796,0.00279 1.335856,-0.016546 1.311341,-0.056206 z m 3.899383,-0.1813667 c 0,-0.066501 -0.05441,-0.1753211 -0.120911,-0.2418222 -0.11307,-0.1130721 -0.201516,-0.1209111 -1.364222,-0.1209111 -1.286881,0 -1.477189,0.031428 -1.477189,0.2439493 0,0.1002435 0.0419,0.118784 0.268483,0.118784 0.147663,0 0.285296,-0.027205 0.305845,-0.060455 0.02266,-0.036669 0.464123,-0.060456 1.121995,-0.060456 1.044327,0 1.084632,0.00449 1.084632,0.1209111 0,0.067172 0.04031,0.1209112 0.09068,0.1209112 0.05038,0 0.09068,-0.053739 0.09068,-0.1209112 z M 66.142461,8.1015045 c 0,-0.1039525 -0.03303,-0.1508812 -0.105797,-0.1503134 -0.226944,0.00177 -0.377847,0.07669 -0.377847,0.1875921 0,0.092533 0.04529,0.1138602 0.241822,0.1138602 0.21764,0 0.241822,-0.015114 0.241822,-0.1511389 z"
   id="path1" /></svg>
