<?xml version="1.0" encoding="UTF-8" standalone="no"?>
<!-- Generator: Adobe Illustrator 16.0.0, SVG Export Plug-In . SVG Version: 6.00 Build 0)  -->

<svg
   version="1.1"
   x="0px"
   y="0px"
   width="75.833px"
   height="32px"
   viewBox="0 0 75.833 32"
   enable-background="new 0 0 75.833 32"
   xml:space="preserve"
   id="svg39"
   sodipodi:docname="negev.svg"
   inkscape:version="1.3 (0e150ed6c4, 2023-07-21)"
   xmlns:inkscape="http://www.inkscape.org/namespaces/inkscape"
   xmlns:sodipodi="http://sodipodi.sourceforge.net/DTD/sodipodi-0.dtd"
   xmlns="http://www.w3.org/2000/svg"
   xmlns:svg="http://www.w3.org/2000/svg"><defs
   id="defs43" /><sodipodi:namedview
   id="namedview41"
   pagecolor="#ffffff"
   bordercolor="#111111"
   borderopacity="1"
   inkscape:pageshadow="0"
   inkscape:pageopacity="0"
   inkscape:pagecheckerboard="1"
   showgrid="false"
   inkscape:zoom="11.313708"
   inkscape:cx="44.945475"
   inkscape:cy="8.883029"
   inkscape:window-width="1920"
   inkscape:window-height="1009"
   inkscape:window-x="-8"
   inkscape:window-y="-8"
   inkscape:window-maximized="1"
   inkscape:current-layer="svg39"
   inkscape:showpageshadow="2"
   inkscape:deskcolor="#d1d1d1" />&#10;&#10;<g
   id="guides">&#10;</g>&#10;<path
   style="fill:#ffffff;stroke-width:0.0593941"
   d="m 18.958282,28.859353 c -0.179667,-0.0092 -0.720897,-0.04926 -1.202732,-0.08902 -0.724143,-0.05977 -0.876204,-0.08843 -0.876875,-0.165324 -4.46e-4,-0.05117 -0.01597,-0.149474 -0.03449,-0.218468 -0.04205,-0.156663 0.055,-0.193884 1.431057,-0.54884 0.154558,-0.03987 0.176985,-0.07138 0.169158,-0.237681 -0.01612,-0.342478 -0.07614,-0.493549 -0.18613,-0.468534 -0.172734,0.03928 -0.410041,-0.116873 -0.448008,-0.294805 -0.191842,-0.899036 -0.747139,-3.343065 -0.84063,-3.699867 -0.04708,-0.179668 -0.115682,-0.473668 -0.152453,-0.653335 -0.03677,-0.179668 -0.102481,-0.473669 -0.146024,-0.653337 -0.04354,-0.179667 -0.101392,-0.433576 -0.128549,-0.564244 -0.0415,-0.199671 -0.07037,-0.234666 -0.180938,-0.219331 -0.102812,0.01426 -0.139074,-0.01819 -0.16596,-0.148486 -0.01892,-0.0917 -0.07174,-0.327094 -0.117392,-0.523095 -0.04565,-0.196001 -0.114674,-0.503366 -0.153398,-0.683034 -0.03873,-0.179667 -0.104316,-0.460305 -0.14576,-0.623638 -0.127754,-0.503482 -0.156477,-0.748475 -0.09628,-0.821172 0.03458,-0.04177 0.03841,-0.165023 0.0095,-0.307317 -0.152197,-0.749813 -0.180264,-0.874616 -0.20608,-0.916388 -0.02922,-0.04728 0.534365,-0.227845 0.799212,-0.256061 0.112409,-0.01198 0.145299,-0.04682 0.135371,-0.14343 -0.0072,-0.07018 0.02621,-0.160235 0.07424,-0.200112 0.06552,-0.05437 0.08735,-0.211756 0.08735,-0.629471 V 15.23739 h -0.327575 c -0.300905,0 -0.362565,0.02536 -0.757276,0.311473 -0.236334,0.171309 -0.469789,0.344392 -0.518789,0.384631 -0.049,0.04023 -0.26179,0.20602 -0.472866,0.368408 -0.418263,0.321787 -0.464054,0.320445 -0.628992,-0.01844 -0.137139,-0.281772 -0.272687,-0.436172 -0.30567,-0.348182 -0.01531,0.04083 -0.05901,0.07429 -0.09712,0.07435 -0.03812,6.3e-5 -0.291403,0.1337 -0.562872,0.296971 -0.271467,0.163272 -0.50455,0.296858 -0.517962,0.296858 -0.03674,0 -0.571321,0.371336 -0.704428,0.489322 -0.06407,0.05679 -0.165237,0.118731 -0.224813,0.137639 -0.05957,0.01891 -0.108317,0.0593 -0.108317,0.08977 0,0.03047 -0.03027,0.05539 -0.06727,0.05539 -0.037,0 -0.110502,0.04753 -0.163335,0.105623 -0.05283,0.0581 -0.216331,0.198274 -0.363331,0.311516 -0.354067,0.272755 -0.736758,0.650454 -0.8221088,0.811385 -0.082324,0.155224 -0.090306,0.447864 -0.014367,0.526572 0.1530378,0.158613 0.3613168,0.662384 0.3613168,0.873931 0,0.195941 -0.03711,0.269558 -0.220584,0.437616 L 9.845528,20.64427 7.2630642,20.64097 C 5.8427253,20.639149 4.6523924,20.614284 4.6178966,20.585712 4.5834007,20.557149 4.0968759,20.524772 3.5367304,20.51376 2.3613277,20.490658 2.3365444,20.480529 2.218376,19.975284 2.1781261,19.803136 2.1080067,19.515256 2.0625769,19.335589 2.0171471,19.155921 1.9482837,18.848557 1.9095475,18.652556 1.8708085,18.456555 1.8159517,18.216009 1.7876376,18.118009 1.7170649,17.873747 1.4357044,16.581457 1.3738309,16.217396 1.346072,16.054062 1.2812565,15.733334 1.2297966,15.504666 1.1783372,15.275998 1.0846158,14.834996 1.021528,14.524661 0.95843696,14.214326 0.85232102,13.693142 0.78570688,13.366474 0.52490989,12.087547 0.22582689,10.507904 0.09273552,9.7064546 -0.00588448,9.1125879 -0.00612243,9.0665097 0.0887037,8.9218141 0.15036355,8.8277103 0.28463225,8.7424543 0.43490311,8.7019911 0.66094176,8.6411242 0.81623835,8.6103353 1.636594,8.4637367 1.7953586,8.4353662 1.9890145,8.3703768 2.0669394,8.319318 2.1509304,8.2642837 2.2664192,8.2409906 2.3505643,8.2621066 2.4662446,8.2911423 2.543756,8.2429421 2.7695,8.0016039 2.923767,7.8366802 3.1906567,7.6372178 3.3718704,7.5514169 L 3.6972475,7.3973581 H 18.395661 c 12.699044,0 14.698432,-0.011541 14.698432,-0.084849 0,-0.196968 -0.17653,-0.2715181 -0.64273,-0.2714306 -0.250834,4.71e-5 -0.803518,-0.025979 -1.228187,-0.057836 -0.424668,-0.031854 -1.41358,-0.099386 -2.197584,-0.150068 -0.784003,-0.050682 -1.759551,-0.1183344 -2.167886,-0.1503382 -0.408336,-0.032004 -0.89611,-0.058056 -1.083944,-0.057895 l -0.341516,2.941e-4 V 6.3282659 c 0,-0.2771727 -0.0099,-0.2969708 -0.148485,-0.2969708 H 25.135275 V 5.2655597 4.4998241 l 0.296971,-0.2264728 c 0.163334,-0.1245601 0.296971,-0.2455309 0.296971,-0.2688241 0,-0.023293 0.132495,-0.1022315 0.294433,-0.1754188 0.161939,-0.073187 0.305839,-0.175592 0.319779,-0.2275663 0.02246,-0.08377 0.02613,-0.083429 0.03223,0.003 0.0085,0.1199913 0.130996,0.1514392 0.79612,0.2043484 0.72808,0.057917 0.755017,0.096172 0.755017,1.0722262 v 0.7344172 h 1.009701 c 0.857916,0 1.009701,0.013393 1.009701,0.089091 0,0.064344 0.06599,0.089091 0.237577,0.089091 0.171583,0 0.237576,-0.024748 0.237576,-0.089091 0,-0.055435 0.05609,-0.089091 0.148486,-0.089091 0.09239,0 0.148486,0.033657 0.148486,0.089091 0,0.064344 0.06599,0.089091 0.237575,0.089091 0.171584,0 0.237578,-0.024748 0.237578,-0.089091 0,-0.055435 0.05609,-0.089091 0.148485,-0.089091 0.09239,0 0.148485,0.033657 0.148485,0.089091 0,0.064344 0.06599,0.089091 0.237577,0.089091 0.171583,0 0.237577,-0.024748 0.237577,-0.089091 0,-0.059394 0.05939,-0.089091 0.178182,-0.089091 0.118789,0 0.178182,0.029697 0.178182,0.089091 0,0.064344 0.06599,0.089091 0.237577,0.089091 0.171584,0 0.237577,-0.024748 0.237577,-0.089091 0,-0.055435 0.05609,-0.089091 0.148485,-0.089091 0.09239,0 0.148486,0.033657 0.148486,0.089091 0,0.064344 0.06599,0.089091 0.237576,0.089091 0.171584,0 0.237576,-0.024748 0.237576,-0.089091 0,-0.055435 0.05609,-0.089091 0.148486,-0.089091 0.09239,0 0.148486,0.033657 0.148486,0.089091 0,0.064459 0.0662,0.089091 0.23944,0.089091 0.158046,0 0.251063,-0.030286 0.273629,-0.089091 0.0188,-0.049001 0.09815,-0.089091 0.176318,-0.089091 0.08674,0 0.142132,0.034718 0.142132,0.089091 0,0.064344 0.06599,0.089091 0.237575,0.089091 0.171584,0 0.237578,-0.024748 0.237578,-0.089091 0,-0.1178548 0.273224,-0.1178548 0.31845,0 0.04721,0.1230287 0.453674,0.1230287 0.453674,0 0,-0.055435 0.05609,-0.089091 0.148484,-0.089091 0.09239,0 0.148486,0.033657 0.148486,0.089091 0,0.065993 0.06929,0.089091 0.267274,0.089091 0.19798,0 0.267273,-0.023098 0.267273,-0.089091 0,-0.055435 0.05609,-0.089091 0.148486,-0.089091 0.09239,0 0.148485,0.033657 0.148485,0.089091 0,0.064344 0.06599,0.089091 0.237577,0.089091 0.171584,0 0.237577,-0.024748 0.237577,-0.089091 0,-0.055435 0.05609,-0.089091 0.148486,-0.089091 0.09239,0 0.148485,0.033657 0.148485,0.089091 0,0.064344 0.06599,0.089091 0.237576,0.089091 0.171583,0 0.237577,-0.024748 0.237577,-0.089091 0,-0.055435 0.05609,-0.089091 0.148486,-0.089091 0.09239,0 0.148485,0.033657 0.148485,0.089091 0,0.065993 0.06929,0.089091 0.267274,0.089091 0.19798,0 0.267273,-0.023098 0.267273,-0.089091 0,-0.055435 0.05609,-0.089091 0.148486,-0.089091 0.09239,0 0.148485,0.033657 0.148485,0.089091 0,0.064344 0.06599,0.089091 0.237576,0.089091 0.171584,0 0.237578,-0.024748 0.237578,-0.089091 0,-0.055435 0.05609,-0.089091 0.148485,-0.089091 0.09239,0 0.148484,0.033657 0.148484,0.089091 0,0.064344 0.06599,0.089091 0.237578,0.089091 0.171584,0 0.237576,-0.024748 0.237576,-0.089091 0,-0.059394 0.05939,-0.089091 0.178183,-0.089091 0.118788,0 0.178182,0.029697 0.178182,0.089091 0,0.064344 0.066,0.089091 0.237578,0.089091 0.171582,0 0.237576,-0.024748 0.237576,-0.089091 0,-0.055435 0.05609,-0.089091 0.148485,-0.089091 0.09239,0 0.148485,0.033657 0.148485,0.089091 0,0.064344 0.06599,0.089091 0.237577,0.089091 0.171583,0 0.237577,-0.024748 0.237577,-0.089091 0,-0.055435 0.05609,-0.089091 0.148485,-0.089091 0.09239,0 0.148485,0.033657 0.148485,0.089091 0,0.064344 0.06599,0.089091 0.237577,0.089091 0.171583,0 0.237577,-0.024748 0.237577,-0.089091 0,-0.059394 0.05939,-0.089091 0.178182,-0.089091 0.118788,0 0.178183,0.029697 0.178183,0.089091 0,0.064344 0.06599,0.089091 0.237577,0.089091 0.171583,0 0.237577,-0.024748 0.237577,-0.089091 0,-0.055435 0.05609,-0.089091 0.148485,-0.089091 0.09239,0 0.148485,0.033657 0.148485,0.089091 0,0.064344 0.06599,0.089091 0.237577,0.089091 h 0.237577 V 5.3395334 c 0,-0.4351946 0.0092,-0.4656203 0.220265,-0.7275785 0.616486,-0.7651721 0.634434,-0.7782422 1.06868,-0.7782422 h 0.375635 l 0.111189,0.2524251 c 0.193903,0.4402078 0.243631,0.6653445 0.243631,1.103009 0,0.4245051 7.39e-4,0.4264099 0.163335,0.4307317 0.08984,0.00238 0.243516,0.055549 0.341516,0.1181343 0.098,0.062587 0.218274,0.1327978 0.267274,0.1560257 0.049,0.023227 0.286264,0.1587141 0.527254,0.3010803 0.240989,0.1423662 0.475085,0.2446792 0.520212,0.2273621 0.04513,-0.017318 0.114917,-0.1057359 0.155087,-0.1964864 0.106527,-0.2406656 0.166798,-0.2822749 0.430786,-0.297409 0.336152,-0.019272 0.564245,0.083993 0.564245,0.255451 0,0.07608 0.04588,0.1640046 0.101957,0.1953865 0.09146,0.051183 0.09315,0.073512 0.01644,0.2168518 -0.082,0.1532223 -0.07642,0.1681272 0.135619,0.3624515 0.121626,0.111462 0.221139,0.2156621 0.221139,0.2315559 0,0.073602 -0.196058,0.016872 -0.310654,-0.089891 -0.138827,-0.1293359 -0.307059,-0.1604008 -0.270225,-0.049898 0.01263,0.037889 0.105999,0.1134221 0.207486,0.1678502 0.479816,0.2573278 0.492181,0.2736512 0.492181,0.6497311 0,0.3382614 0.0058,0.3512257 0.187045,0.41439 0.125319,0.043685 1.088455,0.065201 2.918521,0.065201 h 2.731475 l 0.25774,-0.2375765 0.257739,-0.237577 h 5.245746 5.245745 l 0.247246,0.237577 0.247246,0.2375765 h 1.219879 c 1.044738,0 1.219874,-0.012794 1.219874,-0.089091 0,-0.1055291 0.297921,-0.1237785 0.397358,-0.024338 0.06437,0.064375 0.585739,0.046023 1.034427,-0.036407 0.203413,-0.037368 0.216052,-0.030104 0.25094,0.1443334 0.03096,0.1547913 0.06391,0.1836853 0.209478,0.1836853 0.122786,0 0.181721,-0.034351 0.203798,-0.1187885 0.02711,-0.103637 0.08102,-0.118788 0.422691,-0.118788 0.221488,0 0.391621,0.025804 0.391621,0.059396 0,0.032664 0.04009,0.059396 0.08909,0.059396 0.049,0 0.08909,-0.029512 0.08909,-0.065584 0,-0.046796 0.233976,-0.053024 0.81667,-0.021758 0.44917,0.024103 0.896856,0.037893 0.994855,0.030641 0.098,-0.00725 0.298456,-0.017505 0.445455,-0.022787 l 0.267275,-0.0096 0.01828,0.2196274 c 0.01109,0.133528 -0.02111,0.2796503 -0.08206,0.3727353 -0.09283,0.1416764 -0.09309,0.1611037 -0.0033,0.2602022 0.09617,0.1062685 0.137813,0.5404869 0.05235,0.5461503 -0.586628,0.038893 -2.498833,0.022498 -2.55647,-0.021919 -0.05189,-0.039989 -0.09903,-0.036878 -0.145515,0.0096 -0.03782,0.037818 -0.220513,0.068756 -0.405996,0.068756 -0.282514,0 -0.352373,-0.021684 -0.430463,-0.133637 -0.09307,-0.133424 -0.09323,-0.1333286 -0.09633,0.059396 -0.0027,0.1654729 -0.02432,0.1930309 -0.151603,0.1930309 h -0.148553 v 0.6830302 0.683033 H 71.40751 c -0.258471,0 -0.29507,-0.01568 -0.311819,-0.133637 -0.02874,-0.202342 -0.298997,-0.213689 -0.427252,-0.01794 -0.06116,0.09333 -0.154501,0.151576 -0.242928,0.151576 -0.07899,0 -0.160134,0.02672 -0.180321,0.0594 -0.09989,0.161629 -0.606871,-0.0016 -0.659791,-0.212451 -0.01832,-0.07298 -0.09118,-0.148485 -0.161909,-0.167791 -0.07073,-0.01931 -2.514024,-0.03496 -5.429535,-0.03477 -3.706534,2.29e-4 -5.300929,-0.01868 -5.300929,-0.06286 0,-0.03832 -0.111011,-0.05606 -0.282122,-0.04508 l -0.282123,0.0181 v 0.237576 0.237577 l -0.470299,0.01752 c -0.258711,0.0096 -0.579439,-0.0088 -0.712777,-0.04108 -0.45372,-0.109678 -1.01436,-0.316796 -1.080496,-0.399169 -0.07537,-0.09387 -0.557696,-0.11354 -0.557696,-0.02274 0,0.08977 -0.310886,0.06755 -0.441959,-0.03159 -0.07422,-0.05614 -0.254374,-0.0872 -0.505678,-0.0872 h -0.390385 l -0.143898,0.30309 c -0.07915,0.166699 -0.18568,0.316205 -0.23675,0.332235 -0.293566,0.09215 -0.41952,0.159368 -0.41952,0.223891 0,0.150186 -0.216727,0.269273 -0.49005,0.269273 -0.245868,0 -0.29339,-0.02404 -0.481077,-0.243303 -0.306446,-0.35801 -0.632519,-1.24344 -0.632519,-1.7175561 V 9.7137225 h -0.41576 c -0.32047,0 -0.415758,0.01942 -0.415758,0.084736 0,0.046607 0.04677,0.096959 0.103939,0.1118975 0.0935,0.024433 0.09387,0.027853 0.0036,0.034055 -0.07167,0.0049 -0.111737,0.083154 -0.14038,0.274164 l -0.04009,0.267274 h -1.653601 -1.653601 l -0.03633,0.222728 c -0.164034,1.005998 -0.183487,1.024548 -1.074393,1.024548 -0.411373,0 -0.676454,0.02327 -0.676454,0.05939 0,0.03644 0.288812,0.05939 0.747648,0.05939 h 0.747648 l -0.03926,0.252426 c -0.05996,0.3856 -0.09032,0.460304 -0.187031,0.460304 -0.160541,0 -0.47158,0.288463 -0.610096,0.565816 -0.135372,0.271056 -0.135758,0.27926 -0.109596,2.332805 0.01584,1.24356 0.05147,2.131452 0.08983,2.238973 0.211996,0.594171 0.216419,0.638713 0.07481,0.75338 -0.11982,0.09702 -0.266775,0.107837 -1.465661,0.107837 H 43.48266 l -0.145785,-0.145775 c -0.12829,-0.128289 -0.145712,-0.197786 -0.145173,-0.579093 9.89e-4,-0.723189 0.115264,-1.818933 0.268103,-2.571497 0.205817,-1.013421 0.264664,-1.625817 0.1883,-1.95953 -0.05994,-0.261951 -0.120727,-0.346189 -0.44703,-0.619545 -0.18842,-0.157847 -0.660629,-0.20735 -1.533013,-0.160712 -0.61999,0.03314 -0.780983,0.06351 -1.101262,0.207724 -0.475882,0.214277 -1.040245,0.747325 -1.155894,1.091757 -0.0192,0.05716 -0.05851,0.103939 -0.08736,0.103939 -0.02885,0 -0.05247,0.02822 -0.05247,0.06269 0,0.05422 -0.145882,0.314624 -0.763429,1.362765 -0.06736,0.114334 -0.16933,0.301425 -0.22659,0.415759 -0.05726,0.114334 -0.232063,0.421698 -0.388451,0.683032 -0.156387,0.261335 -0.284391,0.508562 -0.284454,0.549396 -6.3e-5,0.04083 -0.02633,0.07424 -0.05838,0.07424 -0.03205,0 -0.07503,0.06682 -0.09553,0.148485 -0.02049,0.08167 -0.06109,0.148486 -0.09022,0.148486 -0.02913,0 -0.05296,0.02798 -0.05296,0.06216 0,0.0515 -0.221477,0.454424 -0.634733,1.154753 -0.03877,0.0657 -0.126105,0.226363 -0.19408,0.357031 -0.239807,0.460979 -0.61831,1.007411 -0.834223,1.204343 -0.256763,0.234191 -0.786055,0.470877 -1.21758,0.544469 -0.590177,0.100647 -7.297458,0.06486 -7.401769,-0.03949 -0.180666,-0.18074 0.01493,-2.46183 0.296812,-3.461452 0.273632,-0.970376 0.823585,-1.953212 1.512168,-2.702435 0.233347,-0.253898 0.336406,-0.549135 0.336406,-0.963716 0,-0.492579 -0.108735,-0.720751 -0.502477,-1.054408 -0.273166,-0.231483 -0.294974,-0.238749 -0.706367,-0.235349 -0.233472,0.002 -0.611587,0.04638 -0.840255,0.09879 -0.228667,0.0524 -0.576124,0.126706 -0.772125,0.165119 -0.196,0.03841 -0.516728,0.106047 -0.712729,0.150297 -0.196001,0.04424 -0.530093,0.110451 -0.742428,0.147114 -0.212333,0.03666 -0.533062,0.101913 -0.712729,0.145002 -0.179667,0.04309 -0.522869,0.112888 -0.762671,0.155109 -0.597235,0.105152 -0.722184,0.21257 -0.722184,0.620863 0,0.366225 -0.123994,0.503906 -0.453814,0.503906 -0.350482,0 -0.377703,0.03417 -0.377703,0.474084 0,0.591896 0.04203,0.736513 0.239498,0.823918 0.127423,0.05641 0.226896,0.05958 0.395946,0.01263 0.374519,-0.104 0.474628,-0.08286 0.54354,0.114826 0.08826,0.253204 0.141267,0.2205 0.117946,-0.07278 l -0.01996,-0.250961 0.237577,-0.03959 c 0.215748,-0.03596 0.252205,-0.02245 0.396781,0.14702 0.185571,0.217525 0.314324,0.730266 0.404804,1.612076 0.03352,0.326668 0.0774,0.73426 0.09754,0.90576 0.03455,0.294393 0.02915,0.31182 -0.09668,0.31182 -0.110646,0 -0.126377,0.02268 -0.09266,0.133637 0.02234,0.0735 0.06489,0.320728 0.09455,0.549396 0.06961,0.536595 0.159605,1.024757 0.201377,1.092348 0.01811,0.0293 0.08672,0.3262 0.152469,0.659779 0.06575,0.333579 0.132568,0.62758 0.148485,0.653336 0.01592,0.02576 0.08274,0.319757 0.148485,0.653336 0.06575,0.333579 0.132568,0.62758 0.148486,0.653336 0.01592,0.02576 0.08105,0.3112 0.144738,0.634324 0.06369,0.323122 0.145524,0.66568 0.181855,0.76124 0.09381,0.246731 0.03468,0.40576 -0.221864,0.596766 -0.122935,0.09153 -0.26988,0.213687 -0.326546,0.271464 -0.05667,0.05777 -0.148483,0.130486 -0.204037,0.161576 -0.0913,0.0511 -0.0936,0.08995 -0.02392,0.404371 0.04239,0.191315 0.09629,0.414665 0.119761,0.496331 l 0.04268,0.148485 0.981154,0.0297 c 0.702839,0.02128 1.008655,0.05258 1.078108,0.110369 0.101552,0.08449 0.216883,0.423783 0.217448,0.6397 4.24e-4,0.161718 -0.141659,0.21433 -1.425129,0.527713 -0.450015,0.10988 -1.859735,0.472741 -2.880616,0.741468 -0.392002,0.103188 -0.873095,0.226117 -1.069096,0.273179 -0.196,0.04706 -0.490001,0.124164 -0.653335,0.171341 -0.629282,0.181761 -1.08796,0.26794 -1.36986,0.257374 -0.161247,-0.006 -0.440177,-0.01851 -0.619845,-0.0277 z m 15.729516,-9.195656 c 0.174205,-0.09578 0.381744,-0.255567 0.461201,-0.355073 0.221556,-0.277454 0.183087,-0.216228 0.542828,-0.863949 0.09979,-0.179667 0.30002,-0.527124 0.444963,-0.772124 0.144944,-0.245002 0.35258,-0.60582 0.461413,-0.801821 0.108832,-0.196002 0.246705,-0.436548 0.306381,-0.534548 0.05967,-0.098 0.127443,-0.218274 0.150592,-0.267274 0.02315,-0.049 0.15255,-0.276183 0.28756,-0.50485 0.836739,-1.417197 0.918113,-1.600377 0.9184,-2.067366 2e-4,-0.324984 -0.03011,-0.45902 -0.15445,-0.683033 -0.187317,-0.337463 -0.295881,-0.444387 -0.62896,-0.619445 -0.228632,-0.120164 -0.355667,-0.136429 -1.198484,-0.153447 -1.130341,-0.02282 -1.364302,0.04346 -1.573453,0.445738 -0.09359,0.180004 -0.08329,0.882931 0.01781,1.216061 0.04619,0.152183 0.06817,0.292501 0.04885,0.311819 -0.01932,0.01932 -0.297942,0.03512 -0.619166,0.03512 -0.538765,0 -0.584042,0.009 -0.584042,0.11542 0,0.178612 -0.228685,0.300338 -0.564245,0.300338 -0.511899,0 -0.378046,-0.211737 -2.046304,3.236981 -0.450552,0.931409 -0.477948,1.004239 -0.477948,1.270646 0,0.424927 0.256722,0.764006 0.638682,0.843573 0.122393,0.0255 0.904082,0.04074 1.737085,0.03387 l 1.514551,-0.01249 z M 54.817507,9.9199335 c 0.04083,-0.013358 0.07425,-0.065221 0.07425,-0.1152452 0,-0.074544 -0.09109,-0.090955 -0.504852,-0.090955 -0.493982,0 -0.548131,0.018547 -0.459395,0.1573453 0.07016,0.1097379 0.61286,0.1395284 0.890004,0.048852 z m 19.911895,-0.562565 c 0.100406,-0.064885 -0.0021,-0.080305 -0.475156,-0.071729 -0.387933,0.00703 -0.394596,0.00864 -0.296969,0.071729 0.04899,0.031663 0.222731,0.057575 0.386066,0.057575 0.163335,0 0.33706,-0.025911 0.386059,-0.057575 z m 0.0594,-0.5873319 c 0,-0.080735 -0.401857,-0.1381889 -0.660686,-0.09446 -0.126901,0.021442 -0.215675,0.06334 -0.197277,0.093113 0.04315,0.069842 0.857963,0.071121 0.857963,0.00134 z M 57.148728,8.2894046 c 0,-0.073646 -0.269256,-0.1440585 -0.35299,-0.092309 -0.126804,0.078369 -0.05722,0.1505719 0.14511,0.1505719 0.114334,0 0.20788,-0.026219 0.20788,-0.058267 z m 1.885765,-0.015979 c -0.01361,-0.040836 -0.100475,-0.074242 -0.193032,-0.074242 -0.09256,0 -0.17942,0.03341 -0.19303,0.074242 -0.0168,0.050398 0.0452,0.074243 0.19303,0.074243 0.147826,0 0.209829,-0.023848 0.193032,-0.074243 z m 1.974856,0.015979 c 0,-0.073646 -0.269258,-0.1440585 -0.352991,-0.092309 -0.126802,0.078369 -0.05722,0.1505719 0.145111,0.1505719 0.114335,0 0.20788,-0.026219 0.20788,-0.058267 z m 1.900612,0.00236 c 0,-0.093379 -0.117463,-0.135503 -0.270647,-0.097056 -0.215956,0.0542 -0.175432,0.1529453 0.06277,0.1529453 0.114335,0 0.20788,-0.025152 0.20788,-0.055888 z m 1.960009,-0.00236 c 0,-0.073646 -0.269258,-0.1440585 -0.352993,-0.092309 -0.1268,0.078369 -0.05722,0.1505719 0.145113,0.1505719 0.114334,0 0.20788,-0.026219 0.20788,-0.058267 z m 1.885764,-0.015979 c -0.01361,-0.040836 -0.08711,-0.074242 -0.163334,-0.074242 -0.07622,0 -0.14972,0.03341 -0.163334,0.074242 -0.01633,0.048973 0.03927,0.074243 0.163334,0.074243 0.124068,0 0.179662,-0.025266 0.163334,-0.074243 z M 39.661059,7.8067903 c 0.04206,-0.068054 -0.07632,-0.5149767 -0.162725,-0.6143386 -0.02698,-0.031033 -0.04906,-0.095747 -0.04906,-0.1438086 0,-0.048061 -0.04424,-0.1362616 -0.0983,-0.1960007 -0.09246,-0.1021704 -0.257429,-0.1086165 -2.779648,-0.1086165 -2.006301,0 -2.699293,0.017944 -2.752621,0.071273 -0.07539,0.075386 -0.102513,0.9467848 -0.03168,1.0176196 0.07209,0.072087 5.829161,0.04648 5.874035,-0.026126 z m 3.599259,-0.2596687 0.217706,-0.3208638 -0.141373,-0.092631 c -0.07775,-0.050947 -0.169401,-0.092631 -0.203661,-0.092631 -0.03426,0 -0.108699,-0.023764 -0.165424,-0.05281 C 42.478469,6.7377461 42.473993,6.7370653 41.438973,6.7556207 l -1.009701,0.018101 0.0071,0.2078797 c 0.0039,0.1143337 0.07593,0.3615619 0.160065,0.549396 l 0.152974,0.3415163 1.146605,-0.00228 1.146606,-0.00229 z m 5.870198,-1.00747 c 0,-0.014406 -0.02673,-0.04271 -0.05939,-0.062899 -0.03267,-0.020189 -0.05939,-0.0084 -0.05939,0.026192 0,0.034595 0.02673,0.0629 0.05939,0.0629 0.03267,0 0.05939,-0.011786 0.05939,-0.026192 z M 45.132872,4.6812084 c -0.01506,-0.057789 -0.02837,-0.024887 -0.02958,0.073112 -0.0012,0.098 0.01111,0.1452818 0.02738,0.1050702 0.01628,-0.040212 0.01726,-0.1203941 0.0022,-0.1781822 z m 1.306672,0 c -0.01506,-0.057789 -0.02837,-0.024887 -0.02958,0.073112 -0.0012,0.098 0.01111,0.1452818 0.02738,0.1050702 0.01627,-0.040212 0.01726,-0.1203941 0.0022,-0.1781822 z"
   id="path1" /></svg>
