<?xml version="1.0" encoding="UTF-8" standalone="no"?>
<!-- Generator: Adobe Illustrator 16.0.0, SVG Export Plug-In . SVG Version: 6.00 Build 0)  -->

<svg
   version="1.1"
   x="0px"
   y="0px"
   width="90px"
   height="32px"
   viewBox="0 0 90 32"
   enable-background="new 0 0 90 32"
   xml:space="preserve"
   id="svg1"
   sodipodi:docname="bizon.svg"
   inkscape:version="1.3 (0e150ed6c4, 2023-07-21)"
   xmlns:inkscape="http://www.inkscape.org/namespaces/inkscape"
   xmlns:sodipodi="http://sodipodi.sourceforge.net/DTD/sodipodi-0.dtd"
   xmlns="http://www.w3.org/2000/svg"
   xmlns:svg="http://www.w3.org/2000/svg"><defs
   id="defs1" /><sodipodi:namedview
   id="namedview1"
   pagecolor="#ffffff"
   bordercolor="#000000"
   borderopacity="0.25"
   inkscape:showpageshadow="2"
   inkscape:pageopacity="0.0"
   inkscape:pagecheckerboard="0"
   inkscape:deskcolor="#d1d1d1"
   showgrid="false"
   inkscape:zoom="8"
   inkscape:cx="32.0625"
   inkscape:cy="15.9375"
   inkscape:window-width="1920"
   inkscape:window-height="1009"
   inkscape:window-x="-8"
   inkscape:window-y="-8"
   inkscape:window-maximized="1"
   inkscape:current-layer="svg1" />&#10;&#10;<g
   id="guides">&#10;</g>&#10;<path
   style="fill:#ffffff;stroke-width:0.0831811"
   d="m 33.803068,28.280514 c -0.228749,-0.0685 -0.677927,-0.201701 -0.998174,-0.296001 -1.556977,-0.458468 -1.663859,-0.512956 -2.007692,-1.02352 -0.342109,-0.508003 -0.357384,-0.823738 -0.07989,-1.651429 0.109942,-0.327931 0.33754,-1.045418 0.505776,-1.594413 0.168234,-0.548995 0.357169,-1.147899 0.419854,-1.330898 0.100201,-0.292515 0.731921,-2.316868 0.973408,-3.119293 0.04818,-0.160123 0.138399,-0.432259 0.200467,-0.604746 0.264229,-0.734279 0.09478,-1.526532 -0.462177,-2.160869 -0.190565,-0.217043 -0.247284,-0.37052 -0.269827,-0.730147 l -0.02854,-0.455341 0.332726,-0.02635 c 0.182997,-0.0145 0.369849,-0.06285 0.415223,-0.107453 0.05361,-0.05271 -0.279764,-0.06063 -0.95203,-0.02263 -0.749937,0.04238 -1.241466,0.120333 -1.78677,0.283359 -0.662957,0.198197 -0.763197,0.209908 -0.844542,0.09866 -0.05236,-0.0716 -0.136289,-0.09904 -0.193944,-0.06341 -0.05591,0.03455 -0.370393,0.130945 -0.698864,0.21421 -0.328471,0.08327 -0.803093,0.211975 -1.054716,0.286022 -0.811481,0.238801 -0.948348,0.277572 -1.45567,0.412376 -0.274497,0.07294 -0.648812,0.183628 -0.83181,0.245976 -0.182999,0.06234 -0.501166,0.15951 -0.70704,0.215918 -0.205873,0.05641 -0.524041,0.150556 -0.707039,0.209219 -0.182999,0.05866 -0.650893,0.189117 -1.039765,0.289896 -0.388871,0.100778 -0.856765,0.231219 -1.039763,0.289867 -0.182999,0.05864 -0.482451,0.148658 -0.66545,0.200022 -0.182998,0.05136 -1.043922,0.301749 -1.913166,0.556408 -0.869243,0.25466 -1.842461,0.532197 -2.162708,0.61675 -0.320249,0.08455 -0.694563,0.19025 -0.831812,0.234884 -0.137249,0.04464 -0.399269,0.121233 -0.582268,0.17022 -0.182998,0.04898 -0.650892,0.182862 -1.039764,0.297502 -0.388872,0.114642 -1.305943,0.379584 -2.037938,0.588761 -0.731994,0.209178 -1.649065,0.474418 -2.037938,0.589423 -0.3888709,0.115004 -0.8567645,0.249198 -1.0397633,0.298207 -0.1829984,0.04901 -0.5011662,0.14053 -0.7070395,0.203382 -0.3185458,0.09725 -1.5480413,0.446287 -2.7865677,0.791074 -0.1829985,0.05095 -0.4324853,0.128943 -0.5544148,0.173328 -0.1219296,0.04439 -0.3652344,0.117019 -0.5406774,0.161406 -0.1754429,0.04439 -0.4312814,0.11278 -0.5685303,0.151986 -0.1372489,0.0392 -0.4741324,0.131918 -0.7486301,0.206026 -0.2744978,0.0741 -0.5365183,0.183705 -0.5822679,0.243546 -0.092537,0.121042 -1.046161,0.234078 -1.1956002,0.141719 -0.1170126,-0.07231 -0.1337879,-0.514014 -0.051133,-1.346421 0.043454,-0.437638 0.034277,-0.650527 -0.029752,-0.6901 -0.067545,-0.04174 -0.066279,-0.09936 0.00466,-0.212977 0.074837,-0.119834 0.073644,-0.184217 -0.00519,-0.279188 -0.081475,-0.09817 -0.08045,-0.131381 0.00499,-0.162248 0.084284,-0.03045 0.086318,-0.07472 0.00944,-0.205369 -0.070515,-0.119825 -0.072671,-0.191898 -0.00769,-0.256885 0.064988,-0.06499 0.060456,-0.126327 -0.016143,-0.218627 -0.078941,-0.09512 -0.082518,-0.157168 -0.013835,-0.239928 0.050953,-0.0614 0.066259,-0.138013 0.034011,-0.170261 -0.054254,-0.05426 -0.1027459,-0.806625 -0.119884,-1.860023 -0.00392,-0.240185 -0.034504,-0.436701 -0.067996,-0.436701 -0.033492,0 -0.061208,-0.102936 -0.061601,-0.228748 -0.00193,-0.6177 -0.052244,-1.110301 -0.1175622,-1.150671 -0.03992,-0.02467 -0.049669,-0.13614 -0.021667,-0.247711 0.028002,-0.111569 0.018778,-0.202854 -0.02049,-0.202854 -0.0392746,0 -0.0761613,-0.102936 -0.0819773,-0.228748 -0.0251539,-0.544222 -0.0847988,-0.987287 -0.14629763,-1.086794 -0.0364333,-0.05895 -0.0687609,-0.273681 -0.0718372,-0.477176 -0.003033,-0.203495 -0.0324181,-0.369991 -0.0652559,-0.369991 -0.0328399,0 -0.0760742,-0.197371 -0.0960789,-0.438602 -0.0200034,-0.241229 -0.0975914,-0.561316 -0.17241518,-0.711304 -0.0748231,-0.149987 -0.1177106,-0.320477 -0.0953043,-0.378866 0.0224057,-0.05839 0.006255,-0.196841 -0.0358744,-0.307672 -0.0546001,-0.143613 -0.0446383,-0.231382 0.0346832,-0.305478 0.13640507,-0.127422 1.17329581,-0.141516 1.21496281,-0.01652 0.02019,0.06058 0.7828329,0.04867 2.4815698,-0.03872 1.3488306,-0.06939 2.8080185,-0.125769 3.2426399,-0.125273 0.4346213,4.96e-4 1.7072926,-0.03766 2.8281585,-0.0848 1.120866,-0.04713 3.273178,-0.124557 4.782915,-0.172053 1.509737,-0.0475 4.148658,-0.141499 5.864269,-0.208895 1.715611,-0.0674 4.23288,-0.165652 5.593931,-0.218344 1.843122,-0.07136 2.474638,-0.121769 2.474638,-0.1975504 0,-0.069681 0.268668,-0.1206682 0.852607,-0.1617949 0.468933,-0.033027 0.899396,-0.09858 0.956583,-0.1456727 0.08025,-0.066091 0.103976,-0.00631 0.103976,0.2618436 V 10.29051 l 0.388608,-0.02536 c 0.499341,-0.03257 0.600357,-0.233305 0.11741,-0.233305 -0.321092,0 -0.339655,-0.01349 -0.339655,-0.2467671 0,-0.1762318 0.111752,-0.3723865 0.390962,-0.6862444 l 0.39095,-0.4394745 -0.327771,-0.04159 C 30.880145,8.5639495 30.84686,8.3893005 31.186931,8.0019808 c 0.247372,-0.2817416 0.292546,-0.2993547 0.77397,-0.3017766 0.510064,-0.00257 0.51195,-0.00348 0.802399,-0.3889899 0.160124,-0.2125299 0.334302,-0.4296653 0.387061,-0.4825232 0.05276,-0.052858 0.29408,-0.3363485 0.53627,-0.629979 0.242188,-0.2936304 0.479758,-0.561374 0.527931,-0.5949856 0.04817,-0.033611 5.295563,-0.061685 11.660864,-0.062386 L 57.4487,5.5400698 57.491568,5.3158094 C 57.560024,4.9577057 57.3279,4.7140054 56.91536,4.7108778 c -0.343873,-0.00261 -0.34488,-0.00354 -0.381744,-0.3561336 -0.02033,-0.1944359 -0.02654,-0.3668477 -0.01377,-0.3831374 0.01275,-0.016289 0.120732,0.067932 0.239958,0.1871575 0.217837,0.2178375 0.570918,0.2885871 0.666709,0.133594 0.08156,-0.131976 0.509191,-0.096576 0.632818,0.052386 0.09984,0.1203003 0.330689,0.1312325 2.049866,0.097074 l 1.93735,-0.038492 0.231558,-0.2218459 C 62.40546,4.0594647 62.548163,3.959634 62.595221,3.959634 c 0.04706,0 0.213453,0.1274201 0.369764,0.2831558 0.156311,0.1557357 0.377781,0.2961038 0.492155,0.3119292 0.195512,0.027051 0.209424,0.062366 0.232549,0.5902461 l 0.0246,0.5614726 h 6.270849 6.27085 l 0.02632,-0.2280237 c 0.02402,-0.2080563 0.06616,-0.2337191 0.481184,-0.2930637 0.538872,-0.077051 0.668085,-0.041126 0.668085,0.1857522 0,0.094744 0.05481,0.1689729 0.124771,0.1689729 0.06862,0 0.124773,0.037432 0.124773,0.083181 0,0.050849 0.389337,0.083181 1.001651,0.083181 0.886675,0 1.022149,-0.019097 1.18022,-0.1663623 0.184988,-0.172342 0.729468,-0.2344291 0.729468,-0.083181 0,0.04893 0.291134,0.083181 0.707039,0.083181 0.415905,0 0.707039,0.034251 0.707039,0.083181 0,0.045749 0.03743,0.083181 0.08319,0.083181 0.11395,0 0.105582,-0.228213 -0.0098,-0.2666663 -0.0658,-0.021935 -0.05525,-0.1636769 0.03614,-0.4852233 0.07101,-0.2498302 0.173125,-0.6226786 0.226923,-0.8285518 0.0538,-0.2058733 0.140469,-0.4018155 0.1926,-0.4354271 0.05213,-0.033612 0.307298,-0.061685 0.567038,-0.062386 0.411894,-0.00111 0.494286,0.026739 0.644652,0.2178967 0.165047,0.2098192 0.1724,0.3180666 0.1724,2.5370244 v 2.3178538 h 0.207953 c 0.187157,0 0.207952,0.033273 0.207952,0.3327245 v 0.3327245 l 0.811017,1.693e-4 c 0.446059,9.31e-5 1.129183,-0.053671 1.518055,-0.1194762 1.062306,-0.1797642 2.916155,-0.3250534 3.00565,-0.2355579 0.0421,0.042096 0.06617,0.6538446 0.05351,1.3594423 l -0.02304,1.282903 -0.914993,-0.02543 c -0.503246,-0.01399 -1.33801,-0.07949 -1.855038,-0.145567 -1.29523,-0.165529 -2.595152,-0.163207 -2.595152,0.0046 0,0.06932 -0.07394,0.124771 -0.166362,0.124771 -0.0915,0 -0.166363,-0.03743 -0.166363,-0.08319 0,-0.04753 -0.249543,-0.08318 -0.582268,-0.08318 -0.462117,0 -0.582268,0.02575 -0.582268,0.124771 0,0.08715 -0.0878,0.124772 -0.291133,0.124772 -0.203331,0 -0.291134,-0.03763 -0.291134,-0.124772 0,-0.102152 -0.143256,-0.124771 -0.79022,-0.124771 -0.787449,0 -0.790221,7.32e-4 -0.790221,0.207952 0,0.180841 0.03669,0.207953 0.281432,0.207953 0.221541,0 0.292107,0.03983 0.331588,0.187157 0.02758,0.102937 0.05067,1.76864 0.05129,3.701561 0.0011,3.469285 -10e-4,3.514402 -0.166653,3.514402 -0.180405,0 -1.473689,0.424412 -2.064203,0.677401 -0.198228,0.08493 -0.542294,0.15441 -0.76459,0.15441 h -0.404175 l -0.111264,-0.39511 c -0.08587,-0.304948 -0.154136,-0.40127 -0.299136,-0.422105 -0.10333,-0.01485 -0.232882,-0.09907 -0.287894,-0.187158 -0.09803,-0.156978 -0.356765,-0.160162 -13.01468,-0.160162 -8.554316,0 -12.914655,0.02808 -12.914655,0.08318 0,0.04575 -0.140589,0.08319 -0.31242,0.08319 -0.272859,0 -0.327333,-0.03423 -0.430195,-0.270339 -0.06477,-0.148685 -0.209094,-0.416568 -0.320706,-0.595292 -0.546362,-0.874905 -0.600302,-1.036908 -0.600302,-1.802949 0,-0.657582 -0.01664,-0.735915 -0.166362,-0.783437 -0.238331,-0.07564 -0.219313,-0.374315 0.02384,-0.374315 0.13125,0 0.285931,-0.128232 0.499087,-0.413746 0.169889,-0.227559 0.308888,-0.433433 0.308888,-0.457496 0,-0.02406 -0.284241,-0.04375 -0.631645,-0.04375 -0.561691,0 -0.636464,0.01843 -0.675151,0.166361 -0.02393,0.0915 -0.07657,0.166363 -0.116984,0.166363 -0.09821,0 -0.09373,0.518165 0.0068,0.782482 0.04564,0.120032 0.171189,0.233871 0.291134,0.263976 0.234828,0.05894 0.258226,0.183329 0.111047,0.590344 -0.07801,0.215724 -0.07743,0.384653 0.0026,0.772255 0.115732,0.560323 0.03458,0.804285 -0.295416,0.888083 -0.148992,0.03784 -0.22623,0.185936 -0.399655,0.766337 -0.118234,0.395691 -0.228686,0.756869 -0.245449,0.802618 -0.01676,0.04575 -0.03343,-0.144964 -0.03704,-0.423808 -0.0073,-0.567457 -0.08883,-0.686158 -0.624719,-0.910065 -0.375653,-0.156971 -1.128623,-0.09854 -1.128623,0.08758 0,0.161715 -0.410061,0.622435 -0.553994,0.622435 -0.07392,0 -0.0012,-0.115185 0.181663,-0.287616 0.273645,-0.258082 0.300187,-0.320009 0.258469,-0.603064 -0.02557,-0.173495 -0.07107,-0.830129 -0.101119,-1.459186 -0.05299,-1.109301 -0.04957,-1.143741 0.113031,-1.143741 0.13606,0 0.174543,-0.06663 0.20419,-0.353519 0.02009,-0.194437 0.01994,-0.400529 -3.5e-4,-0.457986 -0.05785,-0.163855 -3.85908,-0.04246 -3.958546,0.126419 -0.03956,0.06716 -0.252738,0.321773 -0.473746,0.565817 -0.254647,0.281192 -0.422348,0.553085 -0.457847,0.74231 -0.122196,0.651364 0.31972,1.457784 0.990759,1.807961 0.235085,0.122678 0.301107,0.189889 0.206624,0.210344 -0.180935,0.03918 -0.891868,-0.324305 -1.12344,-0.574379 -0.352882,-0.38108 -0.631679,-1.071323 -0.674511,-1.66996 -0.04856,-0.678717 -0.178596,-0.812913 -0.787704,-0.812913 -0.27883,0 -0.414513,-0.03779 -0.447887,-0.124771 -0.02954,-0.07699 -0.155974,-0.124772 -0.330115,-0.124772 -0.27435,0 -0.386996,0.117578 -0.179051,0.186893 0.07467,0.02489 0.115736,0.446216 0.148618,1.524987 0.05105,1.674672 0.121294,1.929922 0.6514,2.36688 0.203154,0.167457 0.254419,0.246659 0.159656,0.246659 -0.194372,0 -0.75157,-0.690093 -0.858518,-1.063275 -0.08626,-0.301015 -0.09133,-0.304251 -0.190994,-0.122057 -0.06401,0.117023 -0.180452,0.187158 -0.31072,0.187158 -0.235629,0 -0.821218,0.276238 -0.923229,0.435512 -0.08025,0.125299 -0.234294,0.532704 -0.417177,1.103339 -0.353136,1.101854 -0.511035,1.611322 -0.60584,1.954756 -0.05683,0.205874 -0.153241,0.505325 -0.214244,0.66545 -0.061,0.160123 -0.193186,0.57187 -0.293738,0.914992 -0.100552,0.343122 -0.266606,0.885879 -0.36901,1.206126 -0.611517,1.912401 -0.617925,1.955476 -0.382954,2.574174 0.216524,0.570129 0.06169,1.004966 -0.452777,1.271556 -0.303006,0.157015 -1.136115,0.185672 -1.575201,0.05418 z M 3.4419566,20.543042 c 0.2287481,-0.0662 0.5282001,-0.154148 0.665449,-0.195445 0.1372489,-0.0413 0.3805536,-0.11142 0.5406773,-0.155833 0.1601237,-0.04442 0.4970073,-0.141327 0.7486302,-0.215366 0.2516229,-0.07404 0.7195167,-0.207028 1.039764,-0.295531 0.3202474,-0.08851 0.7881412,-0.221494 1.0397641,-0.295531 0.2516229,-0.07404 0.5697907,-0.165639 0.7070396,-0.203556 0.1372488,-0.03791 0.4554167,-0.129825 0.7070396,-0.204241 0.7756403,-0.229389 0.9399533,-0.276011 1.4556696,-0.413047 0.274498,-0.07294 0.648813,-0.183627 0.831812,-0.245974 0.182997,-0.06235 0.48245,-0.154503 0.665448,-0.20479 0.182999,-0.05029 0.669608,-0.186748 1.081355,-0.303248 0.411747,-0.1165 0.898356,-0.252519 1.081354,-0.302263 0.182999,-0.04974 0.482451,-0.137872 0.66545,-0.195838 0.182998,-0.05797 0.48245,-0.145956 0.665449,-0.195532 0.182998,-0.04957 0.650892,-0.183943 1.039763,-0.298595 0.388873,-0.114652 0.987777,-0.286846 1.330899,-0.382652 0.343122,-0.09581 0.7923,-0.227688 0.998173,-0.293071 0.330151,-0.104852 1.302265,-0.383659 2.16271,-0.620276 0.646951,-0.177906 2.386567,-0.671837 2.620204,-0.743956 0.13725,-0.04237 0.570287,-0.17334 0.962307,-0.291053 0.650644,-0.195371 0.728254,-0.241586 0.890511,-0.530283 0.09776,-0.173943 0.276377,-0.369045 0.396925,-0.433559 0.120548,-0.06452 0.292782,-0.261577 0.382743,-0.437914 0.103623,-0.203119 0.253278,-0.351888 0.408367,-0.405953 0.184722,-0.06439 0.244803,-0.137446 0.244803,-0.297658 v -0.212319 l -0.811017,0.05072 c -0.960395,0.06006 -4.246912,0.191216 -7.694254,0.307044 -1.361051,0.04573 -3.588226,0.120497 -4.949277,0.166152 -1.361051,0.04565 -3.8034568,0.140281 -5.4275681,0.210284 -1.6241115,0.07001 -3.3872592,0.126231 -3.9181066,0.124948 -0.5308466,-0.0013 -1.1967268,0.02187 -1.4797329,0.05145 l -0.5145578,0.05378 0.05058,0.382919 c 0.027816,0.210606 0.084526,0.570077 0.1260174,0.798825 0.3127644,1.724281 0.4562385,3.099903 0.5449635,5.225092 0.045843,1.09814 0.066339,1.226418 0.1880971,1.177512 0.075156,-0.03019 0.3238035,-0.109047 0.5525516,-0.175246 z M 26.35472,13.938889 c 0.341121,-0.09071 0.654158,-0.198863 0.695637,-0.240343 0.06454,-0.06454 0.01006,-0.201073 -0.328624,-0.8235 -0.04015,-0.07379 -0.36324,0.208748 -0.362391,0.316906 5.43e-4,0.06906 -0.195973,0.302513 -0.436701,0.518793 -0.240728,0.216278 -0.381538,0.393198 -0.312914,0.393152 0.06862,-4.4e-5 0.40387,-0.0743 0.744993,-0.165008 z m 24.691786,-0.773517 c 0.02481,-0.469149 -0.08472,-0.641855 -0.18047,-0.284563 -0.09217,0.343939 -0.06064,0.827588 0.05155,0.790581 0.06267,-0.02067 0.113888,-0.221706 0.128923,-0.506018 z m 26.199396,-0.887625 c 0.0878,-0.140592 0.193979,-0.166363 0.685457,-0.166363 h 0.581564 V 11.86675 c 0,-0.134549 0.03743,-0.267769 0.08318,-0.296043 0.127712,-0.07893 0.09866,-0.374315 -0.03681,-0.374315 -0.0817,0 -0.128152,0.112818 -0.145567,0.35352 l -0.02558,0.353519 -7.860616,0.04391 c -5.881521,0.03285 -7.933778,0.06951 -8.151201,0.145567 -0.159822,0.05591 -0.393769,0.101658 -0.519882,0.101658 -0.126114,0 -0.229297,0.03716 -0.229297,0.08258 0,0.0536 1.919684,0.09031 5.469159,0.104584 3.008038,0.0121 6.498878,0.03109 7.757425,0.04219 2.209547,0.0195 2.291843,0.01447 2.392164,-0.146174 z M 89.02853,11.145901 c 0.200333,-0.07688 0.160357,-0.425905 -0.06576,-0.574055 -0.291966,-0.191304 -2.407511,-0.06976 -2.447738,0.140641 -0.015,0.07841 0.05409,0.183226 0.15708,0.238344 0.300325,0.16073 2.065178,0.306829 2.356412,0.19507 z m -0.0012,-1.056319 c 0.177407,-0.1297198 0.151821,-0.4602359 -0.04518,-0.5836741 -0.09419,-0.059018 -0.441476,-0.053088 -1.122946,0.019175 -1.13715,0.1205816 -1.360899,0.1893079 -1.360899,0.4180075 0,0.1445676 0.06757,0.1678486 0.561472,0.1934456 1.361235,0.07054 1.821892,0.05955 1.96755,-0.04696 z M 69.778904,8.9089107 V 8.3682334 H 68.78963 c -0.825355,0 -0.99764,0.021801 -1.039764,0.1315748 -0.08934,0.2328311 -0.05401,0.5750203 0.079,0.7649093 0.120397,0.1718893 0.193407,0.1848706 1.039764,0.1848706 h 0.910276 z M 79.839149,9.2243179 C 80.042933,9.0054655 80.05845,8.7237053 79.880694,8.4699228 79.762429,8.3010756 79.683123,8.2850523 78.965702,8.2850523 h -0.785505 v 0.5905442 0.5905443 l 0.74396,-0.029072 c 0.638617,-0.024955 0.768178,-0.05508 0.914992,-0.2127509 z m 1.276365,-0.4193836 c 0.02418,-0.2630603 0.07048,-0.5625123 0.102881,-0.665449 0.03469,-0.1102025 0.02405,-0.1871575 -0.02588,-0.1871575 -0.0767,0 -0.433708,1.0205741 -0.433708,1.2398344 0,0.050085 0.07037,0.091063 0.156364,0.091063 0.129805,0 0.163834,-0.081243 0.200337,-0.4782915 z m 1.624121,-0.6238584 c -0.02606,-0.2703256 -0.02609,-0.2703398 -0.545948,-0.2951031 -0.424454,-0.020219 -0.519882,-0.00113 -0.519882,0.1039764 0,0.258106 0.313902,0.4614653 0.71231,0.4614653 0.378142,0 0.379486,-0.00103 0.35352,-0.2703386 z m 0.662466,0.1408503 c 0.101681,-0.071218 0.18487,-0.2046005 0.18487,-0.2964041 0,-0.138135 -0.04649,-0.1624214 -0.269657,-0.1408504 -0.273983,0.026484 -0.378262,0.1924992 -0.280666,0.44683 0.05876,0.1531357 0.13604,0.1511108 0.365453,-0.00958 z M 82.731057,7.3700599 c 0.02393,-0.091499 0.09092,-0.1663622 0.148874,-0.1663622 0.05796,0 0.124945,0.074863 0.148874,0.1663622 0.06492,0.2482691 0.558166,0.2379961 0.558166,-0.011626 0,-0.2860699 -0.240019,-0.3987501 -0.855532,-0.4016351 -0.61874,-0.0029 -0.974453,0.1514487 -0.974453,0.4228271 0,0.1349193 0.06491,0.1567956 0.465284,0.1567956 0.395327,0 0.471824,-0.025013 0.508787,-0.1663616 z M 81.722609,6.4006945 c 0.108856,-0.4047161 0.198553,-0.7452055 0.199329,-0.756643 7.76e-4,-0.011437 -0.07345,-0.020795 -0.164952,-0.020795 -0.176183,0 -0.223656,0.1211347 -0.08182,0.2087913 0.04649,0.028736 0.06328,0.086643 0.0373,0.1286821 -0.04125,0.066732 -0.133797,0.3833383 -0.339043,1.1597868 -0.0431,0.1630584 -0.03271,0.1872355 0.04815,0.1119892 0.05671,-0.05278 0.192185,-0.4270949 0.30104,-0.8318113 z M 58.7782,5.0214471 c 0.178905,-0.1445501 0.115603,-0.2114194 -0.231475,-0.2445186 -0.260303,-0.024824 -0.37228,0.00722 -0.499847,0.143001 -0.09042,0.096245 -0.147284,0.1921049 -0.126367,0.2130212 0.0655,0.065489 0.748535,-0.023309 0.857689,-0.1115036 z m 2.000506,0.0029 C 60.974014,4.8290398 60.869276,4.79144 60.129893,4.79144 c -0.411746,0 -0.748629,0.032207 -0.748629,0.071574 0,0.039365 0.233947,0.1090174 0.519882,0.1547822 0.734604,0.1175757 0.7663,0.1178123 0.87756,0.00656 z m 1.929802,-0.7319938 c 0,-0.092424 -0.05545,-0.1663623 -0.124772,-0.1663623 -0.06932,0 -0.124771,0.073939 -0.124771,0.1663623 0,0.092423 0.05545,0.1663622 0.124771,0.1663622 0.06932,0 0.124772,-0.073939 0.124772,-0.1663622 z"
   id="path1" /><path
   style="fill:#ffffff;stroke-width:0.0147045"
   d="m 41.016199,19.347871 c -0.0069,-0.0261 -0.02006,-0.02941 -0.117637,-0.02941 -0.09758,0 -0.11081,-0.0033 -0.117635,-0.02941 -0.0065,-0.02489 -0.02006,-0.02941 -0.08823,-0.02941 -0.06817,0 -0.08172,-0.0045 -0.08823,-0.02941 -0.0058,-0.0223 -0.02006,-0.02941 -0.05882,-0.02941 -0.03876,0 -0.05299,-0.0071 -0.05882,-0.02941 -0.0059,-0.02253 -0.02006,-0.02941 -0.06054,-0.02941 -0.03716,0 -0.05285,-0.0065 -0.05285,-0.02206 0,-0.01213 0.005,-0.02128 0.01103,-0.02032 0.04827,0.0076 0.06555,-0.0036 0.05889,-0.0385 -0.0053,-0.02785 -7.99e-4,-0.03675 0.01862,-0.03675 0.01411,0 0.02911,0.01323 0.03334,0.0294 0.0065,0.02489 0.02006,0.02941 0.08823,0.02941 0.06817,0 0.08172,0.0045 0.08823,0.02941 0.0065,0.02499 0.02006,0.02941 0.08995,0.02941 0.07244,0 0.08225,0.0035 0.08225,0.02941 0,0.02801 0.0098,0.02941 0.205862,0.02941 0.196059,0 0.205863,0.0014 0.205863,0.02941 0,0.02764 0.0098,0.02941 0.163126,0.02941 0.150759,0 0.163709,-0.0022 0.170816,-0.02941 0.0075,-0.02886 0.02006,-0.02941 0.676406,-0.02941 0.65635,0 0.668858,-5.44e-4 0.676407,-0.02941 0.0075,-0.02884 0.02006,-0.02941 0.639645,-0.02941 0.619588,0 0.632105,-5.76e-4 0.639645,-0.02941 0.0075,-0.02872 0.02006,-0.02941 0.535337,-0.02941 0.517843,0 0.527647,-5.47e-4 0.527647,-0.02941 0,-0.02745 0.0098,-0.0294 0.147044,-0.0294 0.137242,0 0.147045,-0.0019 0.147045,-0.02941 0,-0.02614 0.0098,-0.02941 0.08823,-0.02941 0.07843,0 0.08823,-0.0032 0.08823,-0.02941 0,-0.0245 0.0098,-0.02941 0.05882,-0.02941 0.04902,0 0.05882,-0.0049 0.05882,-0.02941 0,-0.0245 0.0098,-0.02941 0.05882,-0.02941 0.04902,0 0.05882,-0.0049 0.05882,-0.02941 0,-0.01946 0.0098,-0.02941 0.02896,-0.02941 0.02742,0 0.02701,0.0029 -0.0077,0.05405 -0.04165,0.06138 -0.04027,0.08358 0.0057,0.09033 0.05218,0.0077 0.03627,0.03206 -0.0209,0.03206 -0.04048,0 -0.05464,0.0069 -0.06054,0.02941 -0.0058,0.0223 -0.02006,0.02941 -0.05882,0.02941 -0.03876,0 -0.05299,0.0071 -0.05882,0.02941 -0.0065,0.02489 -0.02006,0.02941 -0.08823,0.02941 -0.06817,0 -0.08172,0.0045 -0.08823,0.02941 -0.0065,0.02489 -0.02006,0.02941 -0.08823,0.02941 -0.06817,0 -0.08172,0.0045 -0.08823,0.02941 -0.0074,0.02837 -0.02006,0.02941 -0.357681,0.02941 -0.192495,0 -0.360457,0.004 -0.37325,0.0089 -0.01279,0.0049 -0.02326,0.01814 -0.02326,0.02941 0,0.01719 -0.100572,0.02048 -0.62494,0.02048 -0.605334,0 -0.625864,9.27e-4 -0.654349,0.02941 -0.02849,0.02849 -0.04902,0.02941 -0.655726,0.02941 -0.613951,0 -0.62647,5.8e-4 -0.634009,0.02941 -0.0075,0.02875 -0.02006,0.02941 -0.56303,0.02941 -0.542974,0 -0.555512,-6.55e-4 -0.563032,-0.02941 z"
   id="path2" /></svg>
