<?xml version="1.0" encoding="UTF-8" standalone="no"?>
<!-- Generator: Adobe Illustrator 16.0.0, SVG Export Plug-In . SVG Version: 6.00 Build 0)  -->

<svg
   version="1.1"
   x="0px"
   y="0px"
   width="44.875px"
   height="32px"
   viewBox="0 0 44.875 32"
   enable-background="new 0 0 44.875 32"
   xml:space="preserve"
   id="svg1"
   sodipodi:docname="glock.svg"
   inkscape:version="1.3 (0e150ed6c4, 2023-07-21)"
   xmlns:inkscape="http://www.inkscape.org/namespaces/inkscape"
   xmlns:sodipodi="http://sodipodi.sourceforge.net/DTD/sodipodi-0.dtd"
   xmlns="http://www.w3.org/2000/svg"
   xmlns:svg="http://www.w3.org/2000/svg"><defs
   id="defs1" /><sodipodi:namedview
   id="namedview1"
   pagecolor="#ffffff"
   bordercolor="#000000"
   borderopacity="0.25"
   inkscape:showpageshadow="2"
   inkscape:pageopacity="0.0"
   inkscape:pagecheckerboard="0"
   inkscape:deskcolor="#d1d1d1"
   showgrid="false"
   inkscape:zoom="22.627417"
   inkscape:cx="23.489203"
   inkscape:cy="17.52299"
   inkscape:window-width="1920"
   inkscape:window-height="1009"
   inkscape:window-x="-8"
   inkscape:window-y="-8"
   inkscape:window-maximized="1"
   inkscape:current-layer="svg1" />&#10;&#10;<g
   id="guides">&#10;</g>&#10;<path
   style="fill:#ffffff;stroke-width:0.0416042"
   d="M 10.360233,31.996684 C 10.177176,31.97875 9.2878867,31.905142 8.384037,31.833128 7.4801864,31.761111 6.6751463,31.684565 6.5950582,31.663028 6.5149737,31.641489 5.5414333,31.550116 4.4316426,31.459972 L 2.4138415,31.296074 2.320232,31.187447 c -0.051485,-0.05975 -0.093609,-0.15556 -0.093609,-0.212922 0,-0.117553 0.1717686,-0.653721 0.2158452,-0.673752 0.015745,-0.0072 0.1062934,-0.246068 0.2012196,-0.530916 0.1270278,-0.381176 0.1963563,-0.530412 0.2626026,-0.565276 0.150872,-0.0794 0.2033077,-0.201329 0.086582,-0.201329 -0.036209,0 -0.1992975,-0.05857 -0.3624196,-0.130173 l -0.2965859,-0.130172 -0.2734562,0.08807 c -0.2435373,0.07844 -0.3027363,0.08292 -0.5410725,0.04093 C 1.2143845,28.8182 1.1828789,28.794449 1.0404539,28.510882 0.95990695,28.350516 0.93689418,28.240629 0.93689418,28.016376 V 27.728052 L 0.66866541,27.510426 C 0.43412123,27.32013 0.39710711,27.270597 0.37392452,27.116004 c -0.0264485,-0.176369 0.0483331,-0.524936 0.17081959,-0.79622 0.0309945,-0.06865 0.13902164,-0.368197 0.24005999,-0.665666 0.19023491,-0.560075 0.3598444,-0.982557 0.4095608,-1.020178 0.015756,-0.01192 0.087909,-0.171059 0.1603402,-0.353636 0.072431,-0.182576 0.1873138,-0.46301 0.2552958,-0.623185 0.1614833,-0.38048 0.7880955,-1.658149 0.8263648,-1.684968 0.016327,-0.01144 0.1653262,-0.292269 0.3311109,-0.624063 0.1657849,-0.331793 0.315117,-0.61262 0.3318494,-0.624062 0.016732,-0.01144 0.1595323,-0.282908 0.3173332,-0.60326 0.157801,-0.320352 0.3136964,-0.610541 0.3464345,-0.644864 0.032738,-0.03432 0.1297357,-0.212181 0.2155504,-0.39524 0.085815,-0.183058 0.2564824,-0.510691 0.3792617,-0.728073 0.2182105,-0.386343 0.9474239,-1.843598 0.9474239,-1.893325 0,-0.04285 0.3089411,-0.74734 0.3373822,-0.76934 0.01479,-0.01144 0.1531419,-0.320352 0.3074476,-0.686469 0.1543056,-0.366115 0.2966808,-0.685914 0.3163895,-0.710661 0.097245,-0.122109 0.4232003,-0.954291 0.4981748,-1.271869 0.074257,-0.314544 0.082871,-0.461547 0.068242,-1.164916 C 6.8184021,11.155666 6.8026432,11.002385 6.7116913,10.676489 6.6175302,10.339082 6.3985618,9.9137137 6.2337283,9.7479906 6.2036694,9.717769 6.1280193,9.6054381 6.0656168,9.4983657 5.945972,9.2930741 5.8507355,9.1971601 5.679767,9.1097714 5.5633099,9.0502452 5.2652075,8.8353917 5.2013193,8.7649349 5.102316,8.6557529 4.427022,8.234799 4.2903304,8.1970566 4.2078764,8.1742937 4.1404136,8.137824 4.1404136,8.1160119 c 0,-0.021803 -0.019124,-0.039651 -0.042496,-0.039651 -0.08696,0 -0.3810479,-0.2266614 -0.4386737,-0.3380971 -0.032827,-0.063478 -0.059684,-0.1760662 -0.059684,-0.2501915 0,-0.1683308 0.091316,-0.6318226 0.1300197,-0.6599364 0.015827,-0.011494 0.059559,-0.1706324 0.097183,-0.3536348 0.1374265,-0.6684361 0.199522,-0.9163608 0.2430395,-0.9703677 0.030987,-0.038456 0.03121,-0.063667 7.369e-4,-0.08321 C 3.989388,5.3688924 3.9689951,5.2200129 4.035465,5.1648481 4.107345,5.1051921 4.120697,4.8697633 4.055875,4.8049427 4.004479,4.7535427 4.02118,2.5723345 4.07407,2.4285958 4.101278,2.3546498 4.093611,2.3349838 4.037575,2.3349838 c -0.063432,0 -0.06945,-0.04883 -0.056857,-0.4614019 0.013004,-0.4260883 0.021599,-0.4674833 0.1123005,-0.5408546 0.066722,-0.05397 0.1634475,-0.079454 0.30163,-0.079454 0.1982768,0 0.2034117,-0.0032 0.2034117,-0.1248119 0,-0.096677 0.018578,-0.124813 0.082415,-0.124813 0.090792,0 0.101639,-0.0308118 0.1684032,-0.47844768 C 4.9180754,0.06126178 4.8932204,0.088357 5.2495929,0.088357 c 0.2686151,0 1.0900125,0.13219154 1.1845852,0.19064084 0.017312,0.0107037 0.1355514,0.23429141 0.262747,0.49686608 L 6.9281894,1.2532731 h 0.8111318 0.8111317 v -0.098916 c 0,-0.1419924 0.092652,-0.19927156 0.2983562,-0.18445401 0.163347,0.0117674 0.1816411,0.0242974 0.2011016,0.13775521 l 0.021407,0.1248129 4.2016113,0.00988 c 3.172395,0.00744 4.224905,0.022113 4.296701,0.059826 0.07364,0.038682 0.125925,0.038804 0.231777,5.271e-4 0.203918,-0.073739 9.705611,-0.071216 9.73267,0.00254 0.01525,0.0416 0.0301,0.0416 0.07419,0 0.04365,-0.041177 1.512657,-0.052003 7.057104,-0.052003 3.851087,0 7.001787,-0.014046 7.001555,-0.031207 -2.33e-4,-0.017162 -0.07512,-0.062574 -0.166417,-0.1009203 L 41.334522,1.051444 V 0.63231237 c 0,-0.41391888 0.0012,-0.41913044 0.0992,-0.41913044 0.107837,0 1.612589,0.19585334 1.758428,0.22887087 0.113442,0.0256812 0.180974,0.21428113 0.180974,0.50540923 V 1.1700774 h -0.353635 c -0.208021,0 -0.353636,0.017133 -0.353636,0.0416 0,0.025418 0.193501,0.0416 0.497291,0.0416 0.277687,0 0.542343,0.020522 0.599303,0.046477 0.122533,0.055834 0.297462,0.3681482 0.33515,0.598386 0.05565,0.339865 0.07396,0.3952388 0.130746,0.3952388 0.03197,0 0.09601,0.078409 0.142312,0.1742314 0.07863,0.162736 0.08418,0.2546848 0.08418,1.3937391 0,0.6707294 -0.01572,1.2195077 -0.03493,1.2195077 -0.01921,0 -0.05626,0.046806 -0.08232,0.10401 -0.02607,0.057209 -0.07836,0.1040109 -0.116213,0.1040109 -0.06208,0 -0.06587,0.054036 -0.03877,0.5512551 0.03757,0.6891657 0.03764,0.6625337 -0.0047,1.9689396 -0.03422,1.0565326 -0.03782,1.0887518 -0.137552,1.2342152 -0.121151,0.1766969 -0.293883,0.2674284 -0.581847,0.3056283 -0.115625,0.015335 -0.210229,0.040621 -0.210229,0.056173 0,0.033777 -0.595201,0.1175932 -1.060906,0.1493982 -0.183058,0.012502 -0.402183,0.031471 -0.486944,0.042165 l -0.15411,0.01943 -0.0123,-0.2810146 -0.0123,-0.2810147 h -0.582461 -0.582457 l -0.01223,0.3016294 -0.01223,0.3016302 H 39.876515 39.420693 V 9.3705358 c 0,-0.2231246 -0.01461,-0.292383 -0.06581,-0.3120309 -0.0362,-0.013885 -0.298302,-0.025258 -0.582459,-0.025258 h -0.516651 v 0.3328338 0.3328327 h -0.4975 -0.4975 L 37.248623,9.3764812 37.236473,9.0540499 H 36.674816 36.11316 l -0.02081,0.3328328 -0.0208,0.3328327 -3.078707,0.020805 c -2.715578,0.018348 -3.096114,0.028722 -3.226288,0.087964 -0.214821,0.097759 -0.764474,0.6569756 -0.861636,0.8766266 -0.154019,0.348187 -0.152606,0.687171 0.0092,2.218772 0.08217,0.777644 0.160725,1.451341 0.174548,1.497106 0.01382,0.04576 0.144349,0.331802 0.290061,0.63564 0.308413,0.643099 0.323374,0.755962 0.135532,1.022455 -0.144218,0.204603 -0.129139,0.200642 -0.993913,0.261145 -0.217381,0.01521 -0.4046,0.03979 -0.416042,0.05462 -0.01144,0.01484 -1.331332,0.135045 -2.933092,0.267137 l -2.91229,0.240176 -0.520052,-0.08441 c -0.286007,-0.04643 -0.688528,-0.130042 -0.894468,-0.185809 -0.205941,-0.05577 -0.617821,-0.124859 -0.915292,-0.153539 -0.297469,-0.02868 -0.558639,-0.06804 -0.580378,-0.08748 -0.05181,-0.04632 -0.314111,-0.04583 -0.314111,5.9e-4 0,0.01976 -0.20126,0.04908 -0.447244,0.06515 -0.502347,0.03284 -0.878497,0.129192 -1.35138,0.34618 -0.298162,0.136816 -0.334104,0.167428 -0.491704,0.418784 -0.09352,0.149148 -0.199029,0.356976 -0.234475,0.461841 -0.03544,0.104864 -0.07749,0.200023 -0.09342,0.211464 -0.02918,0.02095 -0.418879,0.999684 -0.418879,1.052018 0,0.01545 -0.07165,0.182905 -0.159223,0.372125 -0.08757,0.189218 -0.198044,0.447004 -0.245491,0.572856 -0.04745,0.125852 -0.144395,0.378598 -0.215438,0.561656 -0.07105,0.183059 -0.12907,0.354898 -0.128947,0.381867 1.24e-4,0.02697 -0.02351,0.07378 -0.05252,0.10401 -0.06848,0.07138 -0.145485,0.253689 -0.42631,1.009271 -0.127037,0.341803 -0.246708,0.641353 -0.265935,0.665666 -0.04484,0.0567 -0.586346,1.458638 -0.586346,1.51803 0,0.0246 -0.01597,0.04473 -0.03547,0.04473 -0.01952,0 -0.152736,0.31359 -0.296058,0.696869 -0.143321,0.383278 -0.293029,0.753035 -0.332685,0.821682 -0.03965,0.06865 -0.190752,0.443084 -0.33577,0.832083 -0.145019,0.388998 -0.275987,0.716631 -0.291042,0.728073 -0.01505,0.01144 -0.0961,0.19909 -0.180093,0.417 -0.198235,0.514271 -0.29476,1.123699 -0.232425,1.467457 0.02441,0.134591 0.03323,0.295441 0.01962,0.357444 -0.03211,0.146205 -0.210537,0.337555 -0.314753,0.337555 -0.123761,0 -0.0974,0.06964 0.03651,0.09641 0.115734,0.02315 0.117726,0.02832 0.102283,0.265227 -0.02325,0.356753 -0.05279,0.512047 -0.09739,0.512047 -0.02184,0 -0.03972,0.02559 -0.03972,0.05685 0,0.06078 -0.490951,0.808351 -0.626216,0.953542 -0.04458,0.04785 -0.08105,0.102194 -0.08105,0.120761 0,0.01856 -0.03744,0.07121 -0.08321,0.116967 -0.09108,0.09108 -0.191197,0.09622 -0.769677,0.03954 z M 1.8854687,28.662098 c 0.027459,-0.02746 0.049925,-0.07943 0.049925,-0.115488 0,-0.08632 -0.5718991,-0.513208 -0.6482705,-0.483902 -0.040498,0.01554 -0.059,0.0907 -0.059,0.239687 0,0.302495 0.1030901,0.409628 0.3941708,0.409628 0.1172874,0 0.235716,-0.02247 0.2631747,-0.04992 z M 25.088102,15.308839 c 1.209135,-0.102506 1.579515,-0.147569 1.726572,-0.210066 0.552671,-0.234876 0.64503,-0.328698 0.731606,-0.743184 0.05988,-0.286708 0.05811,-0.397676 -0.02452,-1.536351 -0.08746,-1.205249 -0.177876,-1.764567 -0.306043,-1.893366 -0.02608,-0.0262 -0.10357,-0.156774 -0.172217,-0.290163 C 26.97485,10.502321 26.859558,10.335267 26.787288,10.264478 26.411317,9.8962131 26.330923,9.8487198 25.687535,9.6147918 l -0.35746,-0.129968 -0.308206,0.063412 c -0.293197,0.060315 -2.014325,0.1922996 -2.507742,0.1922996 -0.231905,0 -0.232536,3.492e-4 -0.319876,0.1768183 -0.04813,0.09725 -0.200928,0.5044503 -0.339549,0.9048903 l -0.252038,0.728072 0.02613,0.603261 c 0.02392,0.552254 0.03878,0.638437 0.175626,1.019301 0.08222,0.228823 0.183246,0.511066 0.2245,0.627209 0.04125,0.116142 0.12034,0.260081 0.175746,0.319865 0.163058,0.175942 0.335272,0.524011 0.309671,0.625889 -0.02322,0.09244 -0.329882,0.320026 -0.431199,0.320026 -0.151445,0 -0.79983,-0.717912 -1.041306,-1.152967 -0.06081,-0.109543 -0.131413,-0.220559 -0.156915,-0.246706 -0.08686,-0.08906 -0.317059,-0.6027 -0.561364,-1.252592 -0.02796,-0.07437 -0.06728,-0.135213 -0.08739,-0.135213 -0.02011,0 -0.03655,-0.02547 -0.03655,-0.0566 0,-0.03113 -0.04681,-0.125571 -0.10401,-0.209868 -0.05721,-0.0843 -0.10401,-0.205338 -0.10401,-0.26898 0,-0.296516 -0.373264,-0.383652 -0.919964,-0.214759 -0.390707,0.120702 -0.472986,0.100253 -0.433946,-0.107849 0.01547,-0.08245 0.07733,-0.250225 0.137457,-0.372835 0.111244,-0.226824 0.106216,-0.322426 -0.01181,-0.224476 -0.130092,0.107966 -0.233038,0.292745 -0.294412,0.528443 -0.03444,0.132251 -0.08841,0.29218 -0.119933,0.355398 -0.03153,0.06321 -0.107537,0.28562 -0.168916,0.494225 -0.102844,0.349538 -0.110029,0.422093 -0.09163,0.925162 0.02017,0.551471 0.099,0.907772 0.222989,1.00786 0.0313,0.02527 0.09346,0.128236 0.138133,0.228822 0.08488,0.191108 0.362579,0.48202 0.547399,0.573438 0.05934,0.02935 0.178838,0.116487 0.265559,0.19364 0.193815,0.172428 0.369702,0.212307 1.277472,0.28964 1.033291,0.08803 2.674382,0.04804 4.548103,-0.110805 z M 6.0126002,1.2532853 c 0,-0.022885 -0.018721,-0.0416 -0.041604,-0.0416 -0.022882,0 -0.041604,0.018724 -0.041604,0.0416 0,0.022885 0.018722,0.0416 0.041604,0.0416 0.022882,0 0.041604,-0.018724 0.041604,-0.0416 z"
   id="path1" /></svg>
