<?xml version="1.0" encoding="UTF-8" standalone="no"?>
<!-- Generator: Adobe Illustrator 16.0.0, SVG Export Plug-In . SVG Version: 6.00 Build 0)  -->

<svg
   version="1.1"
   x="0px"
   y="0px"
   width="93.25px"
   height="32px"
   viewBox="0 0 93.25 32"
   enable-background="new 0 0 93.25 32"
   xml:space="preserve"
   id="svg1"
   sodipodi:docname="g3sg1.svg"
   inkscape:version="1.3 (0e150ed6c4, 2023-07-21)"
   xmlns:inkscape="http://www.inkscape.org/namespaces/inkscape"
   xmlns:sodipodi="http://sodipodi.sourceforge.net/DTD/sodipodi-0.dtd"
   xmlns="http://www.w3.org/2000/svg"
   xmlns:svg="http://www.w3.org/2000/svg"><defs
   id="defs1" /><sodipodi:namedview
   id="namedview1"
   pagecolor="#ffffff"
   bordercolor="#000000"
   borderopacity="0.25"
   inkscape:showpageshadow="2"
   inkscape:pageopacity="0.0"
   inkscape:pagecheckerboard="0"
   inkscape:deskcolor="#d1d1d1"
   showgrid="false"
   inkscape:zoom="9.6913214"
   inkscape:cx="55.358808"
   inkscape:cy="11.711509"
   inkscape:window-width="1920"
   inkscape:window-height="1009"
   inkscape:window-x="-8"
   inkscape:window-y="-8"
   inkscape:window-maximized="1"
   inkscape:current-layer="svg1" />&#10;&#10;<g
   id="guides">&#10;</g>&#10;<path
   style="fill:#ffffff;stroke-width:0.066525"
   d="m 23.813294,24.796244 c -0.672147,-0.120528 -1.056734,-0.221207 -1.142914,-0.2992 -0.0916,-0.0829 -0.143656,-0.248121 -0.176589,-0.560479 -0.07865,-0.745932 -0.147336,-0.831441 -0.868685,-1.081441 -0.215122,-0.07456 -0.591793,-0.227115 -0.837046,-0.339023 l -0.445915,-0.203467 0.274157,-0.325135 c 0.257865,-0.305812 0.288318,-0.322508 0.51244,-0.280947 0.131056,0.0243 0.485201,0.129492 0.786988,0.233753 0.617039,0.213174 0.74853,0.230256 0.74853,0.09724 0,-0.104765 0.408146,-0.719789 0.647312,-0.975416 0.0873,-0.09331 0.194406,-0.231446 0.238014,-0.306972 0.280069,-0.485071 0.42281,-0.761915 0.548559,-1.063927 0.07857,-0.188707 0.222167,-0.478432 0.319099,-0.643833 0.09693,-0.165402 0.17624,-0.336149 0.17624,-0.379439 0,-0.09673 0.514562,-0.727594 0.697988,-0.855744 0.07347,-0.05132 0.320674,-0.281824 0.549354,-0.512218 0.385962,-0.388855 0.415781,-0.440298 0.415781,-0.71728 0,-0.413526 -0.07035,-0.563969 -0.501289,-1.071953 -0.308658,-0.363842 -0.367926,-0.472513 -0.33319,-0.610916 l 0.04225,-0.168348 -3.14634,0.0435 -3.146341,0.0435 -1.41899,0.229655 c -0.780442,0.126309 -1.513879,0.22884 -1.629857,0.227845 -0.115979,-9.88e-4 -1.00418,0.117544 -1.973781,0.26342 -0.9696,0.145875 -2.047304,0.299709 -2.394897,0.341853 -0.629934,0.07637 -0.938416,0.181399 -1.134474,0.386233 -0.223531,0.233536 -1.1788007,2.231683 -1.2323118,2.577639 -0.02334,0.150895 -0.1065694,0.390385 -0.1849548,0.5322 -0.227616,0.411806 -0.5504583,0.526078 -1.8389039,0.650886 -0.6037137,0.05848 -1.2568058,0.106231 -1.4513157,0.106113 -0.19451,-1.19e-4 -0.9989859,0.06295 -1.7877242,0.140151 -1.1146376,0.109102 -1.445213,0.122338 -1.4840966,0.05942 -0.035727,-0.05781 -0.063034,-0.0599 -0.095531,-0.0073 -0.025028,0.0405 -0.1160833,0.07363 -0.2023467,0.07363 -0.086263,0 -0.1668211,0.02935 -0.1790174,0.06523 -0.029694,0.08734 -0.6053023,0.191814 -1.18552742,0.215166 -0.56333135,0.02265 -0.61911499,-0.02938 -0.55027507,-0.513256 0.0786135,-0.552573 0.0539137,-4.981372 -0.0341337,-6.120294 -0.16808611,-2.174249 -0.16768699,-2.142571 -0.0287421,-2.281516 0.10264976,-0.102649 0.27008096,-0.134498 0.9074027,-0.1726 0.5981903,-0.03576 0.806041,-0.02649 0.8860261,0.03951 0.082747,0.06828 0.1103253,0.06892 0.1324873,0.003 0.031256,-0.09287 0.1931519,-0.113238 0.2275626,-0.02863 0.012196,0.02998 0.1868241,0.03747 0.388062,0.01663 l 0.3658871,-0.03789 0.019161,-0.617872 c 0.019069,-0.614897 0.02019,-0.618527 0.2328371,-0.753917 0.2088018,-0.13294 0.2736228,-0.135148 2.8414109,-0.09676 4.6695507,0.06981 5.7155017,0.111169 5.8535497,0.231453 0.118031,0.102842 0.117811,0.114553 -0.007,0.372282 -0.07087,0.146355 -0.202423,0.385845 -0.292353,0.5322 -0.08993,0.146355 -0.164003,0.292009 -0.164604,0.323677 -6.07e-4,0.03194 0.894979,0.04183 2.011284,0.02222 2.354744,-0.04138 2.845779,-0.120083 3.403597,-0.545551 0.119867,-0.09143 0.245943,-0.16623 0.280169,-0.16623 0.03422,0 0.345732,-0.258575 0.692233,-0.574612 0.750715,-0.6847107 0.874343,-0.7710761 1.075369,-0.7512377 0.08435,0.00832 0.198261,-8.233e-4 0.253144,-0.020401 0.05488,-0.019544 0.294373,-0.089067 0.532199,-0.1544946 0.237827,-0.065425 0.521939,-0.1631578 0.63136,-0.2171777 0.165914,-0.081907 0.438286,-0.090814 1.640395,-0.053628 1.241705,0.038414 1.455462,0.030576 1.54258,-0.056542 0.05562,-0.05562 0.133208,-0.1011325 0.17241,-0.1011325 0.0392,0 0.07128,-0.029934 0.07128,-0.06652 0,-0.036586 -0.0449,-0.066529 -0.09979,-0.066529 -0.233048,0 -0.03677,-0.5786134 0.217972,-0.6425487 0.08905,-0.022352 0.351251,-0.022953 0.582679,-0.00132 l 0.420779,0.039295 0.04422,-0.2013314 c 0.0334,-0.15207 0.07116,-0.1909713 0.154322,-0.1589863 0.06056,0.02329 0.323081,0.1050455 0.583388,0.181679 0.394491,0.1161366 0.467959,0.1597083 0.441285,0.2617102 -0.0176,0.067311 0.0014,0.1223762 0.04228,0.1223762 0.04086,0 0.07428,0.043263 0.07428,0.096143 0,0.0675 0.09414,0.1021829 0.315994,0.1164182 0.312733,0.020071 0.316205,0.022838 0.336588,0.2688784 l 0.0206,0.2486012 9.758568,0.017494 c 5.367212,0.00962 12.402165,0.00255 15.633227,-0.015766 l 5.874659,-0.03326 0.114405,-0.1517152 c 0.110523,-0.1465672 0.144818,-0.1510812 1.01067,-0.1330499 0.856927,0.017849 0.899148,0.025233 0.96191,0.1682868 0.0403,0.091844 0.14305,0.1628706 0.2661,0.1839315 0.110251,0.018869 1.502682,0.048977 3.094291,0.066899 1.591608,0.017923 3.484343,0.039929 4.206078,0.048902 l 1.312244,0.016317 0.01825,-1.0643986 0.01825,-1.0643986 h 0.332252 0.332252 l 0.18635,0.631987 c 0.102488,0.3475923 0.207431,0.8391297 0.233209,1.0923042 0.02776,0.272733 0.08075,0.4715369 0.130017,0.4878492 0.04872,0.016128 0.08316,-0.029852 0.08316,-0.1110611 0,-0.1190115 0.04053,-0.1385939 0.286815,-0.1385939 0.334854,0 0.578009,0.1822207 0.578009,0.4331567 0,0.08903 0.07457,0.4545836 0.165707,0.8123386 0.09114,0.357756 0.165979,0.716055 0.166312,0.79622 3.33e-4,0.08016 0.02724,0.162216 0.05979,0.182334 0.03255,0.02012 4.717569,0.0375 10.411151,0.03864 l 10.351966,0.0021 v 0.669322 0.669322 l -0.947983,-0.01176 c -0.521386,-0.0065 -5.1615,-0.009 -10.311363,-0.0055 l -9.363383,0.0062 v 0.458305 c 0,0.351273 -0.02955,0.494787 -0.126497,0.614523 -0.125293,0.154729 -0.143853,0.156678 -1.945854,0.204369 -1.000649,0.02648 -3.61553,0.07728 -5.810852,0.11289 -2.195323,0.03561 -7.726179,0.16115 -12.290791,0.278984 -7.920006,0.204451 -8.309162,0.208947 -8.515191,0.09838 -0.124676,-0.06691 -0.314274,-0.106401 -0.448734,-0.09347 l -0.232837,0.0224 -0.01925,0.58394 c -0.01059,0.321167 0.0095,0.687885 0.04453,0.81493 0.06241,0.226052 0.05956,0.230991 -0.133524,0.230991 h -0.197303 l 0.01064,0.768575 c 0.0058,0.422715 -0.0023,0.781549 -0.01819,0.797407 -0.01586,0.01586 -0.565591,0.08717 -1.221629,0.15848 -1.469931,0.159771 -3.869215,0.411639 -4.325602,0.454087 l -0.338757,0.03151 -0.04152,-0.68146 c -0.02283,-0.374803 -0.05001,-0.688767 -0.06039,-0.697699 -0.01038,-0.0089 -0.580179,-0.03767 -1.266218,-0.06387 l -1.247342,-0.04763 v 0.836795 c 0,0.789791 -0.09614,1.43743 -0.213372,1.43743 -0.06587,0 -0.06937,0.02634 0.04778,-0.359829 0.06378,-0.210233 0.09907,-0.607182 0.09907,-1.114293 v -0.787718 h -1.020826 c -1.143604,0 -1.095926,-0.01838 -1.379946,0.532199 -0.201735,0.391073 -0.206264,0.971539 -0.01097,1.405996 0.27249,0.606191 -0.139133,0.55636 -0.56191,-0.06803 l -0.252797,-0.373359 v -0.748424 -0.748424 l -0.556976,1.9e-5 c -0.476819,1.6e-5 -0.545553,0.01378 -0.477601,0.09566 0.08508,0.102513 0.02872,0.350734 -0.308869,1.360585 -0.133087,0.398099 -0.147487,0.502305 -0.0757,0.547812 0.06782,0.04299 0.0613,0.05644 -0.02777,0.05722 -0.06403,5.61e-4 -0.116419,0.03594 -0.116419,0.07863 0,0.04269 -0.01876,0.05885 -0.0417,0.03592 -0.02294,-0.02294 -0.127204,0.0026 -0.231712,0.05657 -0.192749,0.09967 -0.340441,0.324849 -0.413368,0.63023 -0.02211,0.09258 -0.205837,0.376978 -0.408283,0.631987 -0.202445,0.255008 -0.520376,0.771224 -0.706513,1.147146 -0.324388,0.655133 -0.351051,0.749462 -0.539076,1.907138 -0.01644,0.101206 0.0511,0.156226 0.311638,0.253861 0.182944,0.06856 0.356081,0.147629 0.384752,0.175712 0.02867,0.02808 -0.06217,0.179849 -0.201852,0.337257 l -0.253979,0.286198 -0.584523,-0.08696 -0.584523,-0.08696 -0.144974,0.172815 c -0.07973,0.09505 -0.19597,0.264833 -0.258299,0.377299 -0.142386,0.256924 -0.252173,0.257616 -1.631476,0.01028 z M 4.7565779,13.597085 c 0.026477,-0.137479 -0.1655682,-0.230117 -0.2669261,-0.128759 -0.101358,0.101358 -0.00872,0.293402 0.1287584,0.266926 0.063721,-0.01227 0.1258963,-0.07445 0.1381677,-0.138167 z m 4.390645,0 c 0.026476,-0.137479 -0.1655684,-0.230117 -0.2669264,-0.128759 -0.1013581,0.101358 -0.00872,0.293402 0.128759,0.266926 0.063721,-0.01227 0.1258957,-0.07445 0.1381674,-0.138167 z M 65.674561,11.237081 c -0.02516,-0.100252 -0.0808,-0.205833 -0.123629,-0.234623 -0.04283,-0.02879 -1.209089,-0.04406 -2.591675,-0.03393 -2.67527,0.0196 -2.638075,0.01489 -2.640871,0.334411 -9.87e-4,0.10898 0.171585,0.116419 2.700453,0.116419 h 2.701471 z m 2.147709,-0.03393 -0.02084,-0.216206 -0.546183,-0.01928 c -0.476235,-0.01681 -0.563562,-0.0019 -0.681884,0.116418 -0.28318,0.283181 -0.195081,0.335273 0.567032,0.335273 h 0.702723 z m 2.926998,-0.149812 c 0.01839,-0.285839 0.009,-0.312587 -0.08316,-0.236123 -0.128586,0.106714 -0.147026,0.627423 -0.02075,0.585854 0.04712,-0.01551 0.09215,-0.1671 0.103905,-0.349731 z"
   id="path1" /><path
   style="fill:#ffffff;stroke-width:0.00989903"
   d="m 30.835268,19.618049 c 0,-0.0058 -0.0075,-0.01808 -0.0166,-0.02723 -0.01381,-0.01383 -0.04274,-0.01717 -0.172658,-0.01995 l -0.156061,-0.0033 -0.003,-0.02636 c -0.0029,-0.02499 -0.0063,-0.02652 -0.06388,-0.02928 -0.05053,-0.0024 -0.06168,-0.0062 -0.06586,-0.02215 -0.0067,-0.02544 -0.0457,-0.03927 -0.110873,-0.03927 -0.05061,0 -0.05329,-0.0013 -0.05628,-0.02723 -0.0025,-0.02138 -0.009,-0.02789 -0.03035,-0.03035 -0.01903,-0.0022 -0.02722,-0.0088 -0.02722,-0.02192 0,-0.02469 -0.02893,-0.03929 -0.07788,-0.03929 -0.03583,0 -0.03989,-0.0026 -0.04272,-0.02723 -0.003,-0.02573 -0.0063,-0.02738 -0.05944,-0.03017 -0.05296,-0.0028 -0.05649,-0.0045 -0.05939,-0.0297 -0.0029,-0.02516 -0.0064,-0.02692 -0.05939,-0.0297 -0.05296,-0.0028 -0.05649,-0.0045 -0.05939,-0.0297 -0.0024,-0.02061 -0.0091,-0.02745 -0.02938,-0.02979 -0.01788,-0.0021 -0.02814,-0.0104 -0.03207,-0.02604 -0.0062,-0.0245 -0.03064,-0.03491 -0.08271,-0.03513 -0.0273,-1.15e-4 -0.03217,-0.0037 -0.03217,-0.02383 0,-0.02806 -0.01608,-0.03571 -0.07505,-0.03571 -0.04017,0 -0.04373,-0.0021 -0.04373,-0.02499 0,-0.01986 -0.0061,-0.02622 -0.0297,-0.03094 -0.02049,-0.0041 -0.0297,-0.01177 -0.0297,-0.02475 0,-0.02216 -0.03575,-0.03812 -0.08544,-0.03812 -0.03197,0 -0.03442,-0.0021 -0.03153,-0.02723 0.003,-0.02605 0.0058,-0.02735 0.0643,-0.03015 0.06043,-0.0029 0.06121,-0.0026 0.06435,0.02475 0.0025,0.02145 0.009,0.02835 0.029,0.03068 0.01522,0.0017 0.03113,0.01289 0.03873,0.02709 0.01,0.0186 0.02383,0.02555 0.06079,0.03045 0.04129,0.0055 0.04789,0.0094 0.04789,0.02876 0,0.02672 0.01666,0.03443 0.07439,0.03443 0.03963,0 0.04333,0.0021 0.04621,0.02722 0.0029,0.0253 0.007,0.02757 0.05758,0.03217 0.05061,0.0046 0.05466,0.0068 0.05758,0.03217 0.0026,0.02285 0.0078,0.02723 0.03239,0.02723 0.02155,0 0.03221,0.0065 0.04046,0.02461 0.0089,0.01961 0.02095,0.0259 0.05918,0.03097 0.03826,0.0051 0.04797,0.01017 0.04797,0.02514 0,0.02121 0.03537,0.03808 0.07984,0.03808 0.01598,0 0.02961,0.0044 0.03029,0.0099 6.8e-4,0.0054 0.0024,0.01436 0.0037,0.0198 0.0014,0.0054 0.003,0.01435 0.0037,0.0198 6.8e-4,0.0054 0.02574,0.0099 0.05568,0.0099 0.02994,0 0.055,0.0044 0.05569,0.0099 6.8e-4,0.0054 0.0024,0.01435 0.0037,0.0198 0.0014,0.0054 0.003,0.01435 0.0037,0.0198 6.8e-4,0.0054 0.02476,0.0099 0.05351,0.0099 0.04899,0 0.05298,0.0019 0.06348,0.0297 l 0.01121,0.0297 h 0.085 c 0.08287,0 0.085,5.88e-4 0.085,0.02351 0,0.01841 0.0067,0.02486 0.03094,0.0297 0.01702,0.0034 0.554901,0.0062 1.195306,0.0061 1.110004,-5.3e-5 1.240924,-0.003 1.2373,-0.0276 -0.0041,-0.02801 0.0044,-0.03175 0.07308,-0.03188 0.09561,-1.8e-4 0.116313,-0.0064 0.116313,-0.03517 0,-0.02118 0.0048,-0.02335 0.05692,-0.02607 0.05355,-0.0028 0.0571,-0.0045 0.05999,-0.02959 0.0024,-0.02057 0.0091,-0.02732 0.0297,-0.0297 0.02061,-0.0024 0.02732,-0.0091 0.02971,-0.02982 0.0029,-0.02516 0.0064,-0.02692 0.05939,-0.0297 0.0529,-0.0028 0.05649,-0.0045 0.05938,-0.02957 0.0024,-0.02057 0.0091,-0.02732 0.0297,-0.0297 0.02057,-0.0024 0.02732,-0.0091 0.0297,-0.0297 0.0024,-0.02057 0.0091,-0.02732 0.0297,-0.0297 0.02183,-0.0026 0.02717,-0.0087 0.02965,-0.03431 0.0023,-0.02348 0.009,-0.03273 0.0269,-0.03723 0.01996,-0.005 0.02494,-0.01407 0.03041,-0.05538 0.005,-0.03812 0.01054,-0.04939 0.02402,-0.04939 0.01531,0 0.01635,0.0049 0.0084,0.04023 -0.0098,0.04364 -0.0055,0.05876 0.01668,0.05876 0.0078,0 0.01427,0.0044 0.01427,0.0099 0,0.0054 -0.01114,0.0099 -0.02475,0.0099 -0.01361,0 -0.02531,0.0044 -0.02598,0.0099 -6.81e-4,0.0054 -0.0024,0.01435 -0.0037,0.0198 -0.0014,0.0054 -0.003,0.01436 -0.0037,0.0198 -6.81e-4,0.0054 -0.01208,0.0099 -0.02532,0.0099 -0.01892,0 -0.02476,0.0058 -0.02723,0.02722 -0.0025,0.02121 -0.009,0.0279 -0.02975,0.0303 -0.02057,0.0024 -0.02732,0.0091 -0.02969,0.02969 -0.0024,0.02057 -0.0091,0.02733 -0.0297,0.0297 -0.02057,0.0024 -0.02732,0.0091 -0.02969,0.0297 -0.0024,0.02057 -0.0091,0.02732 -0.0297,0.0297 -0.02057,0.0024 -0.02732,0.0091 -0.0297,0.0297 -0.0028,0.02458 -0.0072,0.027 -0.05752,0.03157 -0.05061,0.0046 -0.05467,0.0068 -0.05758,0.03217 -0.0028,0.02464 -0.0069,0.02723 -0.04272,0.02723 -0.04935,0 -0.07788,0.01463 -0.07788,0.03995 0,0.01717 -0.0069,0.01945 -0.05939,0.01945 h -0.05939 v 0.0297 0.0297 h -0.136606 c -0.141041,0 -0.160364,0.005 -0.160364,0.04158 0,0.01704 -0.04308,0.01781 -0.984952,0.01781 -0.693811,0 -0.984953,-0.0031 -0.984953,-0.0106 z"
   id="path2" /></svg>
