<?xml version="1.0" encoding="UTF-8" standalone="no"?>
<!-- Generator: Adobe Illustrator 16.0.0, SVG Export Plug-In . SVG Version: 6.00 Build 0)  -->

<svg
   version="1.1"
   x="0px"
   y="0px"
   width="39px"
   height="32px"
   viewBox="0 0 39 32"
   enable-background="new 0 0 39 32"
   xml:space="preserve"
   id="svg1"
   sodipodi:docname="renetti.svg"
   inkscape:version="1.3 (0e150ed6c4, 2023-07-21)"
   xmlns:inkscape="http://www.inkscape.org/namespaces/inkscape"
   xmlns:sodipodi="http://sodipodi.sourceforge.net/DTD/sodipodi-0.dtd"
   xmlns="http://www.w3.org/2000/svg"
   xmlns:svg="http://www.w3.org/2000/svg"><defs
   id="defs1" /><sodipodi:namedview
   id="namedview1"
   pagecolor="#ffffff"
   bordercolor="#000000"
   borderopacity="0.25"
   inkscape:showpageshadow="2"
   inkscape:pageopacity="0.0"
   inkscape:pagecheckerboard="0"
   inkscape:deskcolor="#d1d1d1"
   showgrid="false"
   inkscape:zoom="17.964932"
   inkscape:cx="19.732889"
   inkscape:cy="16.170393"
   inkscape:window-width="1920"
   inkscape:window-height="1009"
   inkscape:window-x="-8"
   inkscape:window-y="-8"
   inkscape:window-maximized="1"
   inkscape:current-layer="svg1" />&#10;&#10;<g
   id="guides">&#10;</g>&#10;<path
   style="fill:#ffffff;stroke-width:0.0432913"
   d="M 1.5047267,27.237182 C 1.1763397,27.077854 1.0853301,26.825436 1.1725857,26.315977 1.2236099,26.018064 1.2228369,25.968922 1.166465,25.927097 0.95673098,25.771479 0.8193219,24.849346 0.88795956,24.058089 0.9517393,23.322832 1.0803472,22.734578 1.3368958,22.004648 c 0.062764,-0.178577 0.1843228,-0.538977 0.2701299,-0.800889 0.085807,-0.261913 0.3095394,-0.943751 0.4971831,-1.515197 0.1876437,-0.571446 0.4513599,-1.379911 0.5860361,-1.79659 0.134676,-0.41668 0.3412494,-1.049815 0.4590519,-1.406969 0.1178025,-0.357153 0.2296864,-0.707814 0.2486309,-0.779244 0.018945,-0.07143 0.07229,-0.23702 0.1185471,-0.367976 C 3.7374679,14.71213 3.7737904,13.979338 3.6088799,13.473539 3.508015,13.164174 3.277168,12.712698 3.1011521,12.480555 3.037965,12.397218 2.9567161,12.290073 2.9205986,12.242453 2.760299,12.031099 2.0771656,11.396931 1.7870813,11.190182 1.7290085,11.148792 1.7077103,11.077895 1.7077103,10.925964 v -0.207651 l 0.3025205,-0.201162 c 0.1663863,-0.11064 0.3134303,-0.201163 0.3267646,-0.201163 0.013334,0 0.1329781,-0.06956 0.2658752,-0.15457 0.2898002,-0.1853832 0.2667882,-0.2351522 -0.1232012,-0.2664572 -0.3087163,-0.02478 -0.5331441,0.05523 -0.9113642,0.3248912 -0.1123881,0.08013 -0.2731072,0.16468 -0.3571535,0.187887 -0.089381,0.02468 -0.1528114,0.06951 -0.1528114,0.108012 0,0.04617 -0.025908,0.0576 -0.0867959,0.03827 -0.0550187,-0.01746 -0.0953248,-0.0053 -0.1100913,0.03316 -0.0310103,0.08081 -0.39677107,0.08336 -0.42761552,0.003 -0.0121823,-0.03175 -0.0617234,-0.05772 -0.1100913,-0.05772 -0.0590807,0 -0.0879414,-0.02842 -0.0879414,-0.08658 0,-0.04976 -0.0288606,-0.08658 -0.0678543,-0.08658 -0.0477181,0 -0.059853,-0.02521 -0.0408928,-0.08495 0.0148289,-0.04672 0.006758,-0.122698 -0.0179351,-0.168838 -0.03489501,-0.06521 -0.02951315,-0.08979 0.0241593,-0.1103902 0.0451151,-0.01731 0.0608197,-0.058 0.0453002,-0.117341 -0.0167973,-0.06423 -4.8584e-4,-0.09693 0.0556867,-0.111617 0.13358725,-0.03494 0.17557045,-0.425714 0.10860545,-1.010901 -0.0263338,-0.230124 -0.0214761,-0.246251 0.11409729,-0.378799 0.16048832,-0.156907 0.26420802,-0.16981 0.63841268,-0.07942 0.1343932,0.03246 0.3807189,0.08176 0.5473906,0.109542 0.3861654,0.06437 0.6758052,0.116799 0.9665349,0.174942 0.1268202,0.02536 0.3141959,0.04611 0.4163903,0.04611 0.1848737,0 0.1859641,-9.33e-4 0.2168119,-0.183988 0.080059,-0.4751 0.079978,-0.465382 0.00387,-0.465382 -0.055266,0 -0.065464,-0.02325 -0.042729,-0.09741 0.016424,-0.05357 0.044337,-0.116887 0.062028,-0.140697 0.017693,-0.02381 0.142925,-0.253971 0.2782941,-0.511465 C 3.7732238,6.7925838 3.9496542,6.5125078 4.29898,6.0301146 4.5750168,5.6489278 4.6243857,5.594291 4.7777406,5.5002756 4.8630902,5.4479502 4.9524034,5.3899217 4.9762136,5.3713232 5.2351841,5.1690352 5.5076896,5.029522 5.6135036,5.0450517 5.7183751,5.0604428 5.7338955,5.0483959 5.7344639,4.951156 5.7353738,4.7958418 5.8315075,4.5356459 5.9269524,4.4301808 5.9953572,4.3545936 6.059445,4.3417526 6.368246,4.3417526 h 0.3612667 v 0.3463307 0.3463306 h 5.4519653 5.451965 l 0.01356,0.1406968 0.01356,0.1406969 h 7.467755 7.467756 l 0.08317,-0.1839882 0.08317,-0.1839881 h 0.287488 c 0.268357,0 0.29379,-0.00852 0.382211,-0.1281211 0.0521,-0.07047 0.09534,-0.1727422 0.0961,-0.2272795 0.0026,-0.1869217 0.09525,-0.2506781 0.364281,-0.2506781 0.208422,0 0.303039,0.029289 0.594339,0.1839882 0.19055,0.101193 0.402986,0.237561 0.472079,0.3030393 0.110602,0.1048141 0.159323,0.1190512 0.407412,0.1190512 h 0.281788 v 0.194811 0.1948109 h 1.576593 c 0.867126,0 1.607408,0.011821 1.64507,0.026279 0.06027,0.02313 0.06848,0.1769816 0.06848,1.2831446 0,1.146247 -0.0067,1.261929 -0.07576,1.314377 -0.05968,0.0453 -0.408763,0.0578 -1.645071,0.05889 l -1.569311,0.0014 v 0.537968 c 0,0.464203 0.0097,0.539887 0.07105,0.551965 0.08067,0.0159 0.187037,0.326141 0.188046,0.548475 0.0011,0.245674 -0.122361,0.6008512 -0.217535,0.6257402 -0.06874,0.01797 -0.08485,0.05996 -0.08485,0.221051 v 0.198864 l -0.22728,0.0058 c -0.125003,0.0033 -0.77275,0.01784 -1.439436,0.03247 l -1.212158,0.0266 -0.01251,0.378799 -0.0125,0.378799 H 32.312995 31.925058 V 11.333304 11.138493 H 31.470499 31.01594 v 0.194811 0.194811 h -0.41126 -0.411268 v -0.194811 -0.194811 h -0.45456 -0.454559 v 0.194811 0.194811 H 28.873026 28.461758 V 11.333334 11.138523 H 28.007199 27.55264 v 0.194811 0.194811 h -0.411268 -0.411267 v -0.194811 -0.194811 h -0.411268 -0.411268 v 0.194811 0.194811 l -0.378799,0.0022 c -0.419415,0.0024 -1.709533,0.105864 -1.980578,0.158803 -0.402018,0.07852 -0.723581,0.244484 -0.992424,0.512213 -0.495558,0.493506 -0.578205,0.624086 -0.752114,1.188324 -0.105577,0.342536 -0.157015,1.144753 -0.103219,1.609783 0.02841,0.245606 0.05155,0.576397 0.05142,0.735092 -2.44e-4,0.28717 -0.0012,0.289342 -0.193137,0.458327 -0.214503,0.188814 -0.624503,0.421697 -0.954329,0.542065 -0.383862,0.14009 -0.989254,0.322095 -1.233803,0.370933 -0.130956,0.02615 -0.345249,0.07206 -0.476204,0.102002 -0.318025,0.07273 -2.101633,0.07295 -2.619126,3.21e-4 -0.890009,-0.12491 -1.106088,-0.175788 -2.013047,-0.473989 -0.474526,-0.156021 -0.620688,-0.187274 -0.777213,-0.16619 -0.701022,0.09443 -1.275219,0.501336 -1.643916,1.164966 -0.07748,0.13945 -0.239117,0.683311 -0.394656,1.327855 -0.03986,0.165185 -0.537713,2.048946 -0.606389,2.29444 -0.02332,0.08334 -0.06009,0.229444 -0.08172,0.324685 -0.04705,0.207142 -0.182373,0.722885 -0.283969,1.082284 -0.04039,0.142861 -0.0891,0.327932 -0.10825,0.411267 -0.01916,0.08334 -0.0972,0.385293 -0.173448,0.671016 -0.137901,0.516785 -0.138504,0.523619 -0.115586,1.309563 l 0.02304,0.790067 H 9.9299939 9.7598998 v 0.426203 c 0,0.35792 -0.012685,0.437683 -0.079169,0.497851 -0.072266,0.06541 -0.3792269,0.07164 -3.5229435,0.07164 -3.0993066,0 -3.4495057,-0.0069 -3.5010734,-0.06904 -0.048093,-0.05795 -0.039632,-0.137938 0.05266,-0.49785 0.1034002,-0.403233 0.1052598,-0.428809 0.031178,-0.428809 -0.050917,0 -0.087777,0.04211 -0.104214,0.119051 -0.013988,0.06548 -0.072889,0.2749 -0.1308914,0.465382 -0.058002,0.190482 -0.105372,0.36686 -0.105266,0.391952 2.776e-4,0.06577 -0.2601772,0.297258 -0.4022892,0.357558 -0.1674626,0.07105 -0.2819541,0.06156 -0.4931664,-0.04092 z m 0.5765352,-0.318355 c 0.1044378,-0.104437 0.1035778,-0.421102 -0.00146,-0.53719 -0.061902,-0.06842 -0.1339958,-0.09115 -0.2890744,-0.09115 -0.1716356,0 -0.2217915,0.0193 -0.2963297,0.114067 -0.1555164,0.197707 -0.090561,0.501252 0.1267319,0.592232 0.1090169,0.04565 0.3829353,-7.66e-4 0.460131,-0.07796 z M 18.388184,16.547942 c 0.789207,-0.114786 1.355892,-0.267786 1.747123,-0.471707 0.18852,-0.09826 0.663885,-0.52682 0.663885,-0.598514 0,-0.02538 0.01525,-0.05264 0.03389,-0.06057 0.0534,-0.02273 0.22523,-0.335484 0.303621,-0.552628 0.04923,-0.136371 0.0714,-0.338851 0.07142,-0.652313 2.3e-5,-0.429982 -0.0078,-0.469749 -0.144118,-0.735477 -0.07928,-0.154504 -0.202423,-0.349315 -0.273652,-0.432913 -0.160587,-0.188469 -0.564687,-0.532007 -0.719625,-0.611777 -0.06365,-0.03276 -0.125461,-0.06935 -0.137367,-0.08129 -0.01191,-0.01195 -0.137793,-0.0771 -0.279753,-0.144799 -0.30358,-0.144769 -0.347999,-0.148426 -2.146782,-0.176749 l -1.279315,-0.02014 -0.05473,0.138343 c -0.247662,0.62602 -0.381944,1.316356 -0.315806,1.623541 0.02405,0.11174 0.06813,0.329791 0.09794,0.484558 0.02981,0.154766 0.102372,0.369058 0.161255,0.476205 0.152765,0.277981 0.359957,0.578595 0.426672,0.619052 0.0314,0.01904 0.05709,0.06287 0.05709,0.09741 0,0.084 -0.185164,0.08119 -0.352504,-0.0054 -0.159689,-0.08258 -0.200605,-0.05488 -0.114644,0.0776 0.151959,0.234204 -0.05842,0.238888 -0.328258,0.0073 -0.08635,-0.07411 -0.157003,-0.147975 -0.157003,-0.164153 0,-0.01618 -0.0398,-0.07214 -0.08846,-0.12436 -0.09593,-0.102971 -0.341848,-0.59711 -0.435703,-0.875489 -0.03211,-0.09524 -0.10264,-0.233447 -0.156734,-0.307125 -0.111577,-0.151974 -0.124947,-0.346898 -0.04955,-0.722347 0.02685,-0.133661 0.03676,-0.274406 0.02204,-0.312765 -0.02301,-0.05995 -0.04807,-0.05349 -0.178593,0.04607 -0.309584,0.236131 -0.6715,0.279786 -0.6715,0.081 0,-0.07738 0.04325,-0.120286 0.183988,-0.182543 0.301124,-0.133204 0.595256,-0.536378 0.595256,-0.815935 0,-0.09695 -0.01157,-0.10181 -0.183988,-0.07731 -0.101194,0.01438 -0.363535,0.114648 -0.582979,0.222819 -0.820689,0.404543 -1.365846,1.228129 -1.29923,1.962786 0.02315,0.255351 0.244332,0.805945 0.381797,0.950436 0.03353,0.03525 0.127925,0.142004 0.209753,0.237232 0.3127,0.363905 0.644796,0.559003 1.214899,0.713721 0.107146,0.02908 0.242109,0.07148 0.299918,0.09423 0.05781,0.02275 0.203918,0.0616 0.324685,0.08635 0.120768,0.02474 0.307243,0.06402 0.414389,0.08729 0.702066,0.152464 2.098222,0.213756 2.74066,0.120315 z M 0.99340651,10.369334 C 1.0648375,10.332974 1.1622427,10.267407 1.2098632,10.223619 1.2574832,10.179829 1.3792405,10.085173 1.480434,10.013268 1.7515464,9.8206238 1.7272111,9.7521608 1.3128991,9.5419398 0.90982174,9.3374198 0.73996697,9.3162348 0.66381291,9.4609798 c -0.0281856,0.05357 -0.0965423,0.151864 -0.15190425,0.218425 -0.12311634,0.148021 -0.2016819,0.4215212 -0.16409985,0.5712592 0.0566884,0.225866 0.33460162,0.276948 0.6455977,0.118666 z"
   id="path1" /></svg>
