<?xml version="1.0" encoding="UTF-8" standalone="no"?>
<!-- Generator: Adobe Illustrator 16.0.0, SVG Export Plug-In . SVG Version: 6.00 Build 0)  -->

<svg
   version="1.1"
   x="0px"
   y="0px"
   width="75.833px"
   height="32px"
   viewBox="0 0 75.833 32"
   enable-background="new 0 0 75.833 32"
   xml:space="preserve"
   id="svg39"
   sodipodi:docname="aug.svg"
   inkscape:version="1.3 (0e150ed6c4, 2023-07-21)"
   xmlns:inkscape="http://www.inkscape.org/namespaces/inkscape"
   xmlns:sodipodi="http://sodipodi.sourceforge.net/DTD/sodipodi-0.dtd"
   xmlns="http://www.w3.org/2000/svg"
   xmlns:svg="http://www.w3.org/2000/svg"><defs
   id="defs43" /><sodipodi:namedview
   id="namedview41"
   pagecolor="#ffffff"
   bordercolor="#111111"
   borderopacity="1"
   inkscape:pageshadow="0"
   inkscape:pageopacity="0"
   inkscape:pagecheckerboard="1"
   showgrid="false"
   inkscape:zoom="16"
   inkscape:cx="41.59375"
   inkscape:cy="10.40625"
   inkscape:window-width="1920"
   inkscape:window-height="1009"
   inkscape:window-x="-8"
   inkscape:window-y="-8"
   inkscape:window-maximized="1"
   inkscape:current-layer="svg39"
   inkscape:showpageshadow="2"
   inkscape:deskcolor="#d1d1d1" />&#10;&#10;<g
   id="guides">&#10;</g>&#10;<path
   style="fill:#ffffff;stroke-width:0.0585842"
   d="m 21.876923,29.290551 c -0.05275,-0.110637 -0.114938,-0.20116 -0.138175,-0.20116 -0.02324,0 -0.02914,-0.05011 -0.01313,-0.111356 0.01602,-0.06125 -0.03008,-0.239195 -0.102428,-0.395443 -0.07235,-0.156248 -0.125949,-0.318629 -0.119103,-0.360847 0.01205,-0.07436 -0.07089,-0.386689 -0.166316,-0.626251 -0.02566,-0.06444 -0.07805,-0.248349 -0.116401,-0.40868 -0.03836,-0.160332 -0.08801,-0.305329 -0.110352,-0.322213 -0.02235,-0.01688 -0.04435,-0.10979 -0.04889,-0.206454 -0.0046,-0.09666 -0.05514,-0.281204 -0.112429,-0.410089 -0.05729,-0.128885 -0.107642,-0.273881 -0.111899,-0.322213 -0.02684,-0.30468 -0.116409,-0.583588 -0.197406,-0.614669 -0.07155,-0.02745 -0.07635,-0.04695 -0.02012,-0.08171 0.05527,-0.03416 0.05854,-0.08594 0.013,-0.205707 -0.03347,-0.08804 -0.06085,-0.222054 -0.06085,-0.297825 0,-0.07577 -0.02896,-0.147418 -0.06436,-0.159218 -0.03539,-0.0118 -0.07532,-0.165582 -0.08871,-0.341741 -0.01529,-0.201161 -0.0589,-0.346075 -0.11726,-0.38962 -0.0511,-0.03813 -0.07722,-0.09472 -0.05804,-0.125751 0.05063,-0.0819 -0.02894,-0.592502 -0.10493,-0.673412 -0.03556,-0.03787 -0.07262,-0.213131 -0.08233,-0.389472 -0.0097,-0.176341 -0.04604,-0.338162 -0.08073,-0.359601 -0.03469,-0.02144 -0.04667,-0.06552 -0.02662,-0.09796 0.04281,-0.06927 -0.06146,-0.665464 -0.124647,-0.712685 -0.02379,-0.01778 -0.05057,-0.189395 -0.05951,-0.381369 -0.0089,-0.191974 -0.0353,-0.363333 -0.05858,-0.380797 -0.02328,-0.01746 -0.04674,-0.158649 -0.05213,-0.313743 -0.0054,-0.155093 -0.0281,-0.326452 -0.05047,-0.380797 -0.02237,-0.05435 -0.04755,-0.24748 -0.05597,-0.429192 -0.0084,-0.18171 -0.03746,-0.366218 -0.06453,-0.410019 -0.0543,-0.08786 -0.05835,-0.119038 -0.07285,-0.560813 -0.0076,-0.23259 -0.04141,-0.334707 -0.141836,-0.42884 -0.127669,-0.119672 -0.128359,-0.126102 -0.02194,-0.204514 0.133631,-0.09846 0.0866,-0.262338 -0.07528,-0.262338 -0.06355,0 -0.131843,-0.02636 -0.151757,-0.05858 -0.06989,-0.113079 -0.398884,-0.05683 -0.710525,0.121468 -0.173084,0.09903 -0.314698,0.20448 -0.314698,0.234337 0,0.02985 -0.02743,0.05428 -0.06096,0.05428 -0.07763,0 -0.398093,0.22387 -0.565971,0.395383 -0.157376,0.160786 -1.24361,0.952053 -1.306955,0.952053 -0.025,0 -0.06173,-0.03296 -0.08165,-0.07324 -0.01991,-0.04028 -0.08833,-0.152319 -0.152036,-0.248983 -0.0637,-0.09666 -0.16057,-0.261431 -0.21525,-0.366151 -0.100827,-0.193094 -0.184943,-0.233493 -0.285693,-0.137212 -0.03061,0.02925 -0.187469,0.125895 -0.348576,0.214761 -0.161106,0.08887 -0.372009,0.208557 -0.468673,0.26598 -0.09666,0.05742 -0.294385,0.165069 -0.439382,0.239213 -0.144995,0.07414 -0.27681,0.148012 -0.292921,0.164152 -0.08402,0.08418 -0.412864,0.292975 -0.461419,0.292975 -0.03084,0 -0.06486,0.02074 -0.07561,0.0461 -0.01074,0.02536 -0.243171,0.202862 -0.516513,0.394462 -0.273341,0.191601 -0.537282,0.388352 -0.586535,0.437224 -0.04926,0.04887 -0.221055,0.193312 -0.381779,0.320979 -0.368415,0.292641 -0.965737,0.889821 -1.098867,1.098607 -0.15635,0.2452 -0.123446,0.434252 0.155566,0.893824 0.460748,0.758913 0.419847,1.255338 -0.134045,1.626971 -0.140453,0.09424 -0.419225,0.102166 -3.6041477,0.102522 C 3.9204224,24.695536 3.603002,24.686747 3.4091121,24.594152 3.1597685,24.475031 2.997059,24.195788 2.9974443,23.887636 2.9975938,23.768131 2.9587825,23.45945 2.9111971,23.20168 2.8636117,22.94391 2.795229,22.535285 2.759235,22.293625 2.7232409,22.051966 2.6586573,21.643341 2.6157155,21.38557 2.5727737,21.1278 2.4945748,20.640087 2.4419404,20.301763 2.3893056,19.963439 2.310002,19.475725 2.2657094,19.217955 2.221417,18.960185 2.1422202,18.472472 2.0897168,18.134147 2.0372132,17.795824 1.9562834,17.384882 1.9098723,17.220944 c -0.046411,-0.163939 -0.084383,-0.346162 -0.084383,-0.404941 0,-0.05878 -0.03845,-0.241002 -0.085445,-0.40494 C 1.6930492,16.247124 1.599476,15.888909 1.5321034,15.615027 1.3074305,14.701693 1.1236838,14.005488 1.0682466,13.857502 1.0151843,13.715855 0.74384945,12.819415 0.55401023,12.15856 0.50310198,11.981343 0.42674334,11.717714 0.38432351,11.572718 0.06377238,10.477035 0.07181388,9.556253 0.40760347,8.9071373 0.52364722,8.6828124 0.58148406,8.645506 0.81491198,8.6444055 0.91963127,8.6439125 1.0053106,8.6211785 1.0053106,8.5938735 c 0,-0.027295 0.1515866,-0.2067806 0.3368591,-0.3988477 C 1.7703873,7.7511036 2.2708215,7.5007663 2.8988898,7.4162917 3.2071654,7.3748299 7.3536753,7.3546563 15.567721,7.3546563 H 27.778286 V 7.1334037 c 0,-0.2069956 0.05598,-0.2771528 0.868656,-1.0887497 0.47776,-0.4771234 0.906157,-0.8912323 0.951993,-0.920242 0.04584,-0.02901 0.248105,-0.053149 0.449488,-0.053643 l 0.366151,-8.967e-4 V 4.4003392 c 0,-0.7321561 -0.02306,-0.676244 0.436697,-1.0587 0.154936,-0.1288853 0.362297,-0.3042546 0.4608,-0.3897098 0.0985,-0.085455 0.279582,-0.1885356 0.402395,-0.2290677 0.174058,-0.057444 0.223297,-0.1039227 0.223297,-0.2107782 0,-0.082796 0.0348,-0.1370835 0.08788,-0.1370835 0.05307,0 0.08788,0.054286 0.08788,0.1370694 0,0.1292248 0.03165,0.1409596 0.553127,0.2050447 0.30422,0.037386 0.658097,0.067975 0.786391,0.067975 0.165481,0 0.285644,0.044074 0.413512,0.1516683 l 0.180248,0.151668 v 1.137184 c 0,0.9717741 0.01279,1.137184 0.08788,1.137184 0.05468,0 0.08788,-0.05533 0.08788,-0.1464605 0,-0.1283272 0.02538,-0.1464605 0.205044,-0.1464605 0.179659,0 0.205045,0.018133 0.205045,0.1464605 0,0.1384717 0.01758,0.1464605 0.322213,0.1464605 0.304638,0 0.322213,-0.00799 0.322213,-0.1464605 0,-0.1283272 0.02538,-0.1464605 0.205045,-0.1464605 0.179658,0 0.205044,0.018133 0.205044,0.1464605 0,0.1366964 0.01953,0.1464605 0.292921,0.1464605 0.273394,0 0.292921,-0.00976 0.292921,-0.1464605 0,-0.1283272 0.02538,-0.1464605 0.205045,-0.1464605 0.179658,0 0.205045,0.018133 0.205045,0.1464605 0,0.1366964 0.01952,0.1464605 0.292921,0.1464605 0.273393,0 0.292921,-0.00976 0.292921,-0.1464605 0,-0.1318144 0.02343,-0.1464605 0.234336,-0.1464605 0.210903,0 0.234337,0.014646 0.234337,0.1464605 0,0.1366964 0.01953,0.1464605 0.292921,0.1464605 0.273393,0 0.292921,-0.00976 0.292921,-0.1464605 0,-0.1277617 0.02566,-0.1464605 0.20097,-0.1464605 0.163811,0 0.204432,0.024373 0.219691,0.1318144 0.01631,0.1148342 0.05834,0.1340956 0.326287,0.1495222 0.29532,0.017003 0.307567,0.011753 0.307567,-0.1318145 0,-0.1318263 0.02427,-0.1495221 0.205045,-0.1495221 0.179659,0 0.205045,0.018133 0.205045,0.1464605 0,0.1366964 0.01953,0.1464605 0.292921,0.1464605 0.273393,0 0.292921,-0.00976 0.292921,-0.1464605 0,-0.1283272 0.02538,-0.1464605 0.205044,-0.1464605 0.179659,0 0.205045,0.018133 0.205045,0.1464605 0,0.1384717 0.01758,0.1464605 0.322213,0.1464605 0.304638,0 0.322213,-0.00799 0.322213,-0.1464605 0,-0.1283272 0.02538,-0.1464605 0.205045,-0.1464605 0.179658,0 0.205045,0.018133 0.205045,0.1464605 0,0.1384717 0.01758,0.1464605 0.322213,0.1464605 0.304637,0 0.322213,-0.00799 0.322213,-0.1464605 0,-0.1283272 0.02538,-0.1464605 0.205044,-0.1464605 0.179659,0 0.205045,0.018133 0.205045,0.1464605 0,0.1366964 0.01953,0.1464605 0.292921,0.1464605 0.273393,0 0.292921,-0.00976 0.292921,-0.1464605 0,-0.1318144 0.02343,-0.1464605 0.234337,-0.1464605 0.210903,0 0.234336,0.014646 0.234336,0.1464605 0,0.1366964 0.01953,0.1464605 0.292921,0.1464605 0.273394,0 0.292921,-0.00976 0.292921,-0.1464605 0,-0.1283272 0.02538,-0.1464605 0.205045,-0.1464605 0.179658,0 0.205045,0.018133 0.205045,0.1464605 0,0.1384717 0.01758,0.1464605 0.322213,0.1464605 0.304637,0 0.322213,-0.00799 0.322213,-0.1464605 0,-0.1283272 0.02538,-0.1464605 0.205044,-0.1464605 0.179659,0 0.205045,0.018133 0.205045,0.1464605 0,0.1366964 0.01953,0.1464605 0.292921,0.1464605 0.273393,0 0.292921,-0.00976 0.292921,-0.1464605 0,-0.1318144 0.02343,-0.1464605 0.234337,-0.1464605 0.210903,0 0.234337,0.014646 0.234337,0.1464605 0,0.1345266 0.02148,0.1464605 0.263628,0.1464605 0.242148,0 0.263629,-0.011934 0.263629,-0.1464605 0,-0.1318144 0.02343,-0.1464605 0.234337,-0.1464605 0.210903,0 0.234337,0.014646 0.234337,0.1464605 0,0.1366964 0.01952,0.1464605 0.292921,0.1464605 0.273393,0 0.292921,-0.00976 0.292921,-0.1464605 0,-0.1283272 0.02538,-0.1464605 0.205044,-0.1464605 0.179659,0 0.205045,0.018133 0.205045,0.1464605 0,0.1384717 0.01758,0.1464605 0.322213,0.1464605 0.304638,0 0.322213,-0.00799 0.322213,-0.1464605 0,-0.1283272 0.02538,-0.1464605 0.205045,-0.1464605 0.179658,0 0.205044,0.018133 0.205044,0.1464605 0,0.1384717 0.01758,0.1464605 0.322214,0.1464605 0.304637,0 0.322213,-0.00799 0.322213,-0.1464605 0,-0.1283272 0.02538,-0.1464605 0.205044,-0.1464605 0.179659,0 0.205045,0.018133 0.205045,0.1464605 0,0.1366964 0.01953,0.1464605 0.292921,0.1464605 0.273393,0 0.292921,-0.00976 0.292921,-0.1464605 0,-0.1283272 0.02538,-0.1464605 0.205045,-0.1464605 0.179658,0 0.205044,0.018133 0.205044,0.1464605 0,0.1384717 0.01758,0.1464605 0.322213,0.1464605 0.304638,0 0.322213,-0.00799 0.322213,-0.1464605 0,-0.1283272 0.02538,-0.1464605 0.205045,-0.1464605 0.179658,0 0.205045,0.018133 0.205045,0.1464605 0,0.1384717 0.01758,0.1464605 0.322213,0.1464605 0.304637,0 0.322213,-0.00799 0.322213,-0.1464605 0,-0.1283272 0.02538,-0.1464605 0.205044,-0.1464605 0.179659,0 0.205045,0.018133 0.205045,0.1464605 0,0.1366964 0.01953,0.1464605 0.292921,0.1464605 0.273393,0 0.292921,-0.00976 0.292921,-0.1464605 0,-0.1318144 0.02343,-0.1464605 0.234337,-0.1464605 0.210903,0 0.234337,0.014646 0.234337,0.1464605 0,0.1366964 0.01952,0.1464605 0.29292,0.1464605 h 0.292921 V 4.7676293 4.1724648 l 0.228732,-0.2982444 c 0.125802,-0.1640345 0.310342,-0.3855509 0.410089,-0.4922588 0.09975,-0.1067079 0.181358,-0.2064573 0.181358,-0.2216653 0,-0.015208 0.07999,-0.105851 0.177773,-0.2014289 0.16638,-0.1626414 0.207096,-0.1737781 0.635346,-0.1737781 0.495769,0 0.552583,0.030659 0.705675,0.3807973 0.165429,0.3783587 0.19897,0.5509832 0.232876,1.1985497 l 0.03515,0.671292 0.231402,0.047882 c 0.127268,0.026335 0.272263,0.082736 0.322213,0.1253359 0.04994,0.0426 0.130356,0.094754 0.178687,0.1158987 0.04833,0.021145 0.219691,0.1173254 0.380797,0.2137352 0.161107,0.09641 0.358829,0.2078039 0.439382,0.2475426 0.08056,0.039739 0.159718,0.08597 0.175916,0.1027366 0.06487,0.067139 0.525899,0.2941095 0.597284,0.2940537 0.04196,-3.27e-5 0.148118,-0.1252563 0.235936,-0.2782749 0.263137,-0.4585298 0.248872,-0.4453065 0.395725,-0.3667127 0.09467,0.050666 0.148628,0.05234 0.194921,0.00605 0.09898,-0.098985 0.306202,-0.076163 0.53519,0.058943 0.173854,0.1025767 0.208395,0.1559796 0.208395,0.322213 0,0.1344351 0.02746,0.199258 0.08442,0.199258 0.14035,0 0.159969,0.103542 0.05726,0.3021696 l -0.09745,0.1884423 0.273558,0.2406957 c 0.196358,0.1727708 0.262745,0.2688708 0.235245,0.3405359 -0.05042,0.1313939 -0.05976,0.1291689 -0.318698,-0.075912 -0.220698,-0.1747969 -0.439738,-0.2354092 -0.397979,-0.1101277 0.01203,0.036093 0.205173,0.1613174 0.429199,0.2782749 0.224025,0.1169576 0.439627,0.2521944 0.479113,0.3005263 0.041,0.050192 0.07258,0.2640879 0.07365,0.4987916 l 0.0019,0.4109151 0.234741,0.1016965 c 0.213026,0.092301 0.521008,0.1016994 3.332107,0.1016994 2.681762,0 3.107177,0.011792 3.170318,0.087876 0.05453,0.065708 0.200645,0.087876 0.579122,0.087876 0.468751,0 0.510474,-0.00975 0.564026,-0.1318144 0.0513,-0.116935 0.106565,-0.1337735 0.489606,-0.1491694 0.341487,-0.013723 0.454801,0.00347 0.541904,0.082308 0.103453,0.093622 0.116763,0.09366 0.219649,5.493e-4 0.09175,-0.08303 0.189222,-0.093547 0.600488,-0.064799 1.242623,0.086864 1.79748,0.093032 2.173075,0.024146 0.316378,-0.058022 0.410869,-0.057506 0.48332,0.00262 0.118439,0.098293 0.117273,0.515104 -0.0021,0.7544055 -0.08384,0.168049 -0.08384,0.201459 0,0.369507 0.118774,0.238095 0.120537,0.656115 0.0032,0.753517 -0.07082,0.05877 -0.175489,0.05955 -0.512612,0.0038 -0.33171,-0.05486 -1.653891,-0.05944 -1.653891,-0.0057 0,0.05394 -0.963944,0.04606 -1.069161,-0.0087 -0.101474,-0.05285 -0.162547,-0.0522 -0.265328,0.0028 -0.0795,0.04255 -0.298721,0.06433 -0.541903,0.05384 -0.358642,-0.01547 -0.415497,-0.03369 -0.466272,-0.14943 -0.05367,-0.122298 -0.09494,-0.131792 -0.573035,-0.131792 -0.403915,0 -0.52249,0.01898 -0.548929,0.08788 -0.02938,0.07656 -0.427722,0.08788 -3.093356,0.08788 -1.682802,0 -3.076988,0.01735 -3.09819,0.03854 -0.07899,0.079 0.09909,0.195927 0.304468,0.199907 0.172161,0.0034 0.19027,0.01368 0.09535,0.05447 -0.06444,0.02769 -0.189667,0.0522 -0.278275,0.05447 -0.137439,0.0036 -0.161107,0.02886 -0.161107,0.172547 0,0.09264 -0.01625,0.249693 -0.03612,0.349014 l -0.03612,0.180585 -0.593663,-0.0082 c -0.326514,-0.0046 -1.298871,-0.0035 -2.16079,0.0025 l -1.567129,0.0107 v 0.166442 c 0,0.09154 -0.03926,0.295856 -0.08724,0.454027 -0.04798,0.158172 -0.08746,0.353494 -0.08773,0.434046 -4.46e-4,0.135484 -0.06682,0.47191 -0.254291,1.288853 -0.06463,0.281635 -0.09336,0.324495 -0.228133,0.340335 -0.202327,0.02378 -0.646236,0.418405 -0.785162,0.697994 -0.100387,0.202028 -0.111446,0.406822 -0.127409,2.359553 -0.01939,2.372783 0.03625,3.389813 0.220758,4.03513 0.196731,0.688038 0.305233,0.651605 -1.940591,0.651605 -1.204686,0 -1.865614,-0.02075 -1.865614,-0.05858 0,-0.03223 -0.03794,-0.05858 -0.08433,-0.05858 -0.06746,0 -0.08797,-0.135174 -0.102523,-0.675578 -0.04216,-1.565584 0.06224,-2.554711 0.45121,-4.274788 0.124147,-0.548998 0.168586,-1.425327 0.08769,-1.7292 -0.08809,-0.330878 -0.292398,-0.603017 -0.605699,-0.806778 -0.238459,-0.155086 -0.268881,-0.159352 -1.269537,-0.17801 -1.038891,-0.01938 -1.619938,0.03069 -1.991862,0.171605 -0.35077,0.132901 -0.982126,0.574327 -1.220791,0.853541 -0.188919,0.221016 -0.744315,1.138089 -1.448551,2.391853 -0.07239,0.128885 -0.239569,0.418459 -0.3715,0.643496 -0.13193,0.225038 -0.239873,0.442532 -0.239873,0.483319 0,0.04078 -0.02378,0.07416 -0.05286,0.07416 -0.02907,0 -0.08187,0.07249 -0.117342,0.161107 -0.03547,0.08861 -0.116745,0.240195 -0.180614,0.336859 -0.06387,0.09666 -0.144528,0.241124 -0.179244,0.321022 -0.03472,0.0799 -0.08124,0.158986 -0.103392,0.175752 -0.02215,0.01677 -0.09247,0.135936 -0.156269,0.264821 -0.0638,0.128886 -0.215384,0.399569 -0.336859,0.601519 -0.121469,0.201949 -0.220858,0.378092 -0.220858,0.391426 0,0.01334 -0.19113,0.348997 -0.424735,0.745916 -0.233605,0.39692 -0.477461,0.826721 -0.541904,0.955115 -0.06444,0.128394 -0.150122,0.268683 -0.190398,0.311753 -0.04028,0.04307 -0.07323,0.103914 -0.07323,0.135209 0,0.194149 -0.91444,1.16367 -1.098454,1.164619 -0.04028,2.08e-4 -0.07323,0.02624 -0.07323,0.05784 0,0.03161 -0.07249,0.07479 -0.161106,0.09596 -0.08861,0.02116 -0.190926,0.06184 -0.22737,0.09038 -0.03644,0.02854 -0.215681,0.09082 -0.398302,0.138382 -0.279594,0.07282 -1.084279,0.08649 -5.094711,0.08649 -4.680928,0 -4.764485,-0.002 -4.868222,-0.116629 -0.09697,-0.107151 -0.102158,-0.203561 -0.06384,-1.18633 0.05813,-1.491139 0.173378,-2.344611 0.437126,-3.237316 0.280942,-0.950903 0.480574,-1.424617 0.888784,-2.109031 0.115308,-0.193328 0.226885,-0.397641 0.247949,-0.454028 0.02106,-0.05639 0.06549,-0.102522 0.09872,-0.102522 0.03323,0 0.06042,-0.02824 0.06042,-0.06276 0,-0.03452 0.03296,-0.09677 0.07323,-0.138319 0.04028,-0.04155 0.152319,-0.176495 0.248983,-0.299873 0.09666,-0.123376 0.258712,-0.323999 0.360106,-0.445828 0.335289,-0.402865 0.459385,-0.732391 0.459748,-1.220826 2.66e-4,-0.35943 -0.02886,-0.499734 -0.160043,-0.771051 -0.166782,-0.344937 -0.635577,-0.80965 -0.817459,-0.810344 -0.05449,-2.08e-4 -0.114418,-0.02521 -0.133181,-0.05557 -0.06786,-0.109805 -0.537379,-0.132473 -0.887091,-0.04283 -0.189898,0.04868 -0.569353,0.132502 -0.843234,0.186276 -0.273881,0.05377 -0.682506,0.135849 -0.908055,0.182391 -0.22555,0.04654 -0.607811,0.125108 -0.849471,0.174591 -0.241659,0.04948 -0.61074,0.125956 -0.820179,0.16994 -0.209438,0.04398 -0.552155,0.110271 -0.761594,0.147306 -0.46913,0.08296 -1.1322,0.21647 -1.651903,0.332622 -0.495793,0.110809 -0.585818,0.229974 -0.630194,0.834193 -0.03658,0.497916 -0.01004,0.477947 -0.785388,0.591145 -0.221048,0.03227 -0.445132,0.08431 -0.497966,0.115621 -0.08533,0.05058 -0.08258,0.06076 0.02459,0.09108 0.101182,0.02864 0.131895,0.111962 0.190398,0.516589 0.03837,0.265346 0.06976,0.56676 0.06976,0.669807 0,0.103046 0.02105,0.187358 0.04679,0.187358 0.02574,0 0.04691,0.09886 0.04706,0.21969 4.57e-4,0.367926 0.128686,1.153107 0.191749,1.174128 0.03262,0.01087 0.0467,0.05265 0.03128,0.09283 -0.03076,0.08017 0.12516,1.117755 0.18173,1.209287 0.01937,0.03133 0.04391,0.185048 0.05456,0.341597 0.01065,0.156548 0.04871,0.339483 0.0846,0.406519 0.03587,0.06704 0.06539,0.209299 0.0656,0.316135 1.99e-4,0.106838 0.03974,0.269762 0.08788,0.362054 0.04813,0.09229 0.08751,0.265202 0.08751,0.384246 0,0.119043 0.03661,0.266512 0.08136,0.327708 0.04475,0.0612 0.06849,0.144799 0.05276,0.185782 -0.01573,0.04098 0.01167,0.213448 0.06088,0.383251 0.04921,0.169805 0.121163,0.433959 0.159893,0.58701 0.03873,0.153051 0.09491,0.278275 0.124848,0.278275 0.02994,0 0.03685,0.02845 0.01536,0.06321 -0.05014,0.08113 0.08829,0.581213 0.160883,0.581213 0.0302,0 0.03953,0.04848 0.02072,0.107733 -0.0188,0.05925 0.0093,0.21084 0.06242,0.336859 0.05314,0.126019 0.145159,0.426708 0.204497,0.668197 0.09647,0.392591 0.214166,0.586153 0.356422,0.586153 0.02607,0 0.04738,0.03955 0.04738,0.08788 0,0.04833 0.01977,0.08804 0.04393,0.08825 0.06824,5.76e-4 0.248982,0.347007 0.248982,0.477235 0,0.162327 -0.12545,0.271033 -0.389665,0.337654 -0.124007,0.03127 -0.326566,0.08244 -0.45013,0.113713 -0.123564,0.03127 -0.294923,0.08238 -0.380797,0.113578 -0.08587,0.0312 -0.301131,0.09961 -0.478349,0.152025 -0.177217,0.05242 -0.57266,0.173934 -0.878763,0.27003 -0.306102,0.0961 -0.701545,0.217641 -0.878763,0.270097 -0.770639,0.228114 -0.918632,0.275445 -1.100442,0.351953 -0.105812,0.04452 -0.232239,0.08096 -0.280951,0.08096 -0.04871,0 -0.291673,0.06431 -0.539916,0.142914 -0.248242,0.07861 -0.670105,0.208668 -0.937471,0.289035 l -0.486111,0.146113 z m 20.605995,-5.732838 c 0.144996,-0.04514 0.354546,-0.128491 0.465665,-0.185216 0.237377,-0.121174 0.683782,-0.553026 0.766866,-0.741865 0.03194,-0.07258 0.110004,-0.211051 0.173489,-0.307715 0.06349,-0.09666 0.142632,-0.228478 0.175879,-0.292921 0.03325,-0.06444 0.139837,-0.248983 0.236865,-0.410089 0.09703,-0.161107 0.203681,-0.358292 0.237006,-0.438189 0.03332,-0.0799 0.07874,-0.158987 0.100918,-0.175753 0.02218,-0.01677 0.101054,-0.149117 0.175277,-0.294113 0.07422,-0.144996 0.185848,-0.342718 0.248058,-0.439382 0.06221,-0.09666 0.140076,-0.228478 0.173035,-0.29292 0.03296,-0.06444 0.138706,-0.248983 0.234992,-0.41009 0.09629,-0.161106 0.20758,-0.358828 0.247319,-0.439381 0.03973,-0.08056 0.08651,-0.159642 0.10393,-0.175753 0.01742,-0.01611 0.0632,-0.0952 0.101736,-0.175752 0.03854,-0.08056 0.149692,-0.278275 0.247018,-0.439382 0.09733,-0.161106 0.195262,-0.332465 0.217634,-0.380797 0.02237,-0.04833 0.194077,-0.347367 0.381568,-0.664522 0.187493,-0.317156 0.340896,-0.587899 0.340896,-0.601652 0,-0.01375 0.06206,-0.123344 0.13792,-0.243533 0.186573,-0.295614 0.345947,-0.951552 0.298593,-1.228922 -0.05688,-0.333134 -0.155014,-0.605081 -0.311906,-0.864299 -0.206393,-0.341001 -0.354549,-0.472684 -0.755812,-0.671772 l -0.358155,-0.177699 h -1.265755 c -1.029796,0 -1.298557,0.01697 -1.441714,0.09099 -0.198718,0.102765 -0.404065,0.292221 -0.404065,0.372803 0,0.02954 -0.02596,0.06249 -0.05771,0.07324 -0.16088,0.05444 -0.170278,1.393157 -0.01117,1.591046 0.03045,0.03786 0.07367,0.154518 0.09606,0.259238 l 0.04071,0.190398 h -0.824834 c -0.815941,0 -0.824847,0.0014 -0.826136,0.131815 -7.16e-4,0.07249 -0.05119,0.196733 -0.112164,0.276077 -0.0967,0.125833 -0.16576,0.146865 -0.540601,0.164633 -0.720839,0.03417 -0.679423,-0.007 -1.332145,1.324403 -2.044789,4.170913 -2.057305,4.198714 -2.054809,4.564027 0.0028,0.408927 0.331819,0.879327 0.711103,1.01665 0.300922,0.108952 4.032783,0.105893 4.384434,-0.0036 z M 57.348656,13.172692 c -0.05639,-0.01473 -0.148657,-0.01473 -0.205044,0 -0.05639,0.01473 -0.01026,0.02679 0.102522,0.02679 0.112775,0 0.158909,-0.01205 0.102522,-0.02679 z m 17.12123,-3.211039 c 0,-0.0716 -0.09764,-0.08788 -0.527258,-0.08788 -0.429615,0 -0.527257,0.01627 -0.527257,0.08788 0,0.0716 0.09764,0.08788 0.527257,0.08788 0.429616,0 0.527258,-0.01627 0.527258,-0.08788 z m 0,-0.7615947 c 0,-0.071604 -0.09764,-0.087876 -0.527258,-0.087876 -0.429615,0 -0.527257,0.016272 -0.527257,0.087876 0,0.071604 0.09764,0.087877 0.527257,0.087877 0.429616,0 0.527258,-0.01627 0.527258,-0.087877 z M 45.949418,7.1405318 C 46.095524,7.0083078 46.085207,6.7414897 45.928338,6.5953439 45.804823,6.4802726 45.73113,6.4758934 43.91823,6.4758934 c -1.812899,0 -1.886593,0.00438 -2.010108,0.1194505 -0.170213,0.1585786 -0.16923,0.431019 0.002,0.5509457 0.111349,0.077993 0.405465,0.091198 2.031188,0.091198 1.686672,0 1.913061,-0.01093 2.008119,-0.096956 z m 5.438297,-0.020212 C 51.541262,6.9667716 51.536582,6.7443264 51.376668,6.5953439 51.252126,6.4793145 51.182205,6.4758934 48.935391,6.4758934 c -2.070115,0 -2.324314,0.010183 -2.420198,0.096956 -0.133491,0.1208086 -0.138868,0.4153024 -0.01018,0.557503 0.09084,0.1003762 0.244225,0.1071353 2.431244,0.1071353 2.256175,0 2.338208,-0.00392 2.451457,-0.1171684 z m 3.084904,-0.014646 c 0.157776,-0.1758898 0.392261,-0.3710445 0.542309,-0.451348 0.286813,-0.153498 0.08754,-0.1784321 -1.426054,-0.1784321 h -1.548229 l -0.124731,0.1585709 c -0.08671,0.1102236 -0.113814,0.203999 -0.08893,0.307567 0.0669,0.278352 0.146645,0.2954566 1.377466,0.2954566 1.118422,0 1.153162,-0.00361 1.268162,-0.1318144 z m 2.043875,-3.09076 c 0,-0.13377 -0.02578,-0.2263141 -0.05992,-0.2151019 -0.07113,0.023363 -0.111826,0.247856 -0.06638,0.3662669 0.06136,0.1599021 0.126303,0.082176 0.126303,-0.151165 z m 1.696279,4.439e-4 c 0,-0.1074044 -0.02696,-0.204268 -0.05991,-0.2152525 -0.0342,-0.0114 -0.05992,0.080989 -0.05992,0.2152525 0,0.1342636 0.02572,0.2266523 0.05992,0.2152524 0.03296,-0.010985 0.05991,-0.1078481 0.05991,-0.2152524 z"
   id="path1" /></svg>
