<?xml version="1.0" encoding="UTF-8" standalone="no"?>
<!-- Generator: Adobe Illustrator 16.0.0, SVG Export Plug-In . SVG Version: 6.00 Build 0)  -->

<svg
   version="1.1"
   x="0px"
   y="0px"
   width="88.5px"
   height="32px"
   viewBox="0 0 88.5 32"
   enable-background="new 0 0 88.5 32"
   xml:space="preserve"
   id="svg1"
   sodipodi:docname="ak47.svg"
   inkscape:version="1.3 (0e150ed6c4, 2023-07-21)"
   xmlns:inkscape="http://www.inkscape.org/namespaces/inkscape"
   xmlns:sodipodi="http://sodipodi.sourceforge.net/DTD/sodipodi-0.dtd"
   xmlns="http://www.w3.org/2000/svg"
   xmlns:svg="http://www.w3.org/2000/svg"><defs
   id="defs1" /><sodipodi:namedview
   id="namedview1"
   pagecolor="#ffffff"
   bordercolor="#000000"
   borderopacity="0.25"
   inkscape:showpageshadow="2"
   inkscape:pageopacity="0.0"
   inkscape:pagecheckerboard="0"
   inkscape:deskcolor="#d1d1d1"
   showgrid="false"
   inkscape:zoom="9.9438842"
   inkscape:cx="56.064611"
   inkscape:cy="21.269355"
   inkscape:window-width="1920"
   inkscape:window-height="1009"
   inkscape:window-x="-8"
   inkscape:window-y="-8"
   inkscape:window-maximized="1"
   inkscape:current-layer="svg1" />&#10;&#10;<g
   id="guides">&#10;</g>&#10;<path
   style="fill:#ffffff;stroke-width:0.0078125"
   d=""
   id="path7" /><path
   style="fill:#ffffff;stroke-width:0.0078125"
   d=""
   id="path13" /><path
   style="fill:#ffffff;stroke-width:0.0078125"
   d=""
   id="path14" /><path
   style="fill:#ffffff;stroke-width:0.0710836"
   d="m 49.619534,28.603794 c -0.169499,-0.197288 -0.531919,-0.52321 -0.805377,-0.724271 -0.627355,-0.461265 -0.654172,-0.482971 -0.835601,-0.676347 -0.08253,-0.08797 -0.173195,-0.159938 -0.201472,-0.159938 -0.05369,0 -0.103421,-0.04135 -1.202457,-0.999684 C 45.704244,25.2846 44.762225,24.2898 43.837901,23.153492 43.632974,22.901566 42.809419,21.797543 42.70056,21.628818 c -0.0391,-0.0606 -0.122156,-0.186635 -0.184578,-0.280084 -0.09388,-0.140551 -0.482999,-0.77064 -0.896013,-1.450897 -0.04698,-0.07738 -0.312807,-0.604511 -0.590726,-1.171404 -0.277919,-0.566893 -0.551361,-1.115619 -0.607649,-1.219392 -0.05629,-0.103772 -0.102341,-0.222852 -0.102341,-0.264621 0,-0.04177 -0.07573,-0.244754 -0.168294,-0.451077 -0.228799,-0.509997 -0.542544,-1.354395 -0.542544,-1.460173 0,-0.146598 -0.351885,-1.013935 -0.698942,-1.72277 l -0.330635,-0.675296 -0.03611,0.474835 c -0.02652,0.348768 -0.07874,0.528056 -0.19668,0.675296 -0.21632,0.270062 -0.278785,0.429072 -0.376617,0.958696 -0.109327,0.591848 -0.18263,0.770067 -0.316735,0.770067 -0.09068,0 -0.107461,-0.08474 -0.09321,-0.470621 0.01535,-0.415623 -0.0016,-0.485967 -0.144799,-0.601943 -0.222492,-0.180162 -0.667545,-0.260791 -0.710239,-0.128673 -0.06005,0.185834 -0.484521,0.530395 -0.763371,0.619664 -0.292021,0.09348 -1.954121,0.219263 -3.064605,0.231912 -0.907658,0.01034 -1.244155,-0.162609 -1.798107,-0.924164 -0.09728,-0.133743 -0.134654,-0.139541 -0.426503,-0.06618 -0.409282,0.102885 -0.622257,0.29822 -0.720093,0.660447 -0.04287,0.158726 -0.134299,0.448531 -0.203174,0.644011 -0.118784,0.337134 -0.338402,1.025566 -0.759663,2.381307 -0.103259,0.332317 -0.244473,0.764151 -0.313808,0.959632 -0.06933,0.19548 -0.145476,0.435388 -0.1692,0.533128 -0.02373,0.09774 -0.113021,0.393287 -0.198435,0.656772 -0.126935,0.391572 -0.140642,0.5149 -0.07505,0.675296 0.286056,0.699534 0.278748,0.646748 0.128153,0.925654 -0.232903,0.431337 -0.535512,0.58563 -1.14858,0.58563 -0.356076,0 -0.655014,-0.0479 -0.931347,-0.149247 -0.223826,-0.08208 -0.518913,-0.175075 -0.65575,-0.20664 -0.79461,-0.18331 -1.2192,-0.426233 -1.494307,-0.854949 -0.25991,-0.405035 -0.26751,-0.656205 -0.03972,-1.312639 0.09497,-0.273672 0.33745,-1.025384 0.538852,-1.670469 0.201402,-0.645085 0.423919,-1.348815 0.494483,-1.563844 0.07056,-0.215028 0.215613,-0.67885 0.322333,-1.030715 0.106719,-0.351864 0.23849,-0.781399 0.292823,-0.954523 0.05434,-0.173123 0.09879,-0.434369 0.09879,-0.580548 0,-0.309554 -0.203349,-0.813295 -0.419779,-1.039885 -0.194147,-0.203262 -0.291059,-0.46217 -0.291059,-0.777589 v -0.251141 l -0.441415,0.05123 c -0.242777,0.02818 -0.490681,0.07535 -0.550899,0.104838 -0.113018,0.05534 -0.817782,0.268068 -1.993205,0.601644 -0.650836,0.184702 -1.211981,0.35394 -2.345766,0.707468 -0.29322,0.09143 -0.837011,0.254139 -1.208424,0.361577 -0.978607,0.283079 -1.673511,0.506094 -3.092145,0.992362 -0.19548,0.067 -0.707284,0.235688 -1.137341,0.37485 -0.430057,0.139162 -0.94186,0.309256 -1.137341,0.377985 -0.19548,0.06873 -0.643308,0.210959 -0.995172,0.316063 -1.473005,0.439997 -1.806463,0.538354 -2.3813076,0.702391 -0.3323166,0.09483 -0.8441206,0.243692 -1.1373406,0.330806 -0.2932208,0.08711 -0.8162566,0.188192 -1.1623016,0.224617 -0.8090666,0.08516 -0.9702126,0.146813 -0.9702126,0.371166 0,0.0964 0.027487,0.192262 0.061081,0.213024 0.1106499,0.06839 0.5878554,1.114433 0.56427,1.236897 -0.012695,0.06593 -0.070176,0.119877 -0.1277288,0.119877 -0.1163786,0 -0.519924,-0.570915 -0.683176,-0.966522 C 6.2184103,17.857259 5.8945533,17.6348 5.5957334,17.690859 c -0.1294765,0.02429 -0.2745305,0.0913 -0.3223422,0.148908 -0.047812,0.05761 -0.1445347,0.104744 -0.2149401,0.104744 -0.070406,0 -0.2184304,0.07352 -0.3289442,0.163365 -0.3234611,0.262983 -1.5213759,0.659177 -2.5700845,0.850021 -0.2094976,0.03813 -0.6701753,0.04672 -1.0307151,0.01923 C 0.55612812,18.933476 0.46151355,18.906905 0.35129132,18.75879 0.23896467,18.607847 0.23373901,18.524573 0.3014931,17.965225 0.51018335,16.242368 0.45632075,13.333399 0.18133619,11.475886 0.12056484,11.065378 0.0662172,10.32966 0.06056361,9.8409587 L 0.05028461,8.952411 0.40570357,8.9405147 C 1.1046972,8.917118 3.2618203,8.7776425 3.9598933,8.7107068 4.3508542,8.6732155 5.358467,8.607938 6.1990329,8.565638 7.0395988,8.5233402 8.2711258,8.4568405 8.935759,8.4178634 c 4.267898,-0.2502853 4.93729,-0.2527826 6.104154,-0.022775 0.317747,0.062634 0.737661,0.1873998 0.933142,0.2772601 0.47943,0.2203877 1.386231,0.3983978 1.759927,0.3454831 0.502563,-0.071162 1.327543,-0.2416279 1.859668,-0.3842637 0.276796,-0.074195 0.839136,-0.2187973 1.249645,-0.3213392 0.410508,-0.1025412 1.034269,-0.2620226 1.386133,-0.3544028 0.60868,-0.1598065 1.797219,-0.3465398 1.93866,-0.3045862 0.03646,0.010815 0.186401,-0.1234293 0.333199,-0.2983193 l 0.266906,-0.317982 -0.213317,-0.055276 C 24.247572,6.9022915 24.237328,6.7792722 24.512059,6.4794897 24.731971,6.2395244 24.787454,6.2156809 25.126051,6.2156336 l 0.372233,-5.23e-5 0.487376,-0.6041602 c 0.268058,-0.3322883 0.510829,-0.6041601 0.53949,-0.6041601 0.02866,0 0.08855,-0.079969 0.133083,-0.1777096 0.07766,-0.1704404 0.107198,-0.1777089 0.722248,-0.1777089 0.396632,0 0.641278,-0.028203 0.641278,-0.073939 0,-0.072106 1.298648,-0.061623 3.799719,0.030663 0.600155,0.022146 1.025053,0.0091 1.075828,-0.033045 0.100626,-0.083512 4.656011,-0.049628 4.955771,0.036862 0.143575,0.041428 0.266039,0.0217 0.437067,-0.070409 0.222112,-0.1196151 0.245357,-0.1202046 0.356513,-0.00905 0.138686,0.1386859 0.851795,0.1659654 1.121859,0.04292 0.117266,-0.053431 0.925533,-0.05611 2.722299,-0.00901 1.456641,0.038177 2.58455,0.04029 2.623042,0.00488 0.09192,-0.084495 0.375945,-0.078543 0.430057,0.00901 0.05258,0.085065 0.864572,0.096303 0.916254,0.012681 0.01985,-0.032119 -0.02537,-0.1110276 -0.100484,-0.1753459 C 46.158021,4.2453894 46.118986,3.9883233 46.2519,3.7082287 46.31579,3.573593 46.358561,3.4196993 46.34695,3.3662431 c -0.01193,-0.054901 0.04847,-0.10781 0.138826,-0.121595 0.08797,-0.013423 0.159938,0.00981 0.159938,0.051628 0,0.041817 0.0723,0.076028 0.160665,0.076028 0.08837,0 0.253224,0.085825 0.366352,0.1907228 0.175215,0.1624692 0.258988,0.1878946 0.565488,0.1716271 0.279602,-0.014844 0.412394,-0.06527 0.595752,-0.2262652 0.129775,-0.1139426 0.252421,-0.2071689 0.272551,-0.2071689 0.09391,0 0.455109,0.2241015 0.505821,0.3138268 0.04445,0.07864 0.126619,0.087068 0.376723,0.038636 0.175932,-0.034063 0.675822,-0.063334 1.110866,-0.065037 0.613574,-0.0024 0.810837,-0.027009 0.87948,-0.1097214 0.05837,-0.070317 0.217217,-0.106626 0.466554,-0.106626 0.207933,0 0.397831,-0.031985 0.421994,-0.071084 0.08884,-0.1437413 0.441975,-0.076758 0.562133,0.106626 0.106938,0.1632065 0.159613,0.1777089 0.645457,0.1777089 0.490643,0 0.547288,0.016045 0.780916,0.2211716 0.138545,0.1216445 0.271077,0.2975764 0.294514,0.3909611 0.05383,0.2144495 0.255725,0.2201644 0.347995,0.00985 0.0544,-0.1239947 0.150044,-0.1702629 0.425588,-0.2058768 0.588081,-0.076011 9.833989,0.0065 10.271609,0.091694 0.584332,0.11372 0.779402,0.2037937 0.823716,0.3803526 0.05873,0.234008 0.450375,0.2670101 3.431831,0.2891896 1.736667,0.012921 2.610354,0.044503 2.662088,0.09624 0.04814,0.048129 0.46493,0.077418 1.11128,0.078098 0.568844,5.987e-4 1.066557,0.024591 1.106021,0.05331 0.0857,0.06238 0.461374,0.633059 0.461374,0.7008677 0,0.026111 0.112594,0.2171023 0.250203,0.4244197 0.355001,0.5348296 0.79182,0.8667878 1.390288,1.0565358 0.278781,0.088384 0.532002,0.2013798 0.562729,0.2511003 0.04425,0.071543 0.636956,0.083777 2.841392,0.05864 3.077741,-0.035088 2.87554,4.376e-4 2.951752,-0.5186264 0.02311,-0.1571842 0.118044,-0.5896726 0.21103,-0.961085 0.176062,-0.7032561 0.49162,-2.0654949 0.573884,-2.4773998 0.07688,-0.3849068 0.254267,-0.5081198 0.73156,-0.5081198 0.340956,0 0.44142,0.029066 0.568674,0.1645198 0.150241,0.159926 0.154553,0.214511 0.154553,1.9548044 v 1.7902846 h 0.163494 c 0.20833,0 0.334092,0.1257718 0.334092,0.3340936 0,0.1589407 0.01852,0.1634928 0.664424,0.1634928 0.562383,0 0.689588,0.021834 0.828342,0.1421678 0.09015,0.078192 0.218975,0.1421679 0.286274,0.1421679 0.20476,0 0.698742,0.1982485 0.853704,0.3426224 0.126427,0.1177865 0.143293,0.2069081 0.125063,0.6609123 l -0.02106,0.5247669 -0.604215,0.00608 c -0.332311,0.00332 -1.029497,0.011352 -1.549293,0.01777 l -0.945078,0.01167 0.04552,0.2426133 c 0.02502,0.1334375 0.02396,0.3104597 -0.0021,0.3933823 -0.04708,0.1484133 -0.06666,0.1500063 -1.250713,0.1019403 -1.195883,-0.048546 -1.202866,-0.047945 -1.202866,0.10285 0,0.186612 -0.186382,0.241877 -0.714639,0.2119 -0.321977,-0.01827 -0.398981,-0.0489 -0.457331,-0.181909 l -0.07019,-0.1599387 h -2.240966 -2.240966 l -0.07019,0.1599387 c -0.05839,0.13301 -0.135355,0.163638 -0.457332,0.181909 -0.212945,0.01209 -0.463961,0.0027 -0.557824,-0.02087 -0.143017,-0.03589 -0.163105,-0.07299 -0.123974,-0.228892 l 0.04672,-0.1860566 -3.505102,0.047635 c -1.927804,0.026196 -4.136858,0.068303 -4.909006,0.093572 -1.293855,0.04233 -1.403905,0.05609 -1.403905,0.17542 0,0.371893 -0.36455,0.411049 -4.193944,0.450465 -7.068096,0.07275 -7.917734,0.13077 -9.383082,0.64071 -1.131224,0.393666 -1.210788,0.411395 -1.677981,0.373924 -0.438911,-0.0352 -1.028475,-0.303271 -1.151852,-0.523734 -0.04913,-0.0878 -0.38136,-0.08445 -2.453527,0.02474 l -2.396699,0.126287 0.125147,0.17771 c 0.06883,0.09774 0.176706,0.369635 0.23972,0.604212 0.309321,1.151466 0.55273,1.89647 0.812864,2.487932 0.08598,0.195481 0.261783,0.595327 0.390683,0.888548 0.318581,0.724706 1.247193,2.354331 1.417703,2.487932 0.06652,0.05212 0.286746,0.540967 0.286746,0.636497 0,0.103609 0.264281,0.493813 0.61613,0.909699 0.461853,0.545913 1.851462,1.93691 1.934976,1.93691 0.04345,0 0.07899,0.02964 0.07899,0.06586 0,0.07863 1.17998,1.000394 1.280641,1.000394 0.03847,0 0.06995,0.02753 0.06995,0.06119 0,0.05161 0.388549,0.318082 1.116484,0.765688 0.152857,0.09399 0.153762,0.102342 0.03554,0.3278 -0.06672,0.127244 -0.141293,0.247371 -0.165715,0.266947 -0.02442,0.01958 -0.104392,0.147688 -0.17771,0.284687 -0.07332,0.137001 -0.205277,0.349859 -0.293243,0.473018 -0.08797,0.12316 -0.159939,0.247958 -0.159939,0.277328 0,0.02937 -0.07537,0.152383 -0.16748,0.273362 -0.207808,0.272922 -0.288105,0.513474 -0.191359,0.573266 0.04708,0.02909 0.02135,0.147499 -0.07162,0.329747 -0.10435,0.204541 -0.183448,0.278275 -0.281805,0.262696 -0.105657,-0.01674 -0.234144,0.137971 -0.565243,0.680591 -0.235677,0.386237 -0.428504,0.71909 -0.428504,0.73967 0,0.02058 -0.07997,0.142266 -0.177709,0.27041 -0.09774,0.128144 -0.177709,0.251752 -0.177709,0.274686 0,0.02294 -0.08037,0.169013 -0.178601,0.32462 -0.158443,0.250989 -0.20991,0.282923 -0.45597,0.282923 -0.245078,0 -0.313248,-0.04176 -0.585551,-0.358706 z M 34.597008,15.06019 c 0.917541,-0.03712 1.119758,-0.06713 1.449858,-0.215168 l 0.383601,-0.172033 -0.04985,-1.19861 c -0.04063,-0.976756 -0.03162,-1.21685 0.04868,-1.297149 0.129673,-0.129674 0.212218,-0.468196 0.127006,-0.52086 -0.03691,-0.02282 -0.682896,-0.0095 -1.435514,0.02961 l -1.368396,0.07109 -0.377384,0.405501 c -0.358548,0.385263 -0.377384,0.424546 -0.377384,0.787031 0,0.209841 0.04684,0.472094 0.104073,0.582783 0.131613,0.254511 0.506891,0.573608 0.674599,0.573608 0.15563,0 0.3172,0.178909 0.253967,0.281222 -0.08218,0.132977 -0.438013,0.07829 -0.720613,-0.110754 -0.672544,-0.449889 -0.963943,-0.929301 -1.010953,-1.663228 -0.01628,-0.254124 -0.0656,-0.485545 -0.109607,-0.514269 -0.04401,-0.02873 -0.230067,-0.05272 -0.413466,-0.05331 -0.183399,-5.99e-4 -0.353222,-0.03307 -0.377385,-0.07217 -0.134385,-0.217439 -0.177674,0.02118 -0.177313,0.977403 4.72e-4,1.249405 0.06463,1.528569 0.431776,1.878787 0.318831,0.304128 0.457311,0.336797 1.273839,0.300513 0.332316,-0.01477 1.084028,-0.04626 1.670469,-0.06999 z M 85.315296,9.6987912 c 0,-0.039096 -0.048,-0.071084 -0.106628,-0.071084 -0.05867,0 -0.106621,0.031985 -0.106621,0.071084 0,0.039097 0.048,0.071084 0.106621,0.071084 0.05867,0 0.106628,-0.031985 0.106628,-0.071084 z M 72.253645,9.4396067 c 1.877193,-0.038304 2.328,-0.065991 2.328,-0.1429539 0,-0.078546 -0.602673,-0.095449 -3.403322,-0.095449 -2.938452,0 -3.415404,0.014561 -3.491808,0.106626 -0.06283,0.075701 -0.229065,0.1066254 -0.57318,0.1066254 -0.291344,0 -0.505039,0.032932 -0.535709,0.082554 -0.03849,0.062288 0.366164,0.071207 1.648504,0.036325 0.934737,-0.025425 2.747122,-0.067603 4.027515,-0.093732 z m 4.034009,-0.096235 c 0,-0.039096 -0.159939,-0.071084 -0.355418,-0.071084 -0.195479,0 -0.355418,0.031985 -0.355418,0.071084 0,0.039096 0.159939,0.071084 0.355418,0.071084 0.195479,0 0.355418,-0.031985 0.355418,-0.071084 z m 5.757787,-0.03554 c 0,-0.092557 -0.300128,-0.106626 -2.274683,-0.106626 -1.974547,0 -2.274675,0.014066 -2.274675,0.106626 0,0.092557 0.300128,0.1066254 2.274675,0.1066254 1.974555,0 2.274683,-0.014066 2.274683,-0.1066254 z M 74.581645,7.3943814 c 0,-0.105529 -0.09971,-0.254607 -0.170287,-0.254607 -0.04623,0 -0.210711,-0.065956 -0.365589,-0.1465687 -0.24681,-0.1284649 -0.408898,-0.146486 -1.312308,-0.1458979 -0.566893,3.69e-4 -1.843207,-0.01524 -2.836255,-0.034678 -1.211875,-0.023729 -1.830079,-0.010815 -1.880166,0.039273 -0.04104,0.04104 -0.148196,0.074623 -0.238117,0.074623 -0.08992,0 -0.163493,0.031985 -0.163493,0.071084 0,0.039096 0.03198,0.071084 0.07108,0.071084 0.0391,0 0.07108,0.079969 0.07108,0.1777096 v 0.177709 h 3.412023 c 1.876614,0 3.412024,-0.013374 3.412024,-0.02973 z M 59.149369,7.0724852 c 0.08209,-0.043938 0.149257,-0.1093764 0.149257,-0.1454279 0,-0.03694 -0.581756,-0.074629 -1.332821,-0.086354 -1.091976,-0.017049 -1.355299,-0.00191 -1.457217,0.083846 -0.178295,0.1499962 -0.155313,0.2017072 0.106625,0.2399201 0.420705,0.061376 2.380524,-0.00976 2.534156,-0.091984 z m 5.205856,-0.055919 c 0.04812,-0.048221 0.06306,-0.1121946 0.03321,-0.1421678 -0.136074,-0.1365844 -3.170541,-0.094022 -3.170541,0.044468 0,0.02821 0.08797,0.087039 0.19548,0.1307246 0.279285,0.1134804 2.82415,0.084909 2.941856,-0.033031 z m -4.52347,-0.09004 c 0.02416,-0.039096 -0.02193,-0.071084 -0.10243,-0.071084 -0.0805,0 -0.146363,0.031985 -0.146363,0.071084 0,0.039096 0.04609,0.071084 0.10243,0.071084 0.05634,0 0.1222,-0.031985 0.146363,-0.071084 z M 85.066507,6.2867687 V 5.8247241 h -0.568038 -0.568038 l -0.09868,0.3690763 c -0.152128,0.569051 -0.119578,0.5996879 0.611601,0.5755688 l 0.623151,-0.020555 z M 47.871533,4.4030479 c 0.03105,-0.1624304 0.01238,-0.177709 -0.217138,-0.177709 -0.234922,0 -0.511097,0.1595952 -0.511097,0.295352 0,0.033038 0.156209,0.060068 0.347132,0.060068 0.313826,0 0.350391,-0.017049 0.381103,-0.1777096 z m 1.404279,-0.2487932 c 0,-0.039096 -0.03198,-0.071084 -0.07109,-0.071084 -0.03909,0 -0.07108,0.031985 -0.07108,0.071084 0,0.039096 0.03199,0.071084 0.07108,0.071084 0.0391,0 0.07109,-0.031985 0.07109,-0.071084 z"
   id="path1" /></svg>
