<?xml version="1.0" encoding="UTF-8" standalone="no"?>
<!-- Generator: Adobe Illustrator 16.0.0, SVG Export Plug-In . SVG Version: 6.00 Build 0)  -->

<svg
   version="1.1"
   x="0px"
   y="0px"
   width="98px"
   height="32px"
   viewBox="0 0 98 32"
   enable-background="new 0 0 98 32"
   xml:space="preserve"
   id="svg1"
   sodipodi:docname="scar20.svg"
   inkscape:version="1.3 (0e150ed6c4, 2023-07-21)"
   xmlns:inkscape="http://www.inkscape.org/namespaces/inkscape"
   xmlns:sodipodi="http://sodipodi.sourceforge.net/DTD/sodipodi-0.dtd"
   xmlns="http://www.w3.org/2000/svg"
   xmlns:svg="http://www.w3.org/2000/svg"><defs
   id="defs1" /><sodipodi:namedview
   id="namedview1"
   pagecolor="#ffffff"
   bordercolor="#000000"
   borderopacity="0.25"
   inkscape:showpageshadow="2"
   inkscape:pageopacity="0.0"
   inkscape:pagecheckerboard="0"
   inkscape:deskcolor="#d1d1d1"
   showgrid="false"
   inkscape:zoom="8.8047542"
   inkscape:cx="71.268316"
   inkscape:cy="18.342363"
   inkscape:window-width="1920"
   inkscape:window-height="1009"
   inkscape:window-x="-8"
   inkscape:window-y="-8"
   inkscape:window-maximized="1"
   inkscape:current-layer="svg1" />&#10;&#10;<g
   id="guides">&#10;</g>&#10;<path
   style="fill:#ffffff;stroke-width:0.0817008"
   d="m 29.459773,28.262058 c -0.157274,-0.05951 -0.356875,-0.110267 -0.443558,-0.112803 -0.08668,-0.0025 -0.399189,-0.07559 -0.694457,-0.162333 -0.295269,-0.08675 -0.812593,-0.231282 -1.149608,-0.321191 -1.344167,-0.358595 -1.643652,-0.45099 -1.686494,-0.520308 -0.03837,-0.06208 0.333853,-0.684034 0.879104,-1.468922 0.08458,-0.121754 0.153783,-0.259623 0.153783,-0.306378 0,-0.04676 0.02884,-0.08501 0.06409,-0.08501 0.03525,0 0.134513,-0.119487 0.220591,-0.265527 0.08608,-0.146041 0.188668,-0.302293 0.227978,-0.347229 0.03931,-0.04494 0.306799,-0.449355 0.594421,-0.898709 0.287621,-0.449355 0.561106,-0.872156 0.607746,-0.93956 0.888191,-1.283617 1.299391,-1.850616 1.747913,-2.410174 0.533848,-0.66601 0.665208,-0.990104 0.573383,-1.414665 -0.03581,-0.16558 -0.06703,-0.335823 -0.06937,-0.37832 -0.0024,-0.0425 -0.06656,-0.152792 -0.142705,-0.245102 -0.911152,-1.104561 -0.849319,-1.08022 -2.930025,-1.153424 -1.063514,-0.03741 -1.691198,-0.09141 -1.72805,-0.148659 -0.04123,-0.06406 -0.08704,-0.06074 -0.159316,0.01154 -0.06933,0.06933 -0.406653,0.101443 -1.065514,0.101443 -0.802483,0 -0.96407,-0.02054 -0.96407,-0.122552 0,-0.178293 -4.799804,-0.175342 -6.045862,0.0037 -0.471823,0.0678 -1.287937,0.156525 -1.813589,0.197164 -1.389682,0.107438 -1.436069,0.158139 -1.946549,2.127593 -0.289767,1.11793 -0.352009,1.2635 -0.552621,1.29247 -0.161183,0.02328 -0.180787,0.07422 -0.180787,0.469781 v 0.443672 h -1.184663 c -0.998566,0 -1.184662,-0.01925 -1.184662,-0.122551 0,-0.08559 -0.08624,-0.122552 -0.285953,-0.122552 -0.199713,0 -0.285953,0.03696 -0.285953,0.122552 0,0.07625 -0.077161,0.122551 -0.2042521,0.122551 -0.1270907,0 -0.2042517,-0.0463 -0.2042517,-0.122551 0,-0.169235 -0.5591208,-0.169235 -0.6240614,0 -0.036306,0.09461 -0.1940477,0.122551 -0.6918937,0.122551 H 7.6456466 V 21.20005 c 0,-0.432255 -0.035299,-0.463368 -0.3585989,-0.316062 -0.1115878,0.05084 -0.2695705,0.0649 -0.3510731,0.03124 -0.081503,-0.03366 -0.3595875,-0.05428 -0.6179664,-0.04581 -0.333518,0.01093 -0.4697799,-0.01473 -0.4697799,-0.08843 0,-0.08075 -0.021787,-0.08203 -0.098041,-0.0058 -0.1216345,0.121635 -1.5359759,0.136681 -1.5359759,0.01634 0,-0.04494 -0.055148,-0.0817 -0.1225513,-0.0817 -0.082835,0 -0.1240689,0.08605 -0.1272341,0.265528 -0.00258,0.14604 -0.069758,0.559651 -0.1492938,0.919135 l -0.144611,0.653607 -0.6522307,0.006 c -0.3587269,0.0033 -0.6867726,0.02612 -0.7289903,0.05066 -0.042218,0.02454 -0.2789691,0.08923 -0.5261142,0.143749 -0.2471451,0.05452 -0.5711743,0.130099 -0.7200649,0.167961 -0.34393098,0.08746 -0.74052482,-0.04493 -0.82771047,-0.276304 -0.0360203,-0.09559 -0.0360778,-1.460589 -1.2667e-4,-3.03333 0.0360555,-1.577335 0.0314819,-4.538096 -0.0102012,-6.603038 -0.0496478,-2.459513 -0.0478365,-3.7953234 0.00528,-3.8945751 0.11559596,-0.215993 0.48479111,-0.2720488 1.35973044,-0.2064522 0.5840569,0.043787 0.7841499,0.089455 0.8444304,0.1927226 0.072362,0.1239644 0.079209,0.1233221 0.081484,-0.00764 0.00215,-0.1238069 0.088419,-0.142977 0.6434286,-0.142977 0.8549808,0 0.9469253,0.091914 0.8724976,0.8721982 -0.029251,0.3066625 -0.090518,0.7519945 -0.1361486,0.9896285 -0.058418,0.304224 -0.053318,0.793738 0.017236,1.654442 0.092665,1.130456 0.1478592,1.355036 0.2803387,1.14068 0.073281,-0.118572 1.456246,-0.10424 1.5768263,0.01634 0.071613,0.07161 0.098041,0.07269 0.098041,0.004 0,-0.06652 0.3518126,-0.09491 1.2022124,-0.09702 1.1735967,-0.003 1.2071057,-0.0079 1.4077657,-0.208542 0.1757061,-0.175566 0.2100927,-0.295283 0.236806,-0.824282 l 0.031249,-0.618866 -0.3564811,0.04461 c -0.1960647,0.02453 -0.9883547,0.06771 -1.7606453,0.09595 l -1.4041642,0.05134 -0.048718,-0.273381 c -0.026795,-0.150359 -0.036938,-0.808102 -0.02254,-1.461652 L 5.1598925,9.1419808 5.4340388,8.8008421 C 5.5848193,8.6132162 5.8224167,8.4239436 5.9620332,8.3802362 6.1016497,8.3365281 7.5945827,8.277228 9.2796631,8.2484567 10.964743,8.2196825 13.005222,8.1630245 13.81406,8.1225442 c 0.808839,-0.040478 2.32124,-0.1080566 3.360891,-0.1501698 1.039651,-0.042111 2.289675,-0.096408 2.777829,-0.1206554 3.37595,-0.1676848 3.599944,-0.1674862 3.691328,0.00324 0.06558,0.1225451 0.03934,0.2940108 -0.111299,0.7272817 -0.269284,0.774501 -0.364493,0.9345857 -0.555838,0.9345857 -0.09032,0 -0.405808,0.070972 -0.701077,0.1577217 -0.755837,0.2220565 -2.794453,0.7667079 -3.212554,0.8582889 -0.123573,0.02707 -0.224678,0.08528 -0.224678,0.129358 0,0.135996 1.647627,0.09555 1.83346,-0.045 0.233014,-0.176243 3.616545,-0.176243 3.849559,0 0.357906,0.270706 0.403022,0.190159 0.508122,-0.9071819 0.106984,-1.1170136 0.102646,-1.1080699 0.688901,-1.4205372 0.237675,-0.1266785 0.462587,-0.1615616 1.041686,-0.1615616 h 0.738562 V 7.8828088 c 0,-0.2426265 0.0045,-0.2451025 0.449355,-0.2451025 h 0.449355 V 7.2263247 c 0,-0.4939443 0.168237,-0.7842684 0.496212,-0.8563033 0.23149,-0.050844 0.239095,-0.0679 0.239095,-0.536228 0,-0.2660423 0.03465,-0.4837136 0.077,-0.4837136 0.04236,0 0.08831,-0.1562527 0.102126,-0.3472288 0.02357,-0.3257588 0.04028,-0.347228 0.270226,-0.347228 0.232439,0 0.247898,0.021106 0.29922,0.4085042 0.02977,0.2246772 0.05734,0.5974308 0.06127,0.8283412 0.007,0.4126103 0.01204,0.4207519 0.290727,0.4730347 0.236261,0.044319 0.309854,0.1126174 0.441117,0.4093581 0.273589,0.6184928 0.407194,0.6994405 1.154433,0.6994405 h 0.653607 v 0.3268034 c 0,0.3059622 0.01507,0.3268034 0.236361,0.3268034 0.134732,0 0.256583,0.052693 0.28339,0.1225516 0.06494,0.1692342 0.624061,0.1692342 0.624061,0 0,-0.068087 0.07262,-0.1225516 0.163402,-0.1225516 0.09078,0 0.163401,0.05447 0.163401,0.1225516 0,0.088509 0.09078,0.1225509 0.326804,0.1225509 0.236025,0 0.326803,-0.03404 0.326803,-0.1225509 0,-0.076254 0.07716,-0.1225516 0.204253,-0.1225516 0.12709,0 0.204251,0.046298 0.204251,0.1225516 0,0.085591 0.08624,0.1225509 0.285954,0.1225509 0.199712,0 0.285952,-0.036961 0.285952,-0.1225509 0,-0.076254 0.07716,-0.1225516 0.204253,-0.1225516 0.12709,0 0.204251,0.046298 0.204251,0.1225516 0,0.085799 0.08653,0.1225509 0.288518,0.1225509 0.181091,0 0.306027,-0.045629 0.335544,-0.1225509 0.02587,-0.067404 0.135007,-0.1225516 0.242539,-0.1225516 0.11932,0 0.19551,0.047758 0.19551,0.1225516 0,0.085591 0.08624,0.1225509 0.285954,0.1225509 0.199712,0 0.285952,-0.036961 0.285952,-0.1225509 0,-0.076254 0.07716,-0.1225516 0.204253,-0.1225516 0.12709,0 0.204251,0.046298 0.204251,0.1225516 0,0.085591 0.08624,0.1225509 0.285954,0.1225509 0.199712,0 0.285952,-0.036961 0.285952,-0.1225509 0,-0.076254 0.07716,-0.1225516 0.204253,-0.1225516 0.12709,0 0.204252,0.046298 0.204252,0.1225516 0,0.085591 0.08624,0.1225509 0.285953,0.1225509 0.199713,0 0.285952,-0.036961 0.285952,-0.1225509 0,-0.1621176 0.37584,-0.1621176 0.43805,0 0.06494,0.1692342 0.624061,0.1692342 0.624061,0 0,-0.076254 0.07716,-0.1225516 0.204253,-0.1225516 0.127091,0 0.204252,0.046298 0.204252,0.1225516 0,0.085591 0.08624,0.1225509 0.285953,0.1225509 0.199713,0 0.285953,-0.036961 0.285953,-0.1225509 0,-0.076254 0.07716,-0.1225516 0.204252,-0.1225516 0.127091,0 0.204252,0.046298 0.204252,0.1225516 0,0.085591 0.08624,0.1225509 0.285953,0.1225509 0.199713,0 0.285953,-0.036961 0.285953,-0.1225509 0,-0.076254 0.07716,-0.1225516 0.204252,-0.1225516 0.127091,0 0.204252,0.046298 0.204252,0.1225516 0,0.084855 0.08527,0.1225509 0.277212,0.1225509 0.171042,0 0.295223,-0.046938 0.32424,-0.1225509 0.02587,-0.067404 0.140094,-0.1225516 0.253843,-0.1225516 0.129369,0 0.206817,0.045895 0.206817,0.1225516 0,0.085591 0.08624,0.1225509 0.285952,0.1225509 0.199713,0 0.285953,-0.036961 0.285953,-0.1225509 0,-0.076254 0.07716,-0.1225516 0.204252,-0.1225516 0.127091,0 0.204253,0.046298 0.204253,0.1225516 0,0.085799 0.08652,0.1225509 0.288516,0.1225509 0.181091,0 0.306028,-0.045629 0.335545,-0.1225509 0.02587,-0.067404 0.116624,-0.1225516 0.201688,-0.1225516 0.08506,0 0.154661,0.055146 0.154661,0.1225516 0,0.088509 0.09078,0.1225509 0.326803,0.1225509 0.236024,0 0.326804,-0.03404 0.326804,-0.1225509 0,-0.068087 0.07262,-0.1225516 0.163401,-0.1225516 0.09078,0 0.163402,0.05447 0.163402,0.1225516 0,0.088509 0.09078,0.1225509 0.326803,0.1225509 0.236025,0 0.326804,-0.03404 0.326804,-0.1225509 0,-0.076254 0.07716,-0.1225516 0.204251,-0.1225516 0.127091,0 0.204253,0.046298 0.204253,0.1225516 0,0.085591 0.08624,0.1225509 0.285952,0.1225509 0.199714,0 0.285954,-0.036961 0.285954,-0.1225509 0,-0.1621176 0.375839,-0.1621176 0.438049,0 0.06494,0.1692342 0.624062,0.1692342 0.624062,0 0,-0.077596 0.07813,-0.1225516 0.212993,-0.1225516 0.155761,0 0.200357,0.032932 0.165966,0.1225516 -0.03693,0.096248 0.02257,0.1225509 0.277211,0.1225509 0.233746,0 0.32424,-0.034205 0.32424,-0.1225509 0,-0.076254 0.07716,-0.1225516 0.204252,-0.1225516 0.12709,0 0.204252,0.046298 0.204252,0.1225516 0,0.085591 0.08624,0.1225509 0.285953,0.1225509 0.199713,0 0.285953,-0.036961 0.285953,-0.1225509 0,-0.076254 0.07716,-0.1225516 0.204252,-0.1225516 0.12709,0 0.204252,0.046298 0.204252,0.1225516 0,0.1692342 0.559121,0.1692342 0.624062,0 0.06221,-0.1621176 0.438049,-0.1621176 0.438049,0 0,0.085591 0.08624,0.1225509 0.285953,0.1225509 0.199713,0 0.285953,-0.036961 0.285953,-0.1225509 0,-0.076254 0.07716,-0.1225516 0.204253,-0.1225516 0.12709,0 0.204251,0.046298 0.204251,0.1225516 0,0.085591 0.08624,0.1225509 0.285954,0.1225509 0.199712,0 0.285952,-0.036961 0.285952,-0.1225509 0,-0.076254 0.07716,-0.1225516 0.204253,-0.1225516 0.12709,0 0.204251,0.046298 0.204251,0.1225516 0,0.085591 0.08624,0.1225509 0.285954,0.1225509 0.199712,0 0.285952,-0.036961 0.285952,-0.1225509 0,-0.076254 0.07716,-0.1225516 0.204253,-0.1225516 0.12709,0 0.204251,0.046298 0.204251,0.1225516 0,0.088509 0.09078,0.1225509 0.326804,0.1225509 0.236025,0 0.326803,-0.03404 0.326803,-0.1225509 0,-0.076254 0.07716,-0.1225516 0.204253,-0.1225516 0.12709,0 0.204251,0.046298 0.204251,0.1225516 0,0.085591 0.08624,0.1225509 0.285954,0.1225509 0.199712,0 0.285952,-0.036961 0.285952,-0.1225509 0,-0.076254 0.07716,-0.1225516 0.204253,-0.1225516 0.127091,0 0.204252,0.046298 0.204252,0.1225516 0,0.088348 0.09049,0.1225509 0.324239,0.1225509 0.254646,0 0.314146,-0.026307 0.277213,-0.1225509 -0.03439,-0.089622 0.0102,-0.1225516 0.165965,-0.1225516 0.13486,0 0.212993,0.04496 0.212993,0.1225516 0,0.1684688 0.536803,0.1684688 0.601452,0 0.06094,-0.1588014 0.370176,-0.1588014 0.431113,0 0.06465,0.1684688 0.601452,0.1684688 0.601452,0 0,-0.076254 0.07716,-0.1225516 0.204252,-0.1225516 0.127091,0 0.204252,0.046298 0.204252,0.1225516 0,0.1692342 0.559121,0.1692342 0.624061,0 0.06118,-0.1594323 0.35635,-0.1594323 0.35635,0 0,0.088509 0.09078,0.1225509 0.326803,0.1225509 0.236024,0 0.326803,-0.03404 0.326803,-0.1225509 0,-0.068087 0.07262,-0.1225516 0.163402,-0.1225516 0.09078,0 0.163402,0.05447 0.163402,0.1225516 0,0.088509 0.09078,0.1225509 0.326803,0.1225509 0.236024,0 0.326803,-0.03404 0.326803,-0.1225509 0,-0.1797239 1.349493,-0.1797239 1.41846,0 0.06494,0.1692342 0.624062,0.1692342 0.624062,0 0,-0.076254 0.07716,-0.1225516 0.204251,-0.1225516 0.127091,0 0.204253,0.046298 0.204253,0.1225516 0,0.085591 0.08624,0.1225509 0.285952,0.1225509 0.199714,0 0.285954,-0.036961 0.285954,-0.1225509 0,-0.159938 0.317584,-0.159938 0.378958,0 0.06465,0.1684688 0.601452,0.1684688 0.601452,0 0,-0.076254 0.07716,-0.1225516 0.204251,-0.1225516 0.127091,0 0.204253,0.046298 0.204253,0.1225516 0,0.085799 0.08652,0.1225509 0.288516,0.1225509 0.181092,0 0.306029,-0.045629 0.335545,-0.1225509 0.118583,-0.3090195 0.519751,0.027012 0.519751,0.4353628 0,0.2219004 0.02932,0.259094 0.204252,0.259094 0.19692,0 0.204252,0.019063 0.204252,0.5310558 0,0.3812709 0.02996,0.5310553 0.106211,0.5310553 0.215227,0 0.302293,-0.2047231 0.302293,-0.7107971 0,-0.4885426 0.0099,-0.5147157 0.195671,-0.5147157 0.219317,0 0.257973,-0.1471155 0.345786,-1.3159896 0.03606,-0.4799737 0.01693,-0.6790856 -0.08398,-0.8742267 -0.104321,-0.201734 -0.130673,-0.5253737 -0.130673,-1.6048154 0,-1.2682611 0.0095,-1.3521214 0.153398,-1.3521214 0.08437,0 0.196173,0.051542 0.248453,0.1145351 0.173699,0.2092944 0.492831,0.228794 0.857254,0.052383 0.18964,-0.091804 0.369961,-0.166915 0.400706,-0.166915 0.03072,0 0.05589,0.4918308 0.05589,1.0929577 0,0.871847 -0.02482,1.1135334 -0.122549,1.1946659 -0.09635,0.079961 -0.122553,0.3092029 -0.122553,1.072115 0,0.5924702 0.03182,0.9704061 0.0817,0.9704061 0.0487,0 0.0817,0.3100107 0.0817,0.766629 0,0.6564439 0.02057,0.773878 0.142979,0.8170617 0.07864,0.027738 0.188931,0.071856 0.245106,0.098038 0.05877,0.027386 0.10212,-0.00734 0.10212,-0.081754 0,-0.1066755 0.108989,-0.1293596 0.621502,-0.1293596 0.560155,0 0.61561,0.014114 0.561852,0.142977 -0.0328,0.078637 -0.09639,0.2532722 -0.141317,0.3880788 -0.04489,0.1348067 -0.134469,0.3578417 -0.198995,0.4956347 -0.07035,0.15024 -0.10722,0.428241 -0.0921,0.694457 l 0.02525,0.443925 0.676899,0.07282 c 0.645601,0.06945 0.686208,0.06407 0.878283,-0.116367 0.119147,-0.111936 0.201384,-0.280734 0.201384,-0.41337 0,-0.366242 0.08093,-0.482646 0.335544,-0.482646 0.209282,0 0.236358,-0.0287 0.236358,-0.250473 0,-0.5041416 0.0948,-0.5665356 0.860739,-0.5665356 0.560263,0 0.691574,0.023271 0.691574,0.1225516 0,0.168469 0.536805,0.168469 0.601453,0 0.06884,-0.179393 1.359367,-0.179393 1.359367,0 0,0.088509 0.09078,0.122551 0.326803,0.122551 0.236028,0 0.326804,-0.03404 0.326804,-0.122551 0,-0.099323 0.131628,-0.1225516 0.694459,-0.1225516 0.562824,0 0.694452,0.023228 0.694452,0.1225516 0,0.088509 0.09078,0.122551 0.326803,0.122551 0.239035,0 0.326803,-0.03361 0.326803,-0.1251436 0,-0.1065977 0.142275,-0.121733 0.959988,-0.1021262 l 0.959988,0.023019 0.02575,0.4082218 c 0.01561,0.247292 0.07195,0.43409 0.14298,0.473839 0.08549,0.04785 0.117247,0.230427 0.117247,0.674315 v 0.608697 h 2.364502 c 1.574511,0 2.382348,0.02887 2.41792,0.08643 0.05165,0.08356 1.137712,0.06263 2.761356,-0.0532 0.556695,-0.03972 0.654779,-0.02623 0.753129,0.103527 0.107055,0.141237 0.113227,0.139391 0.11568,-0.03464 0.0029,-0.209944 0.17886,-0.242664 0.329407,-0.06128 0.131837,0.158862 0.245099,0.156469 0.245099,-0.0052 0,-0.107258 0.09613,-0.122402 0.599864,-0.09449 0.329925,0.01828 0.644039,0.06054 0.698034,0.09391 0.05402,0.03337 0.147281,0.01992 0.207311,-0.0299 0.07358,-0.06107 0.611381,-0.08332 1.650864,-0.06831 l 1.541724,0.02226 0.02244,0.939561 0.02244,0.939559 h -1.697342 c -0.933537,0 -1.82602,0.01938 -1.983293,0.04306 -0.15728,0.02368 -0.506549,0.01647 -0.776163,-0.01601 -0.395373,-0.04765 -0.508902,-0.03464 -0.586894,0.06725 -0.102429,0.133823 -0.270981,0.08487 -0.270938,-0.07869 2.1e-5,-0.07426 -0.972159,-0.09228 -4.105465,-0.0761 -2.258029,0.01166 -4.151453,0.03808 -4.20762,0.05871 -0.07136,0.02622 -0.102127,0.259559 -0.102127,0.775384 0,0.601418 -0.02266,0.737871 -0.12255,0.737871 -0.0674,0 -0.122556,0.05385 -0.122556,0.119677 0,0.216801 -0.304266,0.288827 -1.220143,0.288827 -0.749152,0 -0.904079,-0.021 -0.904079,-0.122551 0,-0.08851 -0.09078,-0.122551 -0.326804,-0.122551 -0.228992,0 -0.326803,0.03498 -0.326803,0.116892 0,0.09928 -0.480012,0.117848 -3.186329,0.123235 -2.788483,0.0055 -3.18633,-0.009 -3.18633,-0.116892 0,-0.169845 -0.55891,-0.170457 -0.624055,-6.84e-4 -0.06222,0.162117 -0.438052,0.162117 -0.438052,0 0,-0.08559 -0.08624,-0.122551 -0.285951,-0.122551 -0.191723,0 -0.285958,0.038 -0.285958,0.115301 0,0.09627 -0.364031,0.116283 -2.20592,0.121251 -1.898521,0.0051 -2.205922,-0.01095 -2.205922,-0.1153 0,-0.08699 -0.09233,-0.121252 -0.326804,-0.121252 -0.236025,0 -0.326803,0.03404 -0.326803,0.122551 0,0.06809 -0.07262,0.122551 -0.163402,0.122551 -0.09078,0 -0.163402,-0.05447 -0.163402,-0.122551 0,-0.08559 -0.08624,-0.122551 -0.285953,-0.122551 -0.199712,0 -0.285952,0.03696 -0.285952,0.122551 0,0.0817 -0.0817,0.122551 -0.245103,0.122551 -0.163402,0 -0.245102,-0.04085 -0.245102,-0.122551 0,-0.08225 -0.08226,-0.122551 -0.250109,-0.122551 h -0.250103 l 0.05688,0.379285 0.05688,0.379285 -0.235697,-0.06029 c -0.129635,-0.03315 -0.412758,-0.07887 -0.629164,-0.101581 -0.31792,-0.03336 -0.415962,-0.01226 -0.51063,0.10993 -0.111237,0.143573 -0.122789,0.14399 -0.228297,0.0083 -0.09512,-0.122372 -0.255711,-0.142976 -1.11438,-0.142976 -0.85867,0 -1.019263,0.0206 -1.114381,0.142976 -0.105436,0.135647 -0.117211,0.135125 -0.229728,-0.01021 -0.107482,-0.138828 -0.210561,-0.149563 -1.100022,-0.114569 -0.659344,0.02594 -1.025513,0.0752 -1.115759,0.150098 -0.11489,0.09535 -0.149135,0.09124 -0.236623,-0.02841 -0.08718,-0.119232 -0.254207,-0.139892 -1.13091,-0.139892 -0.883818,0 -1.03958,0.01958 -1.106473,0.139117 -0.06753,0.120671 -0.09615,0.123935 -0.215819,0.02462 -0.09538,-0.07916 -0.442478,-0.125357 -1.124665,-0.149679 -0.879987,-0.03137 -0.998325,-0.01929 -1.094157,0.111772 -0.102932,0.140768 -0.114195,0.140851 -0.267649,0.0019 -0.161749,-0.146381 -0.525117,-0.147369 -1.088342,-0.0029 -0.207712,0.05326 -0.224677,0.03923 -0.224677,-0.185772 0,-0.233026 -0.01842,-0.245543 -0.433079,-0.294278 -0.238193,-0.028 -0.633421,-0.119613 -0.878284,-0.203597 -0.244863,-0.08398 -0.617724,-0.178371 -0.828582,-0.209752 -0.345937,-0.05148 -0.39585,-0.03802 -0.511087,0.137853 -0.08421,0.128521 -0.327508,0.261634 -0.714297,0.390808 -1.011698,0.33787 -1.154,0.599727 -1.114188,2.050278 0.02619,0.954227 0.04249,1.03815 0.303852,1.565039 0.191293,0.385624 0.250048,0.582875 0.191165,0.641757 -0.04676,0.04676 -0.363136,0.125081 -0.703064,0.174053 l -0.618052,0.08906 -0.0229,2.251285 c -0.01259,1.238206 0.0047,2.263539 0.03839,2.278518 0.0337,0.01498 0.06127,0.116084 0.06127,0.224677 0,0.142976 -0.04507,0.197444 -0.163402,0.197444 -0.143146,0 -0.163401,0.05447 -0.163401,0.439377 0,0.241658 0.05781,0.577754 0.128483,0.746882 0.112005,0.268065 0.11335,0.322639 0.01049,0.425504 -0.23554,0.23554 -3.827439,0.422082 -5.286122,0.274529 -2.531692,-0.256092 -2.613966,-0.27991 -2.445354,-0.707905 0.06371,-0.161737 0.093,-1.012783 0.09071,-2.636541 -0.0019,-1.318743 -0.01669,-2.411029 -0.03296,-2.427302 -0.06058,-0.06058 -1.055964,0.213102 -1.259053,0.34617 -0.180035,0.117964 -0.421102,0.136139 -1.652226,0.124569 -0.79279,-0.0075 -1.910194,-0.03736 -2.483121,-0.06647 -0.872659,-0.04433 -1.041686,-0.034 -1.041686,0.0637 0,0.06414 -0.12341,0.16125 -0.274244,0.215792 -0.330657,0.119567 -0.473244,0.268777 -0.744666,0.77925 -0.242898,0.456828 -0.249794,0.52358 -0.07414,0.717672 0.171963,0.190018 0.08655,0.40873 -0.151586,0.388146 -0.357763,-0.03092 -0.455876,0.01142 -0.542325,0.234087 -0.04798,0.123573 -0.185452,0.390122 -0.3055,0.592331 -0.120047,0.20221 -0.28009,0.47795 -0.355649,0.612757 -0.07556,0.134806 -0.347405,0.620584 -0.604102,1.079505 -0.256695,0.458922 -0.502181,0.85632 -0.545521,0.883107 -0.103994,0.06427 -0.10158,0.505542 0.0031,0.570251 0.05448,0.03366 0.05351,0.103708 -0.0029,0.209073 -0.0994,0.185735 -0.454254,0.197915 -0.896056,0.03075 z m 9.643521,-6.838056 c 0.758805,-0.374983 0.806873,-0.507767 0.645705,-1.783681 -0.160131,-1.267694 -0.286925,-1.38148 -1.539416,-1.38148 -0.898828,0 -0.832559,-0.02722 -1.505639,0.618478 -0.202831,0.194581 -0.386951,0.467123 -0.443834,0.656979 -0.101909,0.340144 -0.05675,1.099462 0.08137,1.368166 0.04949,0.09629 0.04951,0.180234 5.6e-5,0.229694 -0.09066,0.09066 -0.509098,-0.969207 -0.509098,-1.289496 0,-0.268533 -0.166507,-0.950053 -0.256211,-1.048681 -0.03882,-0.04269 -0.07059,-0.185154 -0.07059,-0.31659 0,-0.221879 -0.01751,-0.235474 -0.244753,-0.190025 -0.47632,0.09526 -0.638843,0.271416 -0.699682,0.758359 -0.0879,0.703534 -0.0071,1.753544 0.153801,1.998642 0.193181,0.294269 0.603285,0.40732 1.735904,0.478527 1.860267,0.116951 2.244612,0.102622 2.652388,-0.09889 z M 13.321758,19.161607 c 0.186619,-0.360881 0.159668,-0.56406 -0.0829,-0.62494 -0.412888,-0.103628 -0.685111,0.393299 -0.39255,0.716576 0.192324,0.212516 0.332092,0.185577 0.475445,-0.09164 z m 5.476055,-3.600474 c 0.629096,-0.08933 1.156285,-0.199711 1.171531,-0.245283 0.01524,-0.04557 0.07959,-0.134724 0.142977,-0.198115 0.148729,-0.148729 0.148178,-0.488101 -0.001,-0.611902 -0.123577,-0.10256 -0.939446,-0.07153 -2.247366,0.08549 -0.806398,0.09681 -0.940392,0.155771 -1.113143,0.489833 -0.117269,0.226774 -0.117177,0.266514 0.001,0.446933 0.164561,0.251153 0.474746,0.256162 2.045955,0.03305 z m 61.290103,-1.191328 c 0.07107,-0.185136 -0.06805,-0.24352 -0.498608,-0.209276 -0.302215,0.02403 -0.373719,0.05941 -0.373719,0.184898 0,0.131872 0.06172,0.155175 0.411068,0.155175 0.30154,0 0.424442,-0.03485 0.461259,-0.130797 z m 3.70292,0.01112 c 0,-0.195926 -0.282074,-0.288896 -0.872917,-0.287713 -0.712565,0.0014 -0.924502,0.05955 -0.924502,0.253516 0,0.141371 0.07302,0.153874 0.898706,0.153874 0.734793,0 0.898713,-0.02183 0.898713,-0.119677 z M 51.251772,14.206138 c -0.02715,-0.02715 -0.09762,-0.03005 -0.156593,-0.0065 -0.06517,0.02608 -0.04582,0.04544 0.04936,0.04936 0.08613,0.0035 0.13438,-0.01576 0.107232,-0.04291 z M 13.078753,13.718496 c 0.143551,-0.108324 0.166749,-0.237511 0.190954,-1.063408 l 0.02755,-0.940106 -0.558606,0.02432 -0.558608,0.02432 -0.02301,0.86011 c -0.02073,0.775025 -0.0063,0.878071 0.146159,1.041686 0.195471,0.209813 0.536883,0.233178 0.775555,0.05307 z m 84.585501,-1.11006 -0.02511,-0.339851 -1.183239,0.01882 c -1.193541,0.01898 -1.420635,0.073 -1.372812,0.326568 0.02827,0.14973 1.004185,0.307207 2.009269,0.324215 l 0.597029,0.0101 z M 8.6669075,11.436795 c 0.044938,-0.01536 -0.1686357,-0.03082 -0.4746022,-0.03438 -0.3059658,-0.0035 -0.5368495,0.02503 -0.5130748,0.06349 0.038759,0.06271 0.7832138,0.04077 0.987677,-0.02912 z M 77.976196,11.200583 c 0.03661,-0.320441 -0.08129,-0.373803 -0.828928,-0.375268 -0.875751,-0.0017 -1.16609,0.184105 -0.823274,0.526918 0.105378,0.105381 0.278952,0.126718 0.878283,0.107962 l 0.74695,-0.02337 z m 2.008866,0.227496 c 0.07107,-0.02728 0.129232,-0.119188 0.129232,-0.204252 0,-0.133 -0.06294,-0.154661 -0.449353,-0.154661 -0.381265,0 -0.449352,0.0227 -0.449352,0.149785 0,0.08238 0.02453,0.174296 0.05446,0.204253 0.06805,0.06808 0.541891,0.07131 0.715004,0.0049 z m 3.626237,-0.003 c 0.133592,-0.03578 0.180947,-0.100577 0.163402,-0.223561 -0.02338,-0.163855 -0.07086,-0.173177 -0.881456,-0.173177 -0.773581,0 -0.859616,0.01491 -0.886325,0.153612 -0.01626,0.08449 0.02,0.185028 0.08058,0.223426 0.126758,0.08033 1.243529,0.09477 1.523797,0.0197 z"
   id="path1" /></svg>
