<?xml version="1.0" encoding="UTF-8" standalone="no"?>
<!-- Generator: Adobe Illustrator 16.0.0, SVG Export Plug-In . SVG Version: 6.00 Build 0)  -->

<svg
   version="1.1"
   x="0px"
   y="0px"
   width="75.833px"
   height="32px"
   viewBox="0 0 75.833 32"
   enable-background="new 0 0 75.833 32"
   xml:space="preserve"
   id="svg39"
   sodipodi:docname="ump45.svg"
   inkscape:version="1.3 (0e150ed6c4, 2023-07-21)"
   xmlns:inkscape="http://www.inkscape.org/namespaces/inkscape"
   xmlns:sodipodi="http://sodipodi.sourceforge.net/DTD/sodipodi-0.dtd"
   xmlns="http://www.w3.org/2000/svg"
   xmlns:svg="http://www.w3.org/2000/svg"><defs
   id="defs43" /><sodipodi:namedview
   id="namedview41"
   pagecolor="#ffffff"
   bordercolor="#111111"
   borderopacity="1"
   inkscape:pageshadow="0"
   inkscape:pageopacity="0"
   inkscape:pagecheckerboard="1"
   showgrid="false"
   inkscape:zoom="11.313708"
   inkscape:cx="52.900426"
   inkscape:cy="15.423767"
   inkscape:window-width="1920"
   inkscape:window-height="1009"
   inkscape:window-x="-8"
   inkscape:window-y="-8"
   inkscape:window-maximized="1"
   inkscape:current-layer="svg39"
   inkscape:showpageshadow="2"
   inkscape:deskcolor="#d1d1d1" />&#10;&#10;<g
   id="guides">&#10;</g>&#10;<path
   style="fill:#ffffff;stroke-width:0.0684968"
   d="m 24.750295,30.074709 c -0.0197,-0.08477 -0.06832,-0.816825 -0.108036,-1.6268 -0.03972,-0.809975 -0.09963,-1.996683 -0.133134,-2.637129 -0.03351,-0.640446 -0.06254,-1.2338 -0.06452,-1.318564 -0.0035,-0.149179 -0.02526,-0.154118 -0.679997,-0.154118 -1.002474,0 -1.065925,0.02161 -1.280721,0.436064 -0.348837,0.673101 -0.42104,0.682603 -0.400297,0.05267 l 0.01548,-0.470217 -0.592823,-0.435386 c -0.326049,-0.239462 -0.608231,-0.452125 -0.627068,-0.472583 -0.01884,-0.02046 -0.280732,-0.221703 -0.58199,-0.447209 -0.301258,-0.225506 -0.581495,-0.440836 -0.622749,-0.478508 -0.04125,-0.03767 -0.178633,-0.145556 -0.305289,-0.239739 -0.126655,-0.09418 -0.316133,-0.248302 -0.421064,-0.342485 -0.239756,-0.215198 -1.165264,-1.851131 -1.11757,-1.97542 0.02016,-0.05256 -0.02099,-0.1069 -0.09577,-0.126456 -0.07212,-0.01886 -0.227619,-0.215314 -0.345544,-0.436563 -0.117924,-0.22125 -0.241994,-0.419322 -0.275709,-0.440159 -0.03372,-0.02084 -0.178879,0.02889 -0.322584,0.110508 -0.143705,0.08162 -0.430811,0.241509 -0.638014,0.355314 -0.207204,0.113806 -0.491709,0.278795 -0.632235,0.366643 -0.140526,0.08785 -0.284369,0.159725 -0.319652,0.159725 -0.03528,0 -0.07443,0.02581 -0.08698,0.05735 -0.01255,0.03155 -0.254008,0.207542 -0.536558,0.391101 -0.28255,0.183559 -0.529138,0.350571 -0.547975,0.371138 -0.01884,0.02057 -0.156448,0.128595 -0.305804,0.240062 -0.149355,0.111467 -0.319901,0.249998 -0.378991,0.307846 -0.05909,0.05785 -0.214304,0.185915 -0.344917,0.284594 -0.130614,0.09868 -0.377036,0.314444 -0.547606,0.479478 -0.665013,0.643428 -0.755888,0.957017 -0.420825,1.452166 0.581078,0.858709 0.522728,1.531375 -0.163333,1.882928 -0.207925,0.106547 -7.4465272,0.128985 -7.4817907,0.0232 -0.014414,-0.04323 -0.1469304,-0.07861 -0.2944838,-0.07861 -0.2226147,0 -0.2682796,0.02332 -0.2682796,0.136994 0,0.187013 -0.2459562,0.180363 -0.3475115,-0.0094 -0.043087,-0.08051 -0.061617,-0.249478 -0.041166,-0.375477 0.020451,-0.126 0.010043,-0.245856 -0.023109,-0.266349 -0.03316,-0.02049 -0.0615,-0.16747 -0.06298,-0.326615 -0.00473,-0.505019 -0.00996,-0.5555 -0.065406,-0.628683 -0.029861,-0.0394 -0.056659,-0.17953 -0.059557,-0.311387 C 3.2174592,23.298073 2.9295159,21.367029 2.7309582,20.27966 2.6348492,19.753336 2.5217603,19.159277 2.4538689,18.824102 2.4233435,18.673409 2.3492711,18.303527 2.2892611,18.00214 2.1118479,17.111133 2.0609366,16.891555 1.7651648,15.741744 1.6101105,15.138972 1.4415373,14.476265 1.3905577,14.269062 1.2755492,13.801617 1.2011289,13.535557 1.0265272,12.967622 0.9512405,12.722746 0.77600419,12.152509 0.63710465,11.70043 0.23621431,10.395639 0.05958848,9.6766808 0.03131276,9.2345428 0.01685988,9.0085033 -0.01767979,8.7693829 -0.04543862,8.7031631 -0.09690328,8.5803826 0.07354927,8.2413382 0.18673818,8.2413382 c 0.0324086,0 0.0750465,0.061647 0.0947536,0.1369939 0.0292622,0.1119126 0.0934307,0.1369939 0.35047265,0.1369939 0.23402347,0 0.31464887,-0.026325 0.31464887,-0.1027456 0,-0.077309 0.082843,-0.1027449 0.3346063,-0.1027449 0.2897659,0 0.3509664,-0.02524 0.4566847,-0.1883671 C 1.9835365,7.7424573 2.5240859,7.361398 3.1088246,7.1550411 L 3.5243577,7.0083943 h 13.3352003 13.3352 V 6.756839 c 0,-0.23188 0.07611,-0.3283152 0.973024,-1.2329431 l 0.973024,-0.9813885 h 0.46541 0.46541 V 3.7998215 3.0571356 l 0.324765,-0.2676425 c 0.178619,-0.1472032 0.395647,-0.3368567 0.482283,-0.4214522 0.184528,-0.1801837 0.512959,-0.359917 0.657683,-0.359917 0.05905,0 0.110674,-0.076666 0.123271,-0.1830836 0.02974,-0.2511941 0.177688,-0.2826394 0.205099,-0.043591 l 0.02206,0.1924272 0.706142,0.050465 c 0.904705,0.064654 1.122878,0.1233896 1.227885,0.330571 0.05735,0.1131402 0.08494,0.549566 0.08562,1.3542187 7.75e-4,0.9188444 0.02037,1.1809034 0.08663,1.1590815 0.04709,-0.015507 0.09547,-0.095136 0.107509,-0.1769505 0.01758,-0.1195102 0.06808,-0.1487523 0.256863,-0.1487523 0.206385,0 0.234975,0.021319 0.234975,0.1751805 0,0.1637337 0.01902,0.1738043 0.291111,0.1541181 0.242001,-0.017506 0.294805,-0.047063 0.313,-0.1751805 0.03164,-0.2227991 0.404059,-0.2227991 0.435702,0 0.01868,0.1315189 0.0696,0.1571791 0.347248,0.1749945 0.308695,0.019808 0.32536,0.011911 0.32536,-0.1541173 0,-0.1478518 0.03114,-0.1749953 0.200727,-0.1749953 0.15601,0 0.205602,0.03433 0.222614,0.1541181 0.01868,0.1315189 0.0696,0.1571791 0.347249,0.1749945 0.308694,0.019808 0.32536,0.011911 0.32536,-0.1541173 0,-0.1543304 0.02831,-0.1749953 0.239738,-0.1749953 0.210058,0 0.23974,0.021203 0.23974,0.1712422 0,0.1572884 0.02512,0.1712422 0.308235,0.1712422 0.28312,0 0.308236,-0.013949 0.308236,-0.1712422 0,-0.150041 0.02968,-0.1712422 0.239739,-0.1712422 0.210058,0 0.239739,0.021203 0.239739,0.1712422 0,0.1572884 0.02512,0.1712422 0.308236,0.1712422 0.28312,0 0.308236,-0.013949 0.308236,-0.1712422 0,-0.150041 0.02968,-0.1712422 0.239739,-0.1712422 0.210057,0 0.239739,0.021203 0.239739,0.1712422 0,0.1572884 0.02512,0.1712422 0.308235,0.1712422 0.283121,0 0.308237,-0.013949 0.308237,-0.1712422 0,-0.150041 0.02968,-0.1712422 0.239738,-0.1712422 0.211429,0 0.239739,0.020668 0.239739,0.1749953 0,0.1660315 0.01667,0.1739251 0.32536,0.1541173 0.277652,-0.017816 0.328571,-0.043475 0.347249,-0.1749945 0.01701,-0.1197853 0.06661,-0.1541181 0.222614,-0.1541181 0.169593,0 0.200727,0.027147 0.200727,0.1749953 0,0.1660315 0.01667,0.1739251 0.32536,0.1541173 0.277651,-0.017816 0.32857,-0.043475 0.347248,-0.1749945 0.01687,-0.118812 0.06678,-0.1541181 0.217851,-0.1541181 0.151071,0 0.200977,0.035307 0.217851,0.1541181 0.01899,0.1337507 0.06262,0.1541173 0.330124,0.1541173 0.267502,0 0.311128,-0.020366 0.330124,-0.1541173 0.01688,-0.118812 0.06678,-0.1541181 0.217851,-0.1541181 0.15107,0 0.200976,0.035307 0.217851,0.1541181 0.01868,0.1315189 0.0696,0.1571791 0.347248,0.1749945 0.308695,0.019808 0.32536,0.011911 0.32536,-0.1541173 0,-0.1478518 0.03114,-0.1749953 0.200726,-0.1749953 0.156011,0 0.205602,0.03433 0.222615,0.1541181 0.01868,0.1315189 0.0696,0.1571791 0.347248,0.1749945 0.308695,0.019808 0.32536,0.011911 0.32536,-0.1541173 0,-0.1543304 0.02831,-0.1749953 0.239739,-0.1749953 0.210057,0 0.23974,0.021203 0.23974,0.1712422 0,0.1572884 0.02512,0.1712422 0.308235,0.1712422 0.28312,0 0.308236,-0.013949 0.308236,-0.1712422 0,-0.150041 0.02968,-0.1712422 0.239739,-0.1712422 0.211494,0 0.239739,0.020637 0.239739,0.1751805 0,0.1637337 0.01902,0.1738043 0.291112,0.1541181 0.242,-0.017506 0.294804,-0.047063 0.312999,-0.1751805 0.01784,-0.1256215 0.06534,-0.1541181 0.256863,-0.1541181 0.204976,0 0.234976,0.021861 0.234976,0.1712422 0,0.1572884 0.02512,0.1712422 0.308235,0.1712422 0.283126,0 0.308235,-0.013949 0.308235,-0.1712422 0,-0.150041 0.02968,-0.1712422 0.239739,-0.1712422 0.211431,0 0.23974,0.020668 0.23974,0.1749953 0,0.1660315 0.01666,0.1739251 0.325364,0.1541173 0.27765,-0.017816 0.328565,-0.043475 0.347249,-0.1749945 0.01705,-0.1197853 0.06657,-0.1541181 0.222613,-0.1541181 0.169591,0 0.200728,0.027147 0.200728,0.1749953 0,0.1660315 0.01666,0.1739251 0.325357,0.1541173 0.27765,-0.017816 0.328573,-0.043475 0.347249,-0.1749945 0.01689,-0.118812 0.0668,-0.1541181 0.217855,-0.1541181 0.15107,0 0.200977,0.035307 0.217847,0.1541181 0.01899,0.1337507 0.06262,0.1541173 0.330123,0.1541173 0.267506,0 0.311128,-0.020366 0.330122,-0.1541173 0.01689,-0.118812 0.0668,-0.1541181 0.217855,-0.1541181 0.151069,0 0.200976,0.035307 0.217847,0.1541181 0.01821,0.1281176 0.07099,0.1576704 0.313004,0.1751805 0.272086,0.019684 0.291111,0.00962 0.291111,-0.1541181 0,-0.1538654 0.0286,-0.1751805 0.234974,-0.1751805 0.191529,0 0.239019,0.028495 0.256866,0.1541181 0.01868,0.1315189 0.06959,0.1571791 0.347249,0.1749945 0.308695,0.019808 0.325356,0.011911 0.325356,-0.1541173 0,-0.1478518 0.03115,-0.1749953 0.200729,-0.1749953 0.156005,0 0.205602,0.03433 0.222613,0.1541181 0.01899,0.1337507 0.06262,0.1541173 0.330122,0.1541173 0.267506,0 0.311128,-0.020366 0.330122,-0.1541173 0.01782,-0.1256215 0.06533,-0.1541181 0.256866,-0.1541181 0.204976,0 0.234974,0.021861 0.234974,0.1712422 0,0.1541173 0.02743,0.1712422 0.273993,0.1712422 h 0.273984 l 2.56e-4,-0.5650991 c 2.09e-4,-0.454655 0.02867,-0.6119543 0.145614,-0.8048379 0.07994,-0.1318567 0.165638,-0.255151 0.190429,-0.2739878 0.0248,-0.018839 0.167328,-0.1874179 0.316747,-0.3746257 0.585555,-0.73366 0.565398,-0.7213235 1.17827,-0.7213235 0.35613,0 0.574124,0.030107 0.619885,0.085621 0.213554,0.25906 0.385113,0.9337096 0.40933,1.6096759 0.02503,0.6978672 0.02619,0.702093 0.197583,0.702093 0.09484,0 0.362562,0.112121 0.594939,0.2491584 0.394971,0.2329184 0.754037,0.4376022 1.244474,0.7094086 0.155348,0.086098 0.211005,0.1710686 0.228085,0.3482485 0.0124,0.1288996 0.06634,0.2590127 0.11987,0.2891398 0.145946,0.082187 0.140809,1.3494092 -0.0054,1.3494092 -0.07176,0 -0.102743,0.072303 -0.102743,0.2397388 v 0.2397365 h -1.716468 c -1.126867,0 -1.701922,0.023528 -1.674132,0.068498 0.0272,0.043979 1.125698,0.068661 3.069281,0.068948 2.90523,4.332e-4 3.035205,0.00589 3.232431,0.1365422 0.17896,0.1185237 0.322582,0.13615 1.112492,0.1365437 0.832548,4.138e-4 0.914026,0.011694 0.99256,0.1374449 0.123272,0.1973954 0.447125,0.1857424 0.475938,-0.017126 0.02023,-0.1426287 0.06145,-0.1556099 0.552743,-0.1741235 0.335315,-0.012639 0.530851,0.00628 0.530851,0.051372 0,0.039259 0.06161,0.071381 0.136988,0.071381 0.07533,0 0.136997,-0.029363 0.136997,-0.065259 0,-0.067932 1.621706,-0.063314 1.746752,0.00496 0.08343,0.04556 0.669428,0.02421 1.256611,-0.045784 0.341064,-0.040654 0.44783,-0.031122 0.495551,0.04425 0.09993,0.157834 0.07099,0.6022613 -0.0513,0.7889785 -0.106664,0.1627918 -0.106664,0.1871997 0,0.3677686 0.143343,0.2426618 0.147621,0.642838 0.0084,0.782105 -0.111857,0.111857 -0.620699,0.08835 -0.871606,-0.04027 -0.06672,-0.0342 -0.154603,-0.04158 -0.195327,-0.01641 -0.04068,0.02517 -0.386857,0.0557 -0.76918,0.06785 -0.382315,0.01215 -0.887794,0.04168 -1.123279,0.06561 -0.353828,0.03596 -0.435377,0.02473 -0.469684,-0.06469 -0.05332,-0.138855 -0.273837,-0.140413 -0.326837,-0.0023 -0.03224,0.08404 -0.136229,0.101712 -0.503928,0.08562 -0.40465,-0.01771 -0.471846,-0.03978 -0.530906,-0.174394 -0.07941,-0.180993 -0.381966,-0.211198 -0.514607,-0.05137 -0.06672,0.08039 -0.256068,0.102745 -0.870312,0.102745 -0.597287,0 -0.77834,0.02047 -0.757052,0.08562 0.01534,0.04709 0.13354,0.122411 0.26257,0.167376 l 0.234594,0.08175 -0.220203,0.0039 c -0.257486,0.0045 -0.36202,0.151952 -0.36202,0.510567 v 0.241719 l -0.496605,-0.0057 c -0.273132,-0.0032 -1.30513,-0.002 -2.293335,0.0026 l -1.796745,0.0083 -0.03945,0.188367 c -0.337965,1.615 -0.302085,1.579234 -1.614809,1.609788 l -0.917018,0.02134 1.078828,0.01496 c 0.593351,0.0082 1.078828,0.03199 1.078828,0.0528 0,0.02082 -0.04805,0.24911 -0.106781,0.507314 -0.09152,0.402414 -0.13123,0.4756 -0.278038,0.512445 -0.260942,0.06549 -0.745962,0.550502 -0.841196,0.841193 -0.0637,0.194435 -0.0786,0.983279 -0.0599,3.169965 0.02356,2.750185 0.03332,2.941101 0.176085,3.453527 0.232571,0.834568 0.334516,0.793481 -1.966049,0.792343 -1.039592,-5.14e-4 -1.955765,-0.01854 -2.035942,-0.04005 -0.220815,-0.05926 -0.299566,-0.315951 -0.298372,-0.972563 0.0023,-1.185842 0.174395,-2.724162 0.450216,-4.020967 0.262586,-1.234597 0.295273,-2.143533 0.0898,-2.497172 -0.162725,-0.280068 -0.419095,-0.547934 -0.639065,-0.66773 -0.260981,-0.142131 -2.049891,-0.206758 -2.741731,-0.09905 -0.438275,0.06823 -1.102116,0.324425 -1.306193,0.504094 -0.05525,0.04866 -0.234601,0.196362 -0.398496,0.328218 -0.319366,0.256934 -0.504533,0.49934 -0.837174,1.09595 -0.115523,0.207202 -0.282541,0.500027 -0.371141,0.65072 -0.0886,0.150692 -0.229395,0.397281 -0.312877,0.547975 -0.08348,0.150692 -0.386531,0.686339 -0.673442,1.190325 -0.28691,0.503985 -0.521655,0.930758 -0.521655,0.948382 0,0.01762 -0.05724,0.113861 -0.127203,0.21386 -0.06996,0.1 -0.204308,0.320522 -0.29855,0.490052 -0.09424,0.169529 -0.241505,0.43153 -0.32725,0.582223 -0.08575,0.150693 -0.285383,0.505164 -0.443638,0.787714 -0.158257,0.282549 -0.359647,0.637021 -0.447535,0.787713 -0.08789,0.150693 -0.227092,0.398013 -0.309343,0.549599 -0.08225,0.151586 -0.277416,0.486089 -0.433702,0.743342 -0.156286,0.257251 -0.284157,0.490518 -0.284157,0.518369 0,0.02785 -0.196414,0.239246 -0.436477,0.469766 -0.434567,0.417293 -0.997226,0.733865 -1.592127,0.895787 -0.196266,0.05342 -1.821687,0.07674 -5.349262,0.07674 -4.822154,0 -5.072813,-0.006 -5.180689,-0.125264 -0.192612,-0.212834 -0.138936,-2.118028 0.09585,-3.402324 0.156601,-0.856596 0.221303,-1.11612 0.452539,-1.815166 0.226651,-0.685186 0.898414,-2.073764 1.121025,-2.317231 0.05753,-0.06293 0.179218,-0.22229 0.27041,-0.354147 0.09119,-0.131857 0.298367,-0.393276 0.460391,-0.58093 0.44242,-0.512412 0.591305,-0.872224 0.597654,-1.444357 0.0083,-0.751514 -0.340375,-1.322928 -1.020953,-1.672962 -0.253931,-0.130602 -0.368829,-0.147884 -0.766393,-0.115271 -0.257222,0.0211 -0.606384,0.06803 -0.775913,0.1043 -0.169531,0.03627 -0.570237,0.114222 -0.89046,0.17324 -0.320222,0.05902 -1.013753,0.197228 -1.541179,0.307136 -1.704479,0.355188 -1.973867,0.409482 -2.774122,0.559106 -0.433243,0.081 -0.859642,0.193229 -0.947554,0.24939 -0.214864,0.137263 -0.353886,0.493416 -0.353886,0.906601 0,0.285343 -0.02316,0.347418 -0.143889,0.385737 -0.1047,0.03323 -0.123355,0.06621 -0.0685,0.121061 0.132537,0.132537 0.08355,0.315041 -0.294618,1.097537 l -0.37001,0.765622 0.05983,0.924708 c 0.166973,2.580923 0.202643,3.220644 0.201721,3.617779 -8.53e-4,0.363578 0.02803,0.470736 0.180779,0.671004 0.210542,0.276036 0.169583,0.350776 -0.209094,0.38155 -0.150187,0.01221 -0.290024,0.06666 -0.319549,0.124446 -0.199709,0.390858 -0.341558,0.857317 -0.308893,1.015774 0.02074,0.100607 0.0696,0.906318 0.10858,1.790469 0.08405,1.906447 0.111658,2.12553 0.267847,2.12553 0.06278,0 0.243781,0.120885 0.402226,0.268633 0.247438,0.230731 0.288082,0.308042 0.288082,0.547974 v 0.279343 h -2.327588 -2.327589 z m 20.940665,-5.73322 c 0.215956,-0.03537 0.508779,-0.119067 0.650721,-0.18599 0.369273,-0.174108 0.839758,-0.671116 1.123973,-1.187338 0.134821,-0.244876 0.316277,-0.568524 0.403235,-0.719217 0.08696,-0.150693 0.232739,-0.411817 0.323961,-0.580275 0.09122,-0.168458 0.218286,-0.384223 0.282365,-0.479478 0.06408,-0.09525 0.205669,-0.34272 0.314645,-0.549923 0.108975,-0.207203 0.423666,-0.756283 0.699312,-1.220177 0.275647,-0.463894 0.501176,-0.855538 0.501176,-0.87032 0,-0.01478 0.09684,-0.190057 0.2152,-0.389499 0.11836,-0.199443 0.282702,-0.485917 0.365205,-0.636611 0.0825,-0.150693 0.222045,-0.397281 0.310093,-0.547974 0.413725,-0.708088 0.443165,-0.801469 0.444195,-1.408953 8.52e-4,-0.489291 -0.02686,-0.641155 -0.166375,-0.912413 -0.266191,-0.517559 -0.634345,-0.829677 -1.236815,-1.048562 -0.162071,-0.05888 -0.662916,-0.08744 -1.545973,-0.08813 l -1.306236,-10e-4 -0.288112,0.246614 c -0.158463,0.135637 -0.33354,0.33446 -0.389063,0.441828 -0.146362,0.283034 -0.129177,1.055321 0.03436,1.544197 0.07442,0.22247 0.136068,0.443019 0.136994,0.490111 0.0012,0.06419 -0.221174,0.08562 -0.888775,0.08562 -0.877463,0 -0.890474,0.0022 -0.891508,0.154118 -0.0022,0.326213 -0.261619,0.462354 -0.880954,0.462354 -0.48527,0 -0.602911,0.09583 -0.902603,0.735276 -0.206849,0.441348 -0.465538,0.974565 -1.803305,3.717019 -0.611151,1.252876 -0.706242,1.568897 -0.628361,2.088252 0.05507,0.367224 0.386031,0.746722 0.740495,0.849091 0.292919,0.08459 3.878343,0.09393 4.38215,0.01141 z M 22.146379,23.065503 c 0.128158,-0.0971 0.135663,-0.170952 0.116355,-1.145143 -0.03474,-1.752879 -0.04066,-1.757654 -1.794528,-1.447201 -0.972062,0.172065 -1.074446,0.211365 -1.155365,0.443488 -0.04371,0.125401 -0.04871,0.267067 -0.01266,0.35878 0.06133,0.156024 0.120952,0.212892 0.587166,0.560053 0.149946,0.111654 0.306324,0.234948 0.347508,0.273988 0.04118,0.03904 0.249653,0.194273 0.463264,0.344966 0.21361,0.150694 0.503562,0.373449 0.644336,0.495013 0.283501,0.244813 0.577889,0.287312 0.803929,0.116056 z m -3.422503,-3.73146 c 0.02457,-0.03975 0.311506,-0.247011 0.637638,-0.460572 0.326131,-0.213559 0.63365,-0.427575 0.683377,-0.47559 0.04973,-0.04802 0.17302,-0.105849 0.273987,-0.128521 0.617241,-0.138595 0.718861,-0.177344 0.623449,-0.237732 -0.211821,-0.134066 -0.746096,-0.04892 -0.961008,0.153141 -0.05344,0.05025 -0.250872,0.198731 -0.438735,0.329965 -0.351904,0.245827 -0.520776,0.379735 -0.884303,0.701216 -0.157119,0.138947 -0.181264,0.18687 -0.09491,0.188367 0.0637,0.0011 0.13593,-0.03052 0.1605,-0.07027 z M 74.289604,9.8420892 c 0.199372,-0.053425 0.197086,-0.1381339 -0.0046,-0.1767211 -0.233392,-0.044614 -1.005556,0.021706 -1.005556,0.086369 0,0.1054076 0.715421,0.1693862 1.01033,0.090352 z m 0.154123,-0.8815346 c 0,-0.083271 -0.110361,-0.1027457 -0.582223,-0.1027457 -0.534392,0 -0.659214,0.037174 -0.536562,0.1598264 0.02511,0.025116 0.287112,0.045668 0.582222,0.045668 0.431278,0 0.536563,-0.020164 0.536563,-0.1027449 z M 60.949843,3.4123092 c 0,-0.131856 -0.03084,-0.2397388 -0.06851,-0.2397388 -0.03766,0 -0.06851,0.1078828 -0.06851,0.2397388 0,0.1318567 0.03084,0.2397395 0.06851,0.2397395 0.03766,0 0.06851,-0.1078828 0.06851,-0.2397395 z m 1.780921,0 c 0,-0.131856 -0.02464,-0.2397388 -0.05471,-0.2397388 -0.03007,0 -0.04216,0.1078828 -0.02674,0.2397388 0.01542,0.1318567 0.03999,0.2397395 0.05471,0.2397395 0.01472,0 0.02674,-0.1078828 0.02674,-0.2397395 z"
   id="path1" /></svg>
