<?xml version="1.0" encoding="UTF-8" standalone="no"?>
<!-- Generator: Adobe Illustrator 16.0.0, SVG Export Plug-In . SVG Version: 6.00 Build 0)  -->

<svg
   version="1.1"
   x="0px"
   y="0px"
   width="88.5px"
   height="32px"
   viewBox="0 0 88.5 32"
   enable-background="new 0 0 88.5 32"
   xml:space="preserve"
   id="svg1"
   sodipodi:docname="ak47.svg"
   inkscape:version="1.3 (0e150ed6c4, 2023-07-21)"
   xmlns:inkscape="http://www.inkscape.org/namespaces/inkscape"
   xmlns:sodipodi="http://sodipodi.sourceforge.net/DTD/sodipodi-0.dtd"
   xmlns="http://www.w3.org/2000/svg"
   xmlns:svg="http://www.w3.org/2000/svg"><defs
   id="defs1" /><sodipodi:namedview
   id="namedview1"
   pagecolor="#ffffff"
   bordercolor="#000000"
   borderopacity="0.25"
   inkscape:showpageshadow="2"
   inkscape:pageopacity="0.0"
   inkscape:pagecheckerboard="0"
   inkscape:deskcolor="#d1d1d1"
   showgrid="false"
   inkscape:zoom="8.131728"
   inkscape:cx="51.096151"
   inkscape:cy="13.342798"
   inkscape:window-width="1920"
   inkscape:window-height="1009"
   inkscape:window-x="-8"
   inkscape:window-y="-8"
   inkscape:window-maximized="1"
   inkscape:current-layer="svg1" />&#10;&#10;<g
   id="guides">&#10;</g>&#10;<path
   style="fill:#ffffff;stroke-width:0.0078125"
   d=""
   id="path7" /><path
   style="fill:#ffffff;stroke-width:0.0078125"
   d=""
   id="path13" /><path
   style="fill:#ffffff;stroke-width:0.0078125"
   d=""
   id="path14" /><path
   style="fill:#ffffff;stroke-width:0.0738066"
   d="m 45.763795,29.112415 c -0.08997,-0.09942 -0.102311,-0.155518 -0.04236,-0.192569 0.103515,-0.06398 0.05195,-0.292756 -0.19948,-0.884955 -0.239776,-0.564758 -1.074497,-2.248873 -1.353526,-2.730845 -0.117506,-0.202968 -0.234031,-0.418853 -0.258945,-0.479743 -0.02492,-0.06089 -0.09296,-0.193742 -0.15121,-0.295226 -0.05825,-0.101484 -0.25718,-0.50004 -0.442065,-0.88568 -0.184884,-0.385639 -0.367259,-0.759285 -0.405279,-0.830324 -0.165258,-0.308784 -0.213412,-0.413324 -0.399464,-0.867228 -0.108154,-0.263859 -0.226632,-0.546169 -0.263285,-0.627356 -0.03665,-0.08119 -0.113941,-0.280465 -0.171753,-0.44284 -0.05781,-0.162374 -0.194946,-0.527717 -0.304742,-0.811872 -0.109796,-0.284156 -0.225955,-0.616286 -0.258129,-0.738067 -0.03217,-0.121781 -0.109293,-0.370878 -0.171375,-0.55355 -0.371191,-1.092199 -1.009802,-3.566664 -1.009802,-3.912745 0,-0.08467 -0.05509,-0.260242 -0.122419,-0.390155 -0.06733,-0.129914 -0.148309,-0.335845 -0.179952,-0.457626 -0.03164,-0.121782 -0.145015,-0.453911 -0.251937,-0.738066 -0.106922,-0.284157 -0.262732,-0.722324 -0.346243,-0.973706 -0.229392,-0.690506 -0.322783,-0.643855 -0.29467,0.147191 0.02812,0.791391 0.0033,0.914946 -0.240438,1.198651 -0.104646,0.121785 -0.221897,0.392514 -0.269733,0.62281 -0.04654,0.224058 -0.11064,0.507018 -0.142444,0.628799 -0.05229,0.200243 -0.05846,0.188671 -0.06448,-0.120986 -0.0078,-0.399549 -0.151694,-0.600284 -0.515865,-0.71948 -0.371885,-0.121721 -0.595827,-0.104445 -0.60983,0.04705 -0.01784,0.193078 -0.117905,-1.197983 -0.127413,-1.771358 -0.0066,-0.397307 0.01416,-0.498195 0.102449,-0.498195 0.084,0 0.11071,-0.0912 0.11071,-0.377991 v -0.377992 l -1.235383,0.05449 c -1.820161,0.08029 -1.786927,0.07169 -2.228052,0.576621 -0.347986,0.398324 -0.374509,0.456082 -0.374509,0.815551 0,0.497676 0.263028,0.922835 0.732736,1.184395 0.293769,0.163586 0.313064,0.188149 0.149031,0.189711 -0.35689,0.0034 -1.116333,-0.696877 -1.207758,-1.113668 -0.02125,-0.09688 -0.05506,-0.350515 -0.07514,-0.563623 -0.05682,-0.603071 -0.125642,-0.682726 -0.589959,-0.682726 -0.28342,0 -0.407478,-0.03136 -0.437927,-0.110709 -0.04785,-0.124707 -0.563762,-0.158478 -0.563762,-0.0369 0,0.04059 0.04982,0.07381 0.11071,0.07381 0.08978,0 0.11365,0.136072 0.126258,0.719614 0.02084,0.964768 -0.01231,1.512459 -0.09779,1.615454 -0.03885,0.04681 -0.193999,0.107979 -0.344779,0.13593 -0.55126,0.102193 -0.712021,0.270285 -0.935875,0.978556 -0.112421,0.355692 -0.263017,0.829385 -0.33466,1.05265 -0.07165,0.223265 -0.22056,0.704853 -0.330927,1.070196 -0.110366,0.365343 -0.242372,0.780505 -0.293346,0.922583 -0.05098,0.142077 -0.168275,0.50742 -0.260667,0.811872 -0.09239,0.304452 -0.233203,0.747468 -0.312911,0.984479 -0.152256,0.452727 -0.146904,0.803984 0.01825,1.198252 0.113442,0.270805 0.0626,0.509939 -0.169329,0.796493 -0.164362,0.203072 -0.197448,0.21176 -0.832526,0.218633 -0.495222,0.0053 -0.772448,-0.03163 -1.103573,-0.147259 -0.243217,-0.08493 -0.686318,-0.229653 -0.984671,-0.321607 -0.556115,-0.1714 -0.812075,-0.358339 -1.007148,-0.735569 -0.187818,-0.363199 -0.153895,-0.606005 0.257875,-1.845808 0.07415,-0.223266 0.273482,-0.854312 0.442956,-1.402326 0.169473,-0.548014 0.368071,-1.179061 0.441328,-1.402326 0.07326,-0.223265 0.208346,-0.655034 0.300199,-0.959486 0.09185,-0.304453 0.211683,-0.678771 0.266289,-0.831819 0.0546,-0.153047 0.09896,-0.402144 0.09856,-0.553549 -7.33e-4,-0.279766 -0.310914,-1.05025 -0.42281,-1.05025 -0.117266,0 -0.314535,-0.43037 -0.314535,-0.686203 0,-0.263343 0.0905,-0.34709 0.375069,-0.34709 0.07787,0 0.141577,-0.03639 0.141577,-0.08087 0,-0.05484 -0.231649,-0.07266 -0.719615,-0.05535 l -0.719614,0.02552 -0.0227,-0.313678 c -0.01248,-0.172523 -0.05832,-0.313678 -0.101857,-0.313678 -0.05019,0 -0.06542,0.121852 -0.04163,0.332975 0.0352,0.312227 0.02544,0.335649 -0.156466,0.375893 -0.106699,0.02361 -0.252182,0.05869 -0.323296,0.07798 -0.07111,0.01928 -0.396149,0.06196 -0.722299,0.09484 -0.406744,0.041 -0.639924,0.102244 -0.742389,0.194974 -0.118025,0.106811 -0.276284,0.136241 -0.753833,0.140183 -0.332445,0.0028 -0.903362,0.06487 -1.268704,0.13807 -0.365344,0.07319 -1.012997,0.197879 -1.439229,0.277077 -0.426234,0.07919 -1.090834,0.209381 -1.47689,0.289294 -0.386056,0.07991 -0.780617,0.145299 -0.876801,0.145299 -0.255985,0 -2.180997,0.498211 -2.775869,0.718421 -0.162376,0.06011 -0.444685,0.151794 -0.627357,0.203748 -0.182672,0.05195 -0.448376,0.135378 -0.590453,0.185389 -0.142078,0.05001 -0.424388,0.149019 -0.627356,0.220018 -0.202968,0.071 -1.415242,0.469053 -2.6939421,0.884566 -1.2786995,0.415513 -2.490973,0.81309 -2.6939412,0.883506 -0.7893002,0.273828 -1.1194819,0.383725 -1.4392291,0.479027 -0.1826714,0.05444 -0.4317687,0.135527 -0.5535496,0.180178 -0.121781,0.04465 -0.7313302,0.24768 -1.3545537,0.451172 L 2.5282225,17.591255 H 1.5025128 0.47680301 v -0.516647 c 0,-0.337499 0.0291729,-0.516646 0.0841324,-0.516646 0.0576333,0 0.0712142,-0.125166 0.0431181,-0.39739 -0.026356,-0.255365 -0.0103552,-0.428049 0.0447709,-0.483175 0.0493029,-0.0493 0.0868643,-0.319737 0.0883226,-0.635903 l 0.002538,-0.550118 H 0.4707803 0.20187621 l -0.0509621,-0.628079 c -0.0280292,-0.345444 -0.0306365,-0.660967 -0.005794,-0.701163 0.0248425,-0.0402 0.1770811,-0.07308 0.33830816,-0.07308 h 0.29314042 l -0.0321266,-0.881328 c -0.0176696,-0.48473 -0.0558213,-0.919665 -0.0847814,-0.966523 -0.0289602,-0.04686 -0.010718,-0.163559 0.0405381,-0.259331 0.0783128,-0.146329 0.0731129,-0.204779 -0.0325662,-0.366066 C 0.57730589,10.47795 0.53077835,10.201476 0.50249389,9.634523 0.48083509,9.20038 0.42090769,8.745533 0.36932173,8.623752 0.31773583,8.501971 0.28103443,8.252873 0.28776303,8.070202 l 0.0122339,-0.33213 7.27720397,-0.01881 7.2772031,-0.01881 0.552381,0.258682 0.552381,0.258682 1.207871,2.33e-4 c 0.959882,1.86e-4 1.313945,-0.02871 1.724517,-0.14073 1.459333,-0.398173 2.988226,-0.59721 4.589152,-0.597434 l 0.972627,-1.35e-4 0.05084,0.406911 c 0.07793,0.623778 0.213007,0.607979 0.151354,-0.0177 -0.04253,-0.431598 -0.03196,-0.525635 0.0632,-0.562148 0.08779,-0.033687 0.116017,0.0112 0.121821,0.193707 l 0.0075,0.237555 0.05614,-0.236001 c 0.03088,-0.1298 0.193541,-0.4001135 0.361479,-0.6006957 0.167936,-0.2005822 0.305339,-0.3849953 0.305339,-0.4098069 0,-0.024812 -0.11071,-0.045112 -0.246022,-0.045112 -0.135312,0 -0.266893,-0.020871 -0.292402,-0.04638 -0.02551,-0.025509 0.0686,-0.1866914 0.209119,-0.3581829 0.140524,-0.1714916 0.255499,-0.3665048 0.255499,-0.4333629 0,-0.089721 0.06766,-0.1215601 0.258323,-0.1215601 0.22634,0 0.258323,0.022845 0.258323,0.1845166 0,0.1014841 0.03022,0.1845165 0.06715,0.1845165 0.03693,0 0.393975,-0.3960548 0.793421,-0.8801218 l 0.726265,-0.8801217 10.535895,-0.00556 c 10.365747,-0.00547 10.535895,-0.00787 10.535895,-0.148332 0,-0.1289183 0.05193,-0.1418395 0.535098,-0.1331416 0.296279,0.00534 0.930384,-0.066514 1.420777,-0.1609825 0.487124,-0.093838 0.960409,-0.184016 1.051745,-0.2003944 0.09134,-0.016378 0.166065,-0.062359 0.166065,-0.1021795 0,-0.043782 -0.396947,-0.072401 -1.004219,-0.072401 -0.983258,0 -1.007248,0.00385 -1.14936,0.1845165 -0.181292,0.2304757 -0.450123,0.2378857 -0.669426,0.018452 -0.118,-0.1181261 -0.283129,-0.1767201 -0.571948,-0.20297 L 48.045169,3.2358673 48.02553,2.9406408 48.00589,2.6454143 48.188052,2.8483825 c 0.148054,0.1649653 0.245011,0.2029682 0.517831,0.2029682 0.18462,0 0.335671,-0.029339 0.335671,-0.065198 0,-0.1292093 0.328575,-0.1473217 0.572526,-0.03156 0.212989,0.1010699 0.476849,0.1125765 1.819545,0.079348 0.961749,-0.023801 1.631527,-0.071561 1.728058,-0.1232233 0.205391,-0.1099225 0.512411,-0.030069 0.568919,0.1479711 0.03839,0.1209483 0.118735,0.1402758 0.583145,0.1402758 0.636865,0 0.89308,0.1470681 0.969936,0.5567477 0.0434,0.2313554 0.07116,0.2551252 0.29797,0.2551252 0.167558,0 0.25011,-0.034801 0.25011,-0.105438 0,-0.150626 0.207204,-0.3374018 0.374305,-0.3374018 0.08153,0 0.142341,0.050669 0.142341,0.1186064 0,0.087196 0.0342,0.1023102 0.129162,0.057072 0.120944,-0.057619 8.075849,-0.041449 8.394496,0.017064 0.08064,0.014807 0.637588,0.030688 1.237675,0.035292 0.991577,0.00761 1.097911,0.021158 1.166121,0.148613 0.04128,0.077134 0.198407,0.195483 0.349169,0.2629989 0.246462,0.1103733 0.801065,0.1238813 5.497935,0.1339086 l 5.223822,0.011152 0.043,-0.1893851 c 0.02365,-0.1041618 0.09051,-0.3356255 0.148573,-0.5143636 0.05807,-0.1787381 0.125316,-0.4689904 0.149436,-0.6450052 0.05224,-0.3810927 0.155208,-0.4816784 0.523275,-0.5111461 0.41446,-0.033183 0.657505,0.087218 0.710454,0.3519493 0.02476,0.1237771 0.04501,0.9830455 0.04501,1.9094853 V 6.438674 l 1.051745,0.047364 c 0.578459,0.02605 1.876474,0.05271 2.884478,0.059245 l 1.832725,0.011882 0.09817,0.2328269 c 0.158705,0.3764031 0.428243,0.393938 1.550452,0.1008684 0.284151,-0.074208 0.641192,-0.15265 0.793417,-0.1743147 L 88.4543,6.677155 v 1.102459 1.102459 h -0.186077 c -0.102341,0 -0.426164,-0.06427 -0.719609,-0.142815 -1.138417,-0.304723 -1.279645,-0.32234 -1.488285,-0.185639 -0.105046,0.06883 -0.210886,0.204393 -0.235194,0.30125 -0.05611,0.223416 -0.262173,0.27513 -0.853405,0.214132 -0.256353,-0.02645 -0.943622,-0.06447 -1.527283,-0.0845 -0.844775,-0.02899 -1.13829,-0.01229 -1.439229,0.08189 -0.259763,0.08129 -0.583869,0.111373 -1.035906,0.09616 L 80.311446,9.140401 80.224976,8.882078 C 80.141176,8.631696 80.125666,8.623074 79.72039,8.60162 79.340884,8.58153 79.302268,8.59342 79.302268,8.730781 c 0,0.146921 -0.03842,0.151297 -1.328519,0.151297 -1.279313,0 -1.328519,-0.0055 -1.328519,-0.147614 0,-0.145824 -0.04921,-0.147613 -4.059364,-0.147613 -3.55912,0 -4.059365,0.01364 -4.059365,0.11071 0,0.08691 -0.101838,0.11071 -0.473706,0.11071 -0.684038,0 -0.707199,0.0167 -0.707199,0.509782 0,0.2311 -0.03986,0.460037 -0.08857,0.50875 -0.106872,0.106871 -0.575692,0.118892 -0.575692,0.01476 0,-0.04059 -0.04982,-0.07381 -0.11071,-0.07381 -0.08674,0 -0.11071,0.101079 -0.11071,0.466878 0,0.664853 -0.141878,0.787834 -0.908888,0.787834 -0.518039,0 -0.567244,-0.0128 -0.567244,-0.147613 0,-0.123011 -0.04921,-0.147613 -0.295227,-0.147613 -0.246022,0 -0.295226,0.0246 -0.295226,0.147613 0,0.114811 -0.04921,0.147613 -0.22142,0.147613 -0.172215,0 -0.22142,-0.0328 -0.22142,-0.147613 0,-0.123011 -0.04921,-0.147613 -0.295227,-0.147613 -0.246021,0 -0.295226,0.0246 -0.295226,0.147613 0,0.114811 -0.04921,0.147613 -0.22142,0.147613 -0.172215,0 -0.22142,-0.0328 -0.22142,-0.147613 0,-0.123011 -0.04921,-0.147613 -0.295226,-0.147613 -0.246022,0 -0.295227,0.0246 -0.295227,0.147613 0,0.205434 -0.336696,0.205434 -0.390418,0 -0.03067,-0.117287 -0.100674,-0.147613 -0.340738,-0.147613 -0.252932,0 -0.302137,0.02404 -0.302137,0.147613 0,0.114811 -0.04921,0.147613 -0.221419,0.147613 -0.172216,0 -0.22142,-0.0328 -0.22142,-0.147613 0,-0.123011 -0.04921,-0.147613 -0.295226,-0.147613 -0.246023,0 -0.295227,0.0246 -0.295227,0.147613 0,0.10825 -0.04921,0.147613 -0.184516,0.147613 -0.135312,0 -0.184517,-0.03936 -0.184517,-0.147613 0,-0.123011 -0.04921,-0.147613 -0.295227,-0.147613 -0.246021,0 -0.295226,0.0246 -0.295226,0.147613 0,0.114811 -0.04921,0.147613 -0.22142,0.147613 -0.172215,0 -0.22142,-0.0328 -0.22142,-0.147613 0,-0.123011 -0.04921,-0.147613 -0.295227,-0.147613 -0.246021,0 -0.295226,0.0246 -0.295226,0.147613 0,0.10825 -0.04921,0.147613 -0.184517,0.147613 -0.135311,0 -0.184516,-0.03936 -0.184516,-0.147613 0,-0.123011 -0.04921,-0.147613 -0.295226,-0.147613 -0.246023,0 -0.295226,0.0246 -0.295226,0.147613 0,0.114811 -0.04921,0.147613 -0.221421,0.147613 -0.172215,0 -0.22142,-0.0328 -0.22142,-0.147613 0,-0.123011 -0.04921,-0.147613 -0.295226,-0.147613 -0.243428,0 -0.295226,0.02523 -0.295226,0.143822 0,0.137362 -0.07872,0.145673 -1.752908,0.185058 -0.964098,0.02268 -1.968792,0.0493 -2.23265,0.05914 -0.544866,0.02034 -1.061492,-0.173341 -1.301125,-0.48779 l -0.138104,-0.181221 -1.549939,0.09989 c -0.852467,0.05494 -1.954399,0.101553 -2.448738,0.10359 l -0.898798,0.0037 0.03385,0.424388 c 0.07594,0.951898 0.464323,2.88905 0.74359,3.708783 0.06223,0.182671 0.139353,0.431768 0.171377,0.553549 0.03202,0.121781 0.116493,0.387485 0.187706,0.590453 0.352092,1.003506 0.400219,1.152847 0.844385,2.620135 0.09216,0.304452 0.229773,0.695593 0.305804,0.869202 0.07603,0.173609 0.138237,0.350387 0.138237,0.39284 0,0.184066 1.267572,2.645859 1.6866,3.275602 0.321016,0.482443 1.37844,1.75321 1.495665,1.797424 0.132746,0.05007 0.05674,0.158661 -0.266903,0.381334 -0.182671,0.125681 -0.33213,0.275046 -0.33213,0.33192 0,0.134747 -0.453124,0.479276 -0.634322,0.482301 -0.187859,0.0032 -0.365923,0.146292 -0.428944,0.344852 -0.0283,0.08916 -0.160775,0.229681 -0.294388,0.312258 -0.241983,0.149554 -0.719774,0.503701 -0.930351,0.689592 -0.06089,0.05375 -0.359807,0.277863 -0.664259,0.498022 -0.304453,0.22016 -0.570157,0.419494 -0.590454,0.442965 -0.138144,0.159748 -0.592539,0.440808 -0.712664,0.440808 -0.07985,0 -0.211257,0.05813 -0.292018,0.129161 -0.141013,0.12404 -0.440825,0.313679 -0.495912,0.313679 -0.01456,0 -0.0836,-0.06313 -0.153424,-0.140286 z M 5.191917,16.332179 c 1.4198707,-0.227323 1.5584488,-0.266367 1.5584488,-0.439095 0,-0.216372 -0.1045569,-0.234052 -0.6425799,-0.108663 -0.2757825,0.06427 -0.7296506,0.145765 -1.0085957,0.181094 -0.5417803,0.06862 -0.6828998,0.144513 -0.612043,0.329162 0.052638,0.137173 0.074837,0.138355 0.7047698,0.0375 z m 34.167425,-5.181183 c 0.01284,-0.111286 -0.01207,-0.202337 -0.05535,-0.202337 -0.04329,0 -0.07871,0.06643 -0.07871,0.147614 0,0.08119 -0.03321,0.147612 -0.07381,0.147612 -0.04059,0 -0.07381,0.03565 -0.07381,0.07922 0,0.178598 0.259499,0.02004 0.281677,-0.172107 z M 76.922009,6.9883925 77.752334,6.940548 V 6.5639551 6.1873623 l -4.815882,0.00697 c -3.440809,0.00499 -4.889502,0.031436 -5.073718,0.092643 -0.14181,0.047117 -0.465637,0.085668 -0.719615,0.085668 -0.374696,0 -0.461778,-0.022339 -0.461778,-0.1184622 0,-0.098619 -0.05254,-0.1094326 -0.313678,-0.064557 -0.172524,0.029649 -2.306457,0.075723 -4.742076,0.1023871 -3.003821,0.032886 -4.499625,0.075355 -4.649817,0.1320194 -0.168808,0.063688 0.927266,0.085109 4.612914,0.090152 2.658884,0.00364 5.307619,0.028265 5.886078,0.054728 l 1.051744,0.048114 V 6.8269659 7.036905 l 3.782589,-3.357e-4 c 2.080425,-1.846e-4 4.156236,-0.021866 4.612914,-0.04818 z M 51.020562,6.3116097 c 0.01709,-0.1730429 -0.007,-0.2341875 -0.09226,-0.2341875 -0.08318,0 -0.115386,0.073826 -0.115386,0.2644737 0,0.3334808 0.174229,0.3080684 0.207644,-0.030286 z M 79.624469,5.4664569 c 0.102967,-0.075293 0.124423,-0.1832352 0.106362,-0.535098 l -0.02262,-0.4407791 -0.324815,-0.02324 c -0.209899,-0.015018 -0.346589,0.011093 -0.386356,0.073806 -0.08681,0.136902 -0.07863,0.7064007 0.01261,0.8768678 0.08865,0.16564 0.418956,0.1916651 0.614824,0.048442 z M 53.589377,3.6277079 c 0.02988,-0.048346 0.0171,-0.1003116 -0.0284,-0.1154784 -0.0455,-0.015167 -0.06342,-0.077897 -0.03981,-0.1393996 0.03319,-0.086501 -0.0041,-0.1063133 -0.16452,-0.08749 -0.232686,0.027297 -0.342922,0.2056249 -0.132706,0.2146772 0.07758,0.00334 0.09595,0.021711 0.04305,0.043054 -0.05074,0.020475 -0.09226,0.067672 -0.09226,0.104883 0,0.099583 0.351188,0.082436 0.414648,-0.020246 z"
   id="path1" /><path
   style="fill:#ffffff;stroke-width:0.00641796"
   d="m 33.199401,14.918253 c -0.0022,-0.0088 -0.01046,-0.02 -0.01835,-0.02493 -0.01651,-0.01032 -0.125233,-0.01673 -0.28511,-0.01682 l -0.103905,-5.1e-5 -0.002,-0.02381 c -0.0025,-0.02981 -0.01055,-0.03245 -0.101842,-0.03331 l -0.06776,-6.4e-4 -0.006,-0.02727 -0.006,-0.02727 -0.0558,-0.0018 -0.0558,-0.0018 -0.0019,-0.02703 -0.0019,-0.02703 -0.05616,-0.0018 -0.05616,-0.0018 -9.8e-5,-0.02061 c -1.32e-4,-0.02776 -0.0054,-0.03404 -0.03291,-0.0391 -0.02078,-0.0038 -0.02388,-0.0069 -0.02786,-0.02819 -0.0053,-0.02786 -0.01179,-0.03332 -0.04021,-0.03345 -0.0193,-9.1e-5 -0.02086,-0.0017 -0.02086,-0.02128 0,-0.02722 -0.0098,-0.03658 -0.03839,-0.03658 -0.02005,0 -0.02316,-0.0021 -0.02435,-0.01647 -0.0018,-0.02112 -0.01442,-0.0336 -0.03722,-0.03665 -0.0132,-0.0018 -0.01935,-0.0071 -0.02269,-0.01958 -0.0025,-0.0094 -0.0032,-0.01715 -0.0015,-0.01715 0.0092,0 -0.01804,-0.01925 -0.03233,-0.02285 -0.0093,-0.0023 -0.01718,-0.0068 -0.01762,-0.0099 -0.0011,-0.008 -0.0023,-0.01291 -0.0075,-0.03259 -0.0036,-0.01358 -0.009,-0.01767 -0.02543,-0.01926 -0.01846,-0.0018 -0.02154,-0.0049 -0.02697,-0.02768 -0.0073,-0.03035 -0.01267,-0.03507 -0.0404,-0.0352 -0.02063,-9.8e-5 -0.02087,-4.5e-4 -0.02166,-0.03219 -9.18e-4,-0.03519 -9.18e-4,-0.03556 -0.0078,-0.05562 -0.0047,-0.01359 -0.03795,-0.03046 -0.04541,-0.02301 -0.0021,0.0021 -0.004,-0.01045 -0.0043,-0.0278 -9.18e-4,-0.06221 -0.0098,-0.08313 -0.03798,-0.08931 l -0.0193,-0.0043 8.35e-4,-0.05565 c 4.81e-4,-0.0306 0.0021,-0.04936 0.0036,-0.04168 0.0041,0.0209 0.01872,0.02993 0.05464,0.03368 0.0025,2.63e-4 0.0054,0.02574 0.0064,0.05663 l 0.0018,0.05616 0.02728,0.002 0.02728,0.002 9.8e-5,0.04937 c 5.4e-5,0.02716 0.0023,0.05275 0.0048,0.05687 0.0026,0.0041 0.01486,0.0085 0.02718,0.0096 0.02087,0.002 0.02263,0.0039 0.02562,0.0278 0.003,0.02419 0.0048,0.02602 0.03049,0.03172 0.0253,0.0056 0.02728,0.0076 0.02728,0.02705 0,0.02316 0.0134,0.0343 0.04129,0.0343 0.01273,0 0.01652,0.0033 0.0167,0.01444 6.49e-4,0.04052 0.0087,0.092 0.01505,0.09617 0.0039,0.0026 0.01611,0.0048 0.02702,0.0048 0.01753,8.7e-5 0.02073,0.0031 0.02745,0.02551 0.0064,0.02144 0.01085,0.02595 0.02829,0.02887 0.03158,0.0053 0.05799,0.0088 0.07042,0.0094 0.0077,3.59e-4 0.01123,0.0058 0.01123,0.01699 0,0.0279 0.01112,0.04129 0.0343,0.04129 0.01948,0 0.02144,0.002 0.02706,0.02728 0.0058,0.0264 0.0069,0.02734 0.03332,0.02925 0.01501,0.0011 0.02764,0.0047 0.02808,0.008 4.41e-4,0.0033 0.0012,0.0088 0.0016,0.01226 0.0014,0.01075 0.02272,0.03226 0.03283,0.0331 0.0053,4.42e-4 0.01258,0.0015 0.01611,0.0024 0.0035,9.18e-4 0.03241,0.002 0.06418,0.0024 l 0.05776,8.02e-4 9.7e-5,0.02086 c 1.57e-4,0.03313 0.0053,0.03617 0.06429,0.03823 l 0.05435,0.0019 0.0032,0.02529 c 0.0028,0.02238 0.0058,0.02594 0.02501,0.03091 0.02168,0.0056 1.739421,0.0031 1.760484,-0.0026 0.01691,-0.0045 0.03628,-0.02461 0.03846,-0.03984 l 0.002,-0.01377 0.62896,-0.0039 c 0.345928,-0.0022 0.631849,-0.0048 0.635378,-0.0061 0.0073,-0.0025 0.02888,-0.02376 0.02888,-0.02856 v -0.01283 c 0,-0.0084 0.04027,-0.0096 0.323882,-0.0096 0.313643,0 0.324091,-3.92e-4 0.330525,-0.01242 0.0037,-0.0068 0.0067,-0.01982 0.0067,-0.02888 v -0.01647 h 0.07649 c 0.04207,0 0.08106,-0.0018 0.08664,-0.0039 0.0068,-0.0026 0.01015,-0.01202 0.01015,-0.02888 v -0.02498 h 0.05089 c 0.05729,0 0.07106,-0.0075 0.07106,-0.03896 0,-0.01847 5.95e-4,-0.0188 0.03485,-0.0188 h 0.03485 l -0.0056,0.01937 c -0.0061,0.02132 -0.0063,0.02267 -0.0063,0.03197 0,0.0035 -0.0085,0.0064 -0.0188,0.0064 -0.02397,0 -0.03896,0.01501 -0.03896,0.03897 0,0.01872 -1.52e-4,0.0188 -0.04012,0.01929 -0.02206,2.7e-4 -0.04588,0.0015 -0.05295,0.0028 -0.0071,0.0013 -0.02497,0.0041 -0.03979,0.0063 -0.02001,0.0029 -0.0282,0.0076 -0.03177,0.01806 -0.0053,0.01568 -0.0067,0.02075 -0.0078,0.03014 -4.85e-4,0.0038 -0.03111,0.0064 -0.07729,0.0064 -0.04207,0 -0.08107,0.0018 -0.08668,0.0039 -0.0058,0.0022 -0.01194,0.01486 -0.01418,0.02888 l -0.004,0.02498 -0.254294,9.8e-5 c -0.139862,5.4e-5 -0.25764,0.0023 -0.261728,0.0048 -0.0041,0.0026 -0.0095,0.01556 -0.01195,0.02878 l -0.0045,0.02405 -0.63627,3.27e-4 c -0.349948,1.79e-4 -0.649264,0.0019 -0.665149,0.0038 -0.0337,0.0042 -0.05135,0.01738 -0.05135,0.03851 v 0.01505 l -0.592057,3.25e-4 c -0.325631,1.8e-4 -0.605054,0.0017 -0.620938,0.0033 -0.05415,0.0058 -0.07743,0.01601 -0.08142,0.03596 -0.0035,0.01734 -0.0052,0.01809 -0.04063,0.01809 -0.03408,0 -0.03733,-0.0013 -0.04102,-0.01597 z"
   id="path2" /></svg>
